<svg width="12" height="12" viewBox="0 0 12 12" fill="none" xmlns="http://www.w3.org/2000/svg">
<path fill-rule="evenodd" clip-rule="evenodd" d="M5.29272 0.275835L0.118161 4.91718C-0.116203 5.12739 0.0214397 5.53901 0.326101 5.53901H1.3507V11.6493C1.3507 11.843 1.4961 12 1.67545 12H4.17173C4.3511 12 4.4965 11.843 4.4965 11.6493V8.19741C4.4965 8.0033 4.64221 7.84596 4.82194 7.84596H7.17806C7.35779 7.84596 7.5035 8.0033 7.5035 8.19741V11.6493C7.5035 11.843 7.6489 12 7.82827 12H10.3245C10.5039 12 10.6493 11.843 10.6493 11.6493V5.53901H11.6739C11.9786 5.53901 12.1162 5.12739 11.8818 4.91718L6.70728 0.275835C6.29726 -0.0919451 5.70274 -0.0919451 5.29272 0.275835Z" fill="#2ECC71"/>
</svg>