<svg width="22" height="22" viewBox="0 0 22 22" fill="none" xmlns="http://www.w3.org/2000/svg">
<rect width="22" height="22" rx="3" fill="#311A5B"/>
<path fill-rule="evenodd" clip-rule="evenodd" d="M5.08437 16.9143C5.14062 16.9714 5.21937 17 5.32062 17H7.63245C7.90244 17 8.11619 16.8743 8.27368 16.6229L9.25241 14.96H13.6567L13.9267 16.5886C13.9717 16.8628 14.1461 17 14.4498 17H16.5929C16.7166 17 16.8179 16.9543 16.8966 16.8628C16.9754 16.7714 17.0091 16.6457 16.9979 16.4857L15.3611 5.49714C15.316 5.16571 15.1248 5 14.7873 5H12.0536C11.7274 5 11.4686 5.16571 11.2774 5.49714L5.05063 16.4857C5.01688 16.5542 5 16.6171 5 16.6743C5 16.7657 5.02813 16.8457 5.08437 16.9143ZM13.488 12.3886H10.4843L12.8973 8.01714L13.488 12.3886Z" fill="white"/>
</svg>