<svg width="22" height="22" viewBox="0 0 22 22" fill="none" xmlns="http://www.w3.org/2000/svg">
<rect width="22" height="22" rx="3" fill="white"/>
<path d="M8.59805 7.96699C9.04824 8.38866 9.47362 8.83543 9.87274 9.30559C10.0177 9.47477 10.1538 9.65137 10.2807 9.83452C10.4231 10.0391 10.5529 10.2516 10.6693 10.4719C10.7777 10.6813 11.0356 10.7632 11.245 10.6547C11.3232 10.6139 11.3874 10.55 11.4279 10.4719C11.5297 10.2742 11.6319 10.0893 11.7083 9.97461C11.8612 9.75151 12.027 9.53468 12.199 9.33726C12.5996 8.86852 13.0252 8.42175 13.4737 7.99866C13.8882 7.61637 14.315 7.24663 14.7487 6.896C14.9247 6.73909 14.9401 6.46891 14.7832 6.29289C14.7724 6.28091 14.761 6.26921 14.7487 6.25837C13.4072 5.11662 12.2729 3.75149 11.3959 2.22346C11.275 2.02119 11.0125 1.95528 10.8102 2.07625C10.7497 2.11248 10.6992 2.16298 10.6627 2.22346C9.75977 3.71269 8.61374 5.03988 7.27172 6.14996C7.09569 6.30715 7.08029 6.57704 7.2372 6.75307C7.24804 6.76505 7.25945 6.77675 7.27172 6.78759C7.73133 7.18272 8.17097 7.5653 8.59805 7.96699Z" fill="url(#paint0_linear_35906_286020)"/>
<path d="M19.5224 13.1108C19.0571 10.6059 16.9727 8.20286 16.9727 8.20286H17.3171C18.1864 8.83792 18.9298 9.62904 19.5098 10.5357V5.20699C19.5207 4.9856 19.3498 4.79702 19.1284 4.78646C19.0368 4.7819 18.9467 4.809 18.8725 4.86292C17.1154 5.87401 15.4886 7.0962 14.0282 8.50241C13.6057 8.90696 13.2037 9.33262 12.8234 9.77711C12.4594 10.2196 12.159 10.7109 11.931 11.2367C11.8417 11.4469 11.7016 11.9188 11.5804 12.3265C11.4637 12.737 11.0891 13.0206 10.6623 13.0215C10.6623 13.0215 10.2929 11.6381 10.1208 11.2367C9.89517 10.7097 9.59475 10.2182 9.22844 9.77711C8.84814 9.33233 8.44616 8.90696 8.02364 8.50241C6.54382 7.07252 4.8934 5.83064 3.10917 4.80558C2.92288 4.67862 2.66925 4.72684 2.54229 4.91285C2.49351 4.98446 2.46897 5.06948 2.47183 5.15592V10.5357C3.05925 9.62647 3.81157 8.83535 4.68998 8.20286H5.0215C5.0215 8.20286 2.95626 10.6187 2.47183 13.1236C2.35029 14.2793 2.64928 15.4399 3.31316 16.3936C4.07546 17.4332 5.22405 18.1225 6.49989 18.3057C6.79545 18.3496 7.09387 18.371 7.39229 18.3696C7.66531 18.367 7.93777 18.3482 8.20823 18.3122C9.42243 18.1425 10.6147 17.8435 11.765 17.4198L11.9624 17.573C10.9396 18.2603 9.83468 18.8172 8.67325 19.2303C9.01218 19.6294 9.50745 19.8622 10.031 19.8677H11.9878C12.885 19.8682 13.6522 19.222 13.8043 18.3379C14.0664 18.3702 14.3303 18.3873 14.5948 18.389C14.8935 18.3907 15.1916 18.3693 15.4872 18.3251C18.0289 17.9973 19.8302 15.6804 19.5221 13.1364L19.5224 13.1108Z" fill="url(#paint1_linear_35906_286020)"/>
<defs>
<linearGradient id="paint0_linear_35906_286020" x1="11.0107" y1="10.7026" x2="11.0107" y2="2.01594" gradientUnits="userSpaceOnUse">
<stop stop-color="#CC4617"/>
<stop offset="1" stop-color="#E18409"/>
</linearGradient>
<linearGradient id="paint1_linear_35906_286020" x1="11.0008" y1="19.8676" x2="11.0008" y2="4.7348" gradientUnits="userSpaceOnUse">
<stop stop-color="#C01518"/>
<stop offset="1" stop-color="#E18409"/>
</linearGradient>
</defs>
</svg>