<svg width="22" height="22" viewBox="0 0 22 22" fill="none" xmlns="http://www.w3.org/2000/svg">
<rect width="22" height="22" rx="3" fill="white"/>
<path d="M14.3678 14.2866L8.3826 17.7476C8.26095 17.8145 8.13322 17.8814 8.00549 17.9362C6.68557 17.3705 5.82793 16.0749 5.83402 14.6333V7.71749C5.82793 6.28201 6.68557 4.98035 8.00549 4.41467C8.13322 4.46942 8.26095 4.53632 8.3826 4.60323L14.3678 8.05812C16.7583 9.44494 16.7583 12.8998 14.3678 14.2866Z" fill="#28378D"/>
<path d="M12.2626 8.94527C11.7395 8.53166 11.1981 8.33093 10.6446 8.33093H8.61912C8.21767 8.33093 7.96829 8.41609 7.88313 8.59248C7.84056 8.67156 7.81014 8.75671 7.7919 8.84795C7.77973 8.95743 7.77365 9.06692 7.77973 9.18249V14.523C7.77365 14.6933 7.79189 14.8636 7.83447 15.0217C7.90746 15.2589 8.16901 15.3806 8.61304 15.3806C9.01449 15.3806 9.26387 15.2954 9.34903 15.1191C9.3916 15.04 9.42202 14.9548 9.44026 14.8636C9.45243 14.7541 9.45851 14.6446 9.45243 14.5351V13.4464H10.6324C11.192 13.4464 11.7334 13.2395 12.2565 12.832C12.5302 12.6191 12.7431 12.3393 12.8891 12.0291C13.0594 11.6763 13.1385 11.287 13.1324 10.8978C13.1385 10.5085 13.0533 10.1192 12.8891 9.76033C12.7492 9.43796 12.5302 9.16424 12.2626 8.94527ZM10.6446 11.7372H9.45243V10.034H10.6324C10.8392 10.0401 11.04 10.1131 11.1981 10.253C11.3806 10.399 11.4718 10.6119 11.4718 10.8917C11.4718 11.1715 11.3806 11.3844 11.1981 11.5243C11.0461 11.6581 10.8514 11.7311 10.6446 11.7372Z" fill="white"/>
<path d="M5.83447 14.6336V7.7177C5.82838 6.28222 6.68602 4.98056 8.00593 4.41488C8.13367 4.46963 8.2614 4.53653 8.38305 4.60344C5.99261 3.2227 3 4.95015 3 7.7177V14.6336C3 17.4011 5.98653 19.1286 8.38305 17.7478C8.2614 17.8147 8.13367 17.8816 8.00593 17.9364C6.68602 17.3707 5.82838 16.0751 5.83447 14.6336Z" fill="#FF0066"/>
<path d="M17.2027 8.05818L11.2174 4.60329C10.1591 3.99504 8.98515 3.98896 8.00586 4.41473C8.13359 4.46948 8.26133 4.53638 8.38298 4.60329L14.3682 8.05818C16.7586 9.445 16.7586 12.8999 14.3682 14.2867L8.38298 17.7477C8.26133 17.8146 8.13359 17.8815 8.00586 17.9362C8.98515 18.362 10.1591 18.3559 11.2174 17.7477L17.2027 14.2867C19.5992 12.8999 19.5992 9.445 17.2027 8.05818Z" fill="#0092EF"/>
</svg>