<svg width="22" height="22" viewBox="0 0 22 22" fill="none" xmlns="http://www.w3.org/2000/svg">
<rect width="22" height="22" rx="3" fill="white"/>
<path d="M10.7755 8.42035C9.59673 7.74133 8.33648 7.31763 7.0708 7.13293C6.59277 8.32257 6.33203 9.62627 6.33203 10.9897C6.33203 12.3532 6.59277 13.6569 7.0708 14.8465C8.34191 14.6618 9.59673 14.2381 10.7755 13.5591C11.9543 12.8801 12.9483 12.0001 13.7469 10.9897C12.9538 9.97936 11.9543 9.10479 10.7755 8.42035Z" fill="#730A13"/>
<path d="M13.7435 10.9893C12.9504 11.9996 11.9563 12.8742 10.7721 13.5586C9.59337 14.2377 8.33312 14.6668 7.06744 14.8461C5.61706 16.1552 4.5415 18.2411 4.15039 19.8925C7.08373 19.4688 9.98448 18.491 12.706 16.9157C15.4275 15.3404 17.7252 13.3142 19.5559 10.9893C17.861 11.527 15.384 11.5705 13.7435 10.9893Z" fill="#990E19"/>
<path d="M12.706 5.06286C9.98448 3.49298 7.0783 2.5152 4.15039 2.08606C5.64422 3.59619 6.6383 5.26928 7.06744 7.13249C8.33855 7.31719 9.59337 7.74089 10.7721 8.41991C11.9509 9.09892 12.9504 9.97892 13.7435 10.9893C15.3894 11.5705 17.861 11.5271 19.5559 10.9893C17.7252 8.65892 15.4275 6.63274 12.706 5.06286Z" fill="#BF1220"/>
<path d="M6.32927 10.9895C6.32927 9.62608 6.59002 8.32237 7.06804 7.13274C6.6389 5.27495 5.64483 3.60186 4.151 2.0863C3.04828 4.84039 2.44531 7.84435 2.44531 10.9895C2.44531 14.1347 3.05371 17.1387 4.151 19.8928C4.54211 18.2414 5.61767 16.1555 7.06804 14.8463C6.59002 13.6567 6.32927 12.353 6.32927 10.9895Z" fill="#E61626"/>
</svg>
