 <svg width="56" height="58" viewBox="0 0 56 58" fill="none" xmlns="http://www.w3.org/2000/svg">
              <g clip-path="url(#clip0_21891_235259)">
              <path d="M37.2064 49.0245C32.9663 56.4161 22.95 58.5853 14.8344 53.8694C6.71886 49.1536 3.57719 39.3385 7.81732 31.9468C12.0575 24.5551 26.1866 15.216 34.3022 19.9319C42.4178 24.6478 41.4466 41.6328 37.2064 49.0245Z" fill="url(#paint0_linear_21891_235259)"></path>
              <path fill-rule="evenodd" clip-rule="evenodd" d="M15.5297 52.6574C23.0669 57.0371 32.1791 54.9422 35.9819 48.3129C37.9409 44.8978 39.2143 39.0799 38.9808 33.5133C38.7439 27.8656 36.9967 23.1137 33.6069 21.144C30.2172 19.1742 25.2548 20.0273 20.2768 22.6446C15.3702 25.2244 11.0009 29.2432 9.04187 32.6583C5.23904 39.2877 7.99256 48.2776 15.5297 52.6574ZM14.8344 53.8694C22.95 58.5853 32.9663 56.4161 37.2064 49.0245C41.4465 41.6328 42.4178 24.6478 34.3022 19.9319C26.1866 15.216 12.0575 24.5551 7.81732 31.9468C3.57719 39.3385 6.71886 49.1536 14.8344 53.8694Z" fill="url(#paint1_linear_21891_235259)"></path>
              <path fill-rule="evenodd" clip-rule="evenodd" d="M35.0956 9.82797C35.7789 10.225 36.5653 9.70474 37.312 9.41418C38.2372 9.0541 39.2991 9.09893 40.212 9.62941C41.1249 10.1599 41.6944 11.063 41.8472 12.0496C41.9705 12.8456 41.916 13.7913 42.5994 14.1883C43.1343 14.4992 43.8253 14.538 44.441 14.1705L45.2863 13.666C46.5177 12.9309 48.0502 13.8215 48.0335 15.2623C47.9909 18.9251 44.1803 20.5912 40.549 22.179C39.5347 22.6225 38.5344 23.0599 37.634 23.533L36.948 23.8934L32.6714 21.4084L29.5705 19.6064L29.5376 18.8282C29.4945 17.8069 29.3707 16.7163 29.2451 15.6104C28.7957 11.6514 28.324 7.4969 31.4544 5.62841C32.6858 4.89336 34.2183 5.7839 34.2016 7.22477L34.1901 8.21382C34.1817 8.93425 34.5606 9.5171 35.0956 9.82797Z" fill="url(#paint2_linear_21891_235259)"></path>
              <path fill-rule="evenodd" clip-rule="evenodd" d="M37.5437 10.063C38.2855 9.77431 39.134 9.8108 39.8641 10.2351C40.5942 10.6593 41.0498 11.3806 41.1723 12.1716C41.1937 12.3095 41.2087 12.4494 41.2258 12.6081L41.2258 12.6083L41.2418 12.7556C41.265 12.9655 41.2945 13.2041 41.3474 13.4378C41.4534 13.9064 41.6774 14.4604 42.2515 14.794C42.979 15.2167 43.9311 15.2733 44.7767 14.7685L45.622 14.2639C46.3951 13.8025 47.3609 14.3637 47.3504 15.2683C47.3325 16.804 46.5433 17.9504 45.2358 18.9439C43.9037 19.9562 42.1269 20.7373 40.2905 21.5402L40.2773 21.546L40.2772 21.5461C39.2723 21.9854 38.2532 22.4311 37.3308 22.9157L36.9766 23.1018L30.2366 19.1853L30.2196 18.7835C30.1754 17.7372 30.0493 16.6261 29.9249 15.5305L29.9249 15.5304L29.9233 15.5159C29.696 13.5138 29.4797 11.5745 29.6846 9.90729C29.8858 8.27093 30.4776 7.00981 31.7901 6.22636C32.5632 5.76491 33.529 6.32613 33.5185 7.23068L33.507 8.21973C33.4954 9.20927 34.0201 10.0108 34.7477 10.4336C35.3218 10.7672 35.9104 10.6855 36.3666 10.5435C36.5941 10.4728 36.8142 10.3792 37.0064 10.2945L37.1412 10.2348C37.2863 10.1703 37.4142 10.1134 37.5437 10.063ZM40.5594 9.023C39.4637 8.38631 38.1884 8.33314 37.0797 8.76461C36.9168 8.82801 36.7491 8.90259 36.5994 8.9692L36.5992 8.9693L36.4865 9.01926C36.3 9.10144 36.1407 9.16759 35.9929 9.21359C35.6984 9.30517 35.5522 9.28503 35.443 9.22157C35.1006 9.02262 34.8674 8.65849 34.8726 8.20716L34.8841 7.21811C34.9071 5.24091 32.8079 4.02106 31.1181 5.0297C29.3003 6.11475 28.5628 7.86511 28.3295 9.76288C28.102 11.6136 28.3401 13.7105 28.5607 15.6533L28.5665 15.7042C28.6927 16.8156 28.8132 17.8805 28.8551 18.8722L28.8689 19.1985L37.649 24.3006L37.9367 24.1494C38.811 23.6901 39.7875 23.2627 40.8069 22.817L40.8537 22.7966C42.6356 22.0175 44.559 21.1765 46.0377 20.0529C47.554 18.9007 48.6913 17.3827 48.7161 15.2557C48.7391 13.2785 46.6398 12.0586 44.95 13.0673L44.1047 13.5718C43.719 13.8021 43.2891 13.7809 42.9467 13.5819C42.8375 13.5185 42.747 13.4011 42.6786 13.0986C42.6443 12.9467 42.6216 12.7748 42.599 12.5711L42.5857 12.4479L42.5856 12.4478C42.5681 12.284 42.5485 12.1005 42.5215 11.9268C42.3384 10.7447 41.6551 9.65969 40.5594 9.023Z" fill="url(#paint3_linear_21891_235259)"></path>
              <path d="M27.1407 17.3864C27.5247 16.717 28.3623 16.4802 29.0115 16.8574L39.5916 23.0054C40.2408 23.3827 40.4559 24.2311 40.0719 24.9005C39.6879 25.5699 38.8503 25.8068 38.201 25.4295L27.6209 19.2815C26.9717 18.9043 26.7567 18.0558 27.1407 17.3864Z" fill="url(#paint4_linear_21891_235259)"></path>
              <path d="M27.0835 27.7051C28.8844 25.7226 32.0238 27.5469 31.2184 30.1078C30.6964 31.7675 31.9336 33.4196 33.6337 33.333C36.257 33.1993 37.1639 36.7781 34.8282 38.0465C33.3145 38.8685 33.0241 40.9525 34.2613 42.1148C36.1703 43.9083 34.3135 47.1452 31.8158 46.378C30.197 45.8808 28.549 47.1759 28.5986 48.9064C28.6751 51.5764 25.1422 52.5753 23.9456 50.222C23.1701 48.6967 21.1299 48.4444 19.9628 49.7292C18.162 51.7118 15.0225 49.8875 15.828 47.3265C16.35 45.6668 15.1127 44.0147 13.4126 44.1014C10.7894 44.235 9.88242 40.6562 12.2181 39.3879C13.7318 38.5658 14.0223 36.4818 12.7851 35.3195C10.8761 33.526 12.7329 30.2891 15.2306 31.0563C16.8493 31.5535 18.4973 30.2584 18.4477 28.5279C18.3713 25.8579 21.9041 24.859 23.1007 27.2124C23.8763 28.7376 25.9164 28.99 27.0835 27.7051Z" fill="url(#paint5_linear_21891_235259)"></path>
              <path fill-rule="evenodd" clip-rule="evenodd" d="M30.8018 21.9382L30.6783 33.9099C30.6766 34.076 30.8614 34.18 31.0156 34.0996L33.4629 32.8234C33.5999 32.7519 33.7639 32.7502 33.8994 32.8187L36.321 34.0435C36.4735 34.1206 36.6605 34.0127 36.6622 33.8466L36.7857 21.875L33.7937 21.9066L30.8018 21.9382Z" fill="url(#paint6_linear_21891_235259)"></path>
              <path fill-rule="evenodd" clip-rule="evenodd" d="M29.9729 20.6479L28.0124 24.0655C27.9177 24.2307 28.0399 24.4421 28.2355 24.4514L31.3399 24.5977C31.5136 24.6059 31.6747 24.6995 31.7686 24.8468L33.4468 27.4796C33.5525 27.6454 33.7955 27.6462 33.8903 27.4811L35.8507 24.0635L32.9118 22.3557L29.9729 20.6479Z" fill="url(#paint7_linear_21891_235259)"></path>
              <path d="M23.673 42.5573C25.0744 40.1142 18.996 37.3846 21.3115 33.3481C22.2052 31.7901 24.1266 31.089 26.1948 31.7715L27.058 30.2666L29.1379 31.4752L28.2949 32.9446C29.3147 33.7732 29.9831 34.7518 30.2144 35.736L28.0864 36.6711C27.8066 35.7296 27.3847 35.0359 26.3719 34.4474C25.0878 33.7012 24.14 33.8822 23.6728 34.6966C22.2002 37.2637 28.4005 39.7808 26.0342 43.9058C25.0187 45.6763 23.0576 46.2363 21.064 45.55L20.0992 47.2319L18.0194 46.0233L18.974 44.3591C17.7576 43.369 16.821 41.975 16.9116 40.6821L19.0307 39.9306C19.2339 41.2998 20.1635 42.4537 21.1401 43.0212C22.1891 43.6307 23.1347 43.4957 23.673 42.5573Z" fill="url(#paint8_linear_21891_235259)"></path>
              <ellipse cx="3.39907" cy="3.49329" rx="3.39907" ry="3.49329" transform="matrix(0.864622 0.502422 -0.497582 0.867417 32.7539 15.7998)" fill="url(#paint9_linear_21891_235259)"></ellipse>
              <ellipse cx="2.03944" cy="2.09597" rx="2.03944" ry="2.09597" transform="matrix(0.864622 0.502422 -0.497582 0.867417 33.2354 17.6956)" fill="url(#paint10_linear_21891_235259)"></ellipse>
              </g>
              <defs>
              <linearGradient id="paint0_linear_21891_235259" x1="35.4474" y1="17.9356" x2="11.0226" y2="59.9684" gradientUnits="userSpaceOnUse">
              <stop stop-color="#FEEA7D"></stop>
              <stop offset="1" stop-color="#FF9900"></stop>
              </linearGradient>
              <linearGradient id="paint1_linear_21891_235259" x1="34.3022" y1="19.9319" x2="11.1765" y2="59.7291" gradientUnits="userSpaceOnUse">
              <stop stop-color="#FFBC4B"></stop>
              <stop offset="1" stop-color="#FDF897"></stop>
              </linearGradient>
              <linearGradient id="paint2_linear_21891_235259" x1="40.621" y1="8.91643" x2="31.8978" y2="23.9282" gradientUnits="userSpaceOnUse">
              <stop stop-color="#FEEA7D"></stop>
              <stop offset="1" stop-color="#FF9900"></stop>
              </linearGradient>
              <linearGradient id="paint3_linear_21891_235259" x1="40.5594" y1="9.023" x2="31.4743" y2="24.6576" gradientUnits="userSpaceOnUse">
              <stop stop-color="#FFBC4B"></stop>
              <stop offset="1" stop-color="#FDF897"></stop>
              </linearGradient>
              <linearGradient id="paint4_linear_21891_235259" x1="34.4615" y1="21.0188" x2="33.7054" y2="22.3199" gradientUnits="userSpaceOnUse">
              <stop stop-color="#9A00EB"></stop>
              <stop offset="1" stop-color="#C955FF"></stop>
              </linearGradient>
              <linearGradient id="paint5_linear_21891_235259" x1="33.3365" y1="21.6099" x2="19.0783" y2="46.1469" gradientUnits="userSpaceOnUse">
              <stop stop-color="#63E000"></stop>
              <stop offset="1" stop-color="#027940"></stop>
              </linearGradient>
              <linearGradient id="paint6_linear_21891_235259" x1="34.2966" y1="31.1658" x2="34.3275" y2="34.0911" gradientUnits="userSpaceOnUse">
              <stop stop-color="#A302F8"></stop>
              <stop offset="1" stop-color="#C955FF"></stop>
              </linearGradient>
              <linearGradient id="paint7_linear_21891_235259" x1="33.0824" y1="23.4245" x2="31.3976" y2="26.324" gradientUnits="userSpaceOnUse">
              <stop stop-color="#A302F8"></stop>
              <stop offset="1" stop-color="#C955FF"></stop>
              </linearGradient>
              <linearGradient id="paint8_linear_21891_235259" x1="24.0265" y1="37.8423" x2="18.9563" y2="46.5677" gradientUnits="userSpaceOnUse">
              <stop stop-color="#FEF795"></stop>
              <stop offset="1" stop-color="#FFCE48"></stop>
              </linearGradient>
              <linearGradient id="paint9_linear_21891_235259" x1="4.07888" y1="2.14971" x2="4.07888" y2="5.91171" gradientUnits="userSpaceOnUse">
              <stop stop-color="#9A00EB"></stop>
              <stop offset="1" stop-color="#C955FF"></stop>
              </linearGradient>
              <linearGradient id="paint10_linear_21891_235259" x1="2.03944" y1="0" x2="2.03944" y2="4.19194" gradientUnits="userSpaceOnUse">
              <stop stop-color="#FDF897"></stop>
              <stop offset="1" stop-color="#FFA816"></stop>
              </linearGradient>
              <clipPath id="clip0_21891_235259">
              <rect width="33.9907" height="51.7008" fill="white" transform="matrix(0.864622 0.502422 -0.497582 0.867417 25.8652 0.484375)"></rect>
              </clipPath>
              </defs>
              </svg>