<svg width="30" height="30" viewBox="0 0 30 30" fill="none" xmlns="http://www.w3.org/2000/svg">
<path fill-rule="evenodd" clip-rule="evenodd" d="M0.400001 0C0.178971 0 0 0.1794 0 0.4V19.4792C0 25.2566 4.72753 29.9841 10.5054 29.9841C15.798 29.9841 20.2062 26.017 20.91 20.91C26.017 20.2062 29.9836 15.7974 29.9836 10.5054C29.9836 4.7275 25.2566 0 19.4787 0H0.400001ZM5.79689 19.4792V5.9969C5.79689 5.8864 5.88637 5.7969 5.99694 5.7969H19.4787C21.9038 5.7969 24.1872 7.6956 24.1872 10.5054C24.1872 12.8931 22.4037 15.1671 19.4895 15.1671L15.5871 15.1897C15.3681 15.1908 15.1907 15.3681 15.1892 15.5872L15.1671 19.4895C15.1671 22.4041 12.8931 24.1872 10.5054 24.1872C7.69617 24.1872 5.79689 21.9044 5.79689 19.4792ZM23.0879 26.544C23.0879 28.4525 24.635 30 26.544 30C28.4525 30 30 28.4525 30 26.544C30 24.635 28.4525 23.0879 26.544 23.0879C24.635 23.0879 23.0879 24.635 23.0879 26.544Z" fill="url(#paint0_linear_8830_98654)"/>
<defs>
<linearGradient id="paint0_linear_8830_98654" x1="15" y1="-15" x2="-15" y2="15" gradientUnits="userSpaceOnUse">
<stop stop-color="#2EFF71"/>
<stop offset="1" stop-color="#009148"/>
</linearGradient>
</defs>
</svg>