<svg width="24" height="24" viewBox="0 0 24 24" fill="none" xmlns="http://www.w3.org/2000/svg">
<path fill-rule="evenodd" clip-rule="evenodd" d="M15 2.3C15 2.13431 14.8657 2 14.7 2H9.3C9.13431 2 9 2.13431 9 2.3V10H15V2.3ZM9 1C8.44772 1 8 1.44772 8 2V10C8 10.5523 8.44772 11 9 11H15C15.5523 11 16 10.5523 16 10V2C16 1.44772 15.5523 1 15 1H9Z" fill="#7C82ED"/>
<path d="M21 14C21 18.9706 16.9706 23 12 23C7.02944 23 3 18.9706 3 14C3 9.02944 7.02944 5 12 5C16.9706 5 21 9.02944 21 14Z" fill="#E4E6FF"/>
<path fill-rule="evenodd" clip-rule="evenodd" d="M11.6837 17.7899C11.678 17.9042 11.7695 18 11.8845 18H12.3429C12.4578 18 12.5493 17.9043 12.5436 17.7901L12.5022 16.9552C12.9052 16.8869 13.2478 16.7264 13.5299 16.4738C13.8178 16.2143 13.9733 15.8762 13.9963 15.4597C14.0136 15.1251 13.9704 14.8519 13.8668 14.6402C13.7689 14.4285 13.6307 14.2578 13.4522 14.128C13.2795 13.9983 13.0866 13.8959 12.8736 13.8207C12.6605 13.7456 12.4475 13.6808 12.2345 13.6261C12.0215 13.5647 11.8228 13.4998 11.6386 13.4315C11.4601 13.3564 11.3162 13.2608 11.2068 13.1447C11.0974 13.0286 11.0427 12.8715 11.0427 12.6735C11.0542 12.4413 11.1492 12.2672 11.3277 12.1511C11.5062 12.035 11.7048 11.977 11.9236 11.977C11.9984 11.977 12.1021 11.9872 12.2345 12.0077C12.3669 12.0282 12.4993 12.076 12.6318 12.1511C12.7699 12.2262 12.8822 12.3423 12.9686 12.4994C13.0321 12.6029 13.0737 12.7357 13.0934 12.8976C13.1084 13.0207 13.219 13.1152 13.3418 13.0942L13.7776 13.0196C13.874 13.0031 13.9453 12.9198 13.94 12.8226C13.9236 12.5186 13.8618 12.2538 13.7545 12.0282C13.6278 11.755 13.4551 11.5399 13.2363 11.3828C13.0175 11.219 12.7728 11.1097 12.5022 11.0551L12.5437 10.2098C12.5493 10.0956 12.4578 10 12.343 10H11.8844C11.7694 10 11.6779 10.0957 11.6836 10.21L11.7249 11.0346C11.2355 11.0892 10.8527 11.2531 10.5763 11.5262C10.2999 11.7926 10.1531 12.134 10.1359 12.5506C10.1186 12.8784 10.1589 13.1515 10.2568 13.37C10.3546 13.5817 10.4899 13.7525 10.6627 13.8822C10.8354 14.012 11.0254 14.1178 11.2327 14.1997C11.4457 14.2817 11.6587 14.3534 11.8718 14.4149C12.0848 14.4763 12.2777 14.5446 12.4504 14.6197C12.6289 14.688 12.7728 14.7802 12.8822 14.8963C12.9916 15.0124 13.0434 15.166 13.0377 15.3572C13.0377 15.5211 12.9571 15.6816 12.7958 15.8387C12.6346 15.9957 12.3957 16.0743 12.079 16.0743C11.7854 16.0743 11.5551 16.0162 11.3881 15.9001C11.2212 15.7772 11.0974 15.6372 11.0168 15.4802C10.9419 15.3163 10.8959 15.1729 10.8786 15.0499C10.8631 14.9336 10.7447 14.8461 10.6291 14.8692L10.158 14.9633C10.0571 14.9834 9.98705 15.0764 10.002 15.1777C10.0529 15.5222 10.1522 15.8142 10.2999 16.0538C10.4727 16.3269 10.6857 16.5386 10.939 16.6889C11.1924 16.8391 11.4543 16.9347 11.7249 16.9757L11.6837 17.7899Z" fill="#7C82ED"/>
<path fill-rule="evenodd" clip-rule="evenodd" d="M12 22C16.4183 22 20 18.4183 20 14C20 9.58172 16.4183 6 12 6C7.58172 6 4 9.58172 4 14C4 18.4183 7.58172 22 12 22ZM12 23C16.9706 23 21 18.9706 21 14C21 9.02944 16.9706 5 12 5C7.02944 5 3 9.02944 3 14C3 18.9706 7.02944 23 12 23Z" fill="#7C82ED"/>
<path fill-rule="evenodd" clip-rule="evenodd" d="M12 20C15.3137 20 18 17.3137 18 14C18 10.6863 15.3137 8 12 8C8.68629 8 6 10.6863 6 14C6 17.3137 8.68629 20 12 20ZM12 21C15.866 21 19 17.866 19 14C19 10.134 15.866 7 12 7C8.13401 7 5 10.134 5 14C5 17.866 8.13401 21 12 21Z" fill="#7C82ED"/>
</svg>