<svg width="24" height="24" viewBox="0 0 24 24" fill="none" xmlns="http://www.w3.org/2000/svg">
<path fill-rule="evenodd" clip-rule="evenodd" d="M12 22C16.9251 22 21 17.7932 21 12.5C21 7.20676 16.9251 3 12 3C7.07485 3 3 7.20676 3 12.5C3 17.7932 7.07485 22 12 22ZM12 23C17.5228 23 22 18.299 22 12.5C22 6.70101 17.5228 2 12 2C6.47715 2 2 6.70101 2 12.5C2 18.299 6.47715 23 12 23Z" fill="#FFA608"/>
<path d="M2 8C2 6.89543 2.89543 6 4 6H20C21.1046 6 22 6.89543 22 8V17C22 18.1046 21.1046 19 20 19H4C2.89543 19 2 18.1046 2 17V8Z" fill="#FFFCEB"/>
<path fill-rule="evenodd" clip-rule="evenodd" d="M4 5H20C21.6569 5 23 6.34315 23 8V17C23 18.6569 21.6569 20 20 20H4C2.34315 20 1 18.6569 1 17V8C1 6.34315 2.34315 5 4 5ZM4 6C2.89543 6 2 6.89543 2 8V17C2 18.1046 2.89543 19 4 19H20C21.1046 19 22 18.1046 22 17V8C22 6.89543 21.1046 6 20 6H4Z" fill="#FFA608"/>
<path fill-rule="evenodd" clip-rule="evenodd" d="M4.5 8H6.5C7.32843 8 8 8.67157 8 9.5V15.5C8 16.3284 7.32843 17 6.5 17H4.5C3.67157 17 3 16.3284 3 15.5V9.5C3 8.67157 3.67157 8 4.5 8ZM4.5 9C4.22386 9 4 9.22386 4 9.5V15.5C4 15.7761 4.22386 16 4.5 16H6.5C6.77614 16 7 15.7761 7 15.5V9.5C7 9.22386 6.77614 9 6.5 9H4.5Z" fill="#FFA608"/>
<path d="M5.24158 11.1936C5.32012 10.9355 5.67988 10.9355 5.75842 11.1936L5.91998 11.7244C5.95501 11.8395 6.05979 11.918 6.17841 11.918H6.72899C6.98772 11.918 7.09879 12.2514 6.89319 12.4108L6.42479 12.7741C6.33471 12.844 6.2971 12.9635 6.33057 13.0735L6.50391 13.643C6.58166 13.8985 6.29055 14.1047 6.08128 13.9424L5.6642 13.6188C5.56726 13.5436 5.43274 13.5436 5.3358 13.6188L4.91872 13.9424C4.70945 14.1047 4.41834 13.8985 4.49609 13.643L4.66943 13.0735C4.7029 12.9635 4.66529 12.844 4.57521 12.7741L4.10681 12.4108C3.90121 12.2514 4.01228 11.918 4.27101 11.918H4.82159C4.94021 11.918 5.04499 11.8395 5.08002 11.7244L5.24158 11.1936Z" fill="#FFA608"/>
<path fill-rule="evenodd" clip-rule="evenodd" d="M10.5 8H13.5C14.3284 8 15 8.67157 15 9.5V15.5C15 16.3284 14.3284 17 13.5 17H10.5C9.67157 17 9 16.3284 9 15.5V9.5C9 8.67157 9.67157 8 10.5 8ZM10.5 9C10.2239 9 10 9.22386 10 9.5V15.5C10 15.7761 10.2239 16 10.5 16H13.5C13.7761 16 14 15.7761 14 15.5V9.5C14 9.22386 13.7761 9 13.5 9H10.5Z" fill="#FFA608"/>
<path d="M11.7416 11.1936C11.8201 10.9355 12.1799 10.9355 12.2584 11.1936L12.42 11.7244C12.455 11.8395 12.5598 11.918 12.6784 11.918H13.229C13.4877 11.918 13.5988 12.2514 13.3932 12.4108L12.9248 12.7741C12.8347 12.844 12.7971 12.9635 12.8306 13.0735L13.0039 13.643C13.0817 13.8985 12.7906 14.1047 12.5813 13.9424L12.1642 13.6188C12.0673 13.5436 11.9327 13.5436 11.8358 13.6188L11.4187 13.9424C11.2094 14.1047 10.9183 13.8985 10.9961 13.643L11.1694 13.0735C11.2029 12.9635 11.1653 12.844 11.0752 12.7741L10.6068 12.4108C10.4012 12.2514 10.5123 11.918 10.771 11.918H11.3216C11.4402 11.918 11.545 11.8395 11.58 11.7244L11.7416 11.1936Z" fill="#FFA608"/>
<path fill-rule="evenodd" clip-rule="evenodd" d="M17.5 8H19.5C20.3284 8 21 8.67157 21 9.5V15.5C21 16.3284 20.3284 17 19.5 17H17.5C16.6716 17 16 16.3284 16 15.5V9.5C16 8.67157 16.6716 8 17.5 8ZM17.5 9C17.2239 9 17 9.22386 17 9.5V15.5C17 15.7761 17.2239 16 17.5 16H19.5C19.7761 16 20 15.7761 20 15.5V9.5C20 9.22386 19.7761 9 19.5 9H17.5Z" fill="#FFA608"/>
<path d="M18.2416 11.1936C18.3201 10.9355 18.6799 10.9355 18.7584 11.1936L18.92 11.7244C18.955 11.8395 19.0598 11.918 19.1784 11.918H19.729C19.9877 11.918 20.0988 12.2514 19.8932 12.4108L19.4248 12.7741C19.3347 12.844 19.2971 12.9635 19.3306 13.0735L19.5039 13.643C19.5817 13.8985 19.2906 14.1047 19.0813 13.9424L18.6642 13.6188C18.5673 13.5436 18.4327 13.5436 18.3358 13.6188L17.9187 13.9424C17.7094 14.1047 17.4183 13.8985 17.4961 13.643L17.6694 13.0735C17.7029 12.9635 17.6653 12.844 17.5752 12.7741L17.1068 12.4108C16.9012 12.2514 17.0123 11.918 17.271 11.918H17.8216C17.9402 11.918 18.045 11.8395 18.08 11.7244L18.2416 11.1936Z" fill="#FFA608"/>
</svg>