<svg width="24" height="24" viewBox="0 0 24 24" fill="none" xmlns="http://www.w3.org/2000/svg">
<path d="M12.387 1.07003C12.138 0.976655 11.8637 0.976655 11.6146 1.07003L2.8146 4.37003C2.38526 4.53103 2.10083 4.94147 2.10083 5.4V12.0613C2.10083 15.8112 4.21945 19.2391 7.57342 20.9162L11.5089 22.8838C11.8186 23.0387 12.1831 23.0387 12.4928 22.8838L16.4282 20.9162C19.7822 19.2391 21.9008 15.8112 21.9008 12.0613V5.4C21.9008 4.94147 21.6164 4.53103 21.187 4.37003L12.387 1.07003Z" fill="#E83EF8"/>
<path d="M12.3476 2.1602C12.1234 2.07616 11.8765 2.07616 11.6524 2.1602L3.73236 5.1302C3.34595 5.2751 3.08997 5.64449 3.08997 6.05717V12.0523C3.08997 15.4272 4.99673 18.5124 8.0153 20.0217L11.5572 21.7926C11.8359 21.932 12.164 21.932 12.4427 21.7926L15.9846 20.0217C19.0032 18.5124 20.91 15.4272 20.91 12.0523V6.05717C20.91 5.64449 20.654 5.2751 20.2676 5.1302L12.3476 2.1602Z" fill="#FDE4FF"/>
<path fill-rule="evenodd" clip-rule="evenodd" d="M7.9231 6.87207H11.9123C13.9228 6.87207 15.6373 8.06252 16.2952 9.88112C16.1684 9.77419 16.0077 9.68354 15.8044 9.62476C15.6585 9.58156 15.5084 9.56173 15.3569 9.56173H10.299C10.224 9.56173 10.1631 9.62405 10.1631 9.70054V10.1856C10.1631 10.2621 10.224 10.3237 10.299 10.3237H15.1309C15.3441 10.3237 15.5006 10.3457 15.6507 10.391C16.1104 10.5305 16.3483 10.8301 16.4701 11.1013C16.5459 11.2699 16.5834 11.4526 16.5834 11.6367V16.0862C16.5834 16.3716 16.3561 16.6039 16.0757 16.6039H12.0879C10.0533 16.6039 8.32393 15.3837 7.68232 13.5332C7.81474 13.6486 7.98683 13.7492 8.20849 13.8115C8.35013 13.8512 8.49601 13.871 8.64261 13.871H13.6948C13.7727 13.871 13.8364 13.8059 13.8364 13.7258V13.2528C13.8364 13.1734 13.7727 13.1083 13.6948 13.1083H8.86851C8.65606 13.1083 8.49955 13.0863 8.34942 13.0417C7.77934 12.8689 7.5513 12.4497 7.45995 12.143C7.43091 12.0446 7.41675 11.9419 7.41675 11.8399V7.38904C7.41675 7.10364 7.64337 6.87207 7.9231 6.87207Z" fill="#E83EF8"/>
</svg>