<svg width="24" height="24" viewBox="0 0 24 24" fill="none" xmlns="http://www.w3.org/2000/svg">
<path d="M1 6C1 4.89543 1.89543 4 3 4H21C22.1046 4 23 4.89543 23 6V18C23 19.1046 22.1046 20 21 20H3C1.89543 20 1 19.1046 1 18V6Z" fill="#EDFFEB"/>
<path fill-rule="evenodd" clip-rule="evenodd" d="M21 5H3C2.44772 5 2 5.44772 2 6V18C2 18.5523 2.44772 19 3 19H21C21.5523 19 22 18.5523 22 18V6C22 5.44771 21.5523 5 21 5ZM3 4C1.89543 4 1 4.89543 1 6V18C1 19.1046 1.89543 20 3 20H21C22.1046 20 23 19.1046 23 18V6C23 4.89543 22.1046 4 21 4H3Z" fill="#5ACF3D"/>
<path fill-rule="evenodd" clip-rule="evenodd" d="M15 22L12 19.969L9 22V13H15V22Z" fill="#EDFFEB"/>
<path fill-rule="evenodd" clip-rule="evenodd" d="M8.5 13C8.5 12.7239 8.72386 12.5 9 12.5H15C15.2761 12.5 15.5 12.7239 15.5 13V22C15.5 22.185 15.3978 22.3549 15.2344 22.4417C15.0709 22.5284 14.8729 22.5178 14.7197 22.414L12 20.5728L9.28031 22.414C9.12708 22.5178 8.9291 22.5284 8.76564 22.4417C8.60219 22.3549 8.5 22.185 8.5 22V13ZM9.5 13.5V21.0577L11.7197 19.5549C11.889 19.4403 12.111 19.4403 12.2803 19.5549L14.5 21.0577V13.5H9.5Z" fill="#5ACF3D"/>
<path d="M18 12C18 15.3137 15.3137 18 12 18C8.68629 18 6 15.3137 6 12C6 8.68629 8.68629 6 12 6C15.3137 6 18 8.68629 18 12Z" fill="#EDFFEB"/>
<path fill-rule="evenodd" clip-rule="evenodd" d="M11.6837 15.7899C11.678 15.9042 11.7695 16 11.8845 16H12.3429C12.4578 16 12.5493 15.9043 12.5436 15.7901L12.5022 14.9552C12.9052 14.8869 13.2478 14.7264 13.5299 14.4738C13.8178 14.2143 13.9733 13.8762 13.9963 13.4597C14.0136 13.1251 13.9704 12.8519 13.8668 12.6402C13.7689 12.4285 13.6307 12.2578 13.4522 12.128C13.2795 11.9983 13.0866 11.8959 12.8736 11.8207C12.6605 11.7456 12.4475 11.6808 12.2345 11.6261C12.0215 11.5647 11.8228 11.4998 11.6386 11.4315C11.4601 11.3564 11.3162 11.2608 11.2068 11.1447C11.0974 11.0286 11.0427 10.8715 11.0427 10.6735C11.0542 10.4413 11.1492 10.2672 11.3277 10.1511C11.5062 10.035 11.7048 9.97695 11.9236 9.97695C11.9984 9.97695 12.1021 9.9872 12.2345 10.0077C12.3669 10.0282 12.4993 10.076 12.6318 10.1511C12.7699 10.2262 12.8822 10.3423 12.9686 10.4994C13.0321 10.6029 13.0737 10.7357 13.0934 10.8976C13.1084 11.0207 13.219 11.1152 13.3418 11.0942L13.7776 11.0196C13.874 11.0031 13.9453 10.9198 13.94 10.8226C13.9236 10.5186 13.8618 10.2538 13.7545 10.0282C13.6278 9.75502 13.4551 9.53991 13.2363 9.38284C13.0175 9.21895 12.7728 9.10969 12.5022 9.05506L12.5437 8.20976C12.5493 8.09561 12.4578 8 12.343 8H11.8844C11.7694 8 11.6779 8.09573 11.6836 8.20996L11.7249 9.03457C11.2355 9.0892 10.8527 9.25309 10.5763 9.52625C10.2999 9.79257 10.1531 10.134 10.1359 10.5506C10.1186 10.8784 10.1589 11.1515 10.2568 11.37C10.3546 11.5817 10.4899 11.7525 10.6627 11.8822C10.8354 12.012 11.0254 12.1178 11.2327 12.1997C11.4457 12.2817 11.6587 12.3534 11.8718 12.4149C12.0848 12.4763 12.2777 12.5446 12.4504 12.6197C12.6289 12.688 12.7728 12.7802 12.8822 12.8963C12.9916 13.0124 13.0434 13.166 13.0377 13.3572C13.0377 13.5211 12.9571 13.6816 12.7958 13.8387C12.6346 13.9957 12.3957 14.0743 12.079 14.0743C11.7854 14.0743 11.5551 14.0162 11.3881 13.9001C11.2212 13.7772 11.0974 13.6372 11.0168 13.4802C10.9419 13.3163 10.8959 13.1729 10.8786 13.0499C10.8631 12.9336 10.7447 12.8461 10.6291 12.8692L10.158 12.9633C10.0571 12.9834 9.98705 13.0764 10.002 13.1777C10.0529 13.5222 10.1522 13.8142 10.2999 14.0538C10.4727 14.3269 10.6857 14.5386 10.939 14.6889C11.1924 14.8391 11.4543 14.9347 11.7249 14.9757L11.6837 15.7899Z" fill="#5ACF3D"/>
<path fill-rule="evenodd" clip-rule="evenodd" d="M12 17C14.7614 17 17 14.7614 17 12C17 9.23858 14.7614 7 12 7C9.23858 7 7 9.23858 7 12C7 14.7614 9.23858 17 12 17ZM12 18C15.3137 18 18 15.3137 18 12C18 8.68629 15.3137 6 12 6C8.68629 6 6 8.68629 6 12C6 15.3137 8.68629 18 12 18Z" fill="#5ACF3D"/>
<circle cx="4" cy="12" r="1" fill="#5ACF3D"/>
<circle cx="20" cy="12" r="1" fill="#5ACF3D"/>
</svg>
