<svg width="24" height="24" viewBox="0 0 24 24" fill="none" xmlns="http://www.w3.org/2000/svg">
<path d="M23 12C23 18.0751 18.0751 23 12 23C5.92487 23 1 18.0751 1 12C1 5.92487 5.92487 1 12 1C18.0751 1 23 5.92487 23 12Z" fill="#FFE8EF"/>
<path fill-rule="evenodd" clip-rule="evenodd" d="M12 22C17.5228 22 22 17.5228 22 12C22 6.47715 17.5228 2 12 2C6.47715 2 2 6.47715 2 12C2 17.5228 6.47715 22 12 22ZM12 23C18.0751 23 23 18.0751 23 12C23 5.92487 18.0751 1 12 1C5.92487 1 1 5.92487 1 12C1 18.0751 5.92487 23 12 23Z" fill="#FA4E81"/>
<path d="M6.99998 9.20003V15.3C6.99998 15.4105 7.08953 15.5 7.19999 15.5H10.175C10.2854 15.5 10.375 15.4105 10.375 15.3V9.20003C10.375 9.08958 10.4645 9.00003 10.575 9.00003H11.8092C11.9811 9.00003 12.0729 8.79765 11.9598 8.66833L8.89539 5.1662C8.81752 5.0772 8.67985 5.07484 8.59897 5.16111L5.31572 8.66325C5.19597 8.79098 5.28654 9.00003 5.46163 9.00003H6.79998C6.91044 9.00003 6.99998 9.08958 6.99998 9.20003Z" fill="#FFE8EF"/>
<path fill-rule="evenodd" clip-rule="evenodd" d="M10.575 9.00003C10.4646 9.00003 10.375 9.08958 10.375 9.20003V15.3C10.375 15.4105 10.2855 15.5 10.175 15.5H7.20002C7.08956 15.5 7.00002 15.4105 7.00002 15.3V9.20003C7.00002 9.08958 6.91047 9.00003 6.80001 9.00003H5.46166C5.28657 9.00003 5.196 8.79098 5.31575 8.66325L8.599 5.16111C8.67988 5.07484 8.81755 5.0772 8.89542 5.1662L11.9598 8.66833C12.0729 8.79765 11.9811 9.00003 11.8093 9.00003H10.575ZM11.375 10V15.3C11.375 15.9628 10.8378 16.5 10.175 16.5H7.20002C6.53727 16.5 6.00002 15.9628 6.00002 15.3V10H5.46166C4.41113 10 3.86771 8.74571 4.58621 7.97931L7.86946 4.47717C8.35474 3.95954 9.18076 3.97372 9.648 4.5077L12.7124 8.00983C13.3913 8.78573 12.8403 10 11.8093 10H11.375Z" fill="#FA4E81"/>
<path d="M13.75 9.20003V15.3C13.75 15.4105 13.8395 15.5 13.95 15.5H16.925C17.0354 15.5 17.125 15.4105 17.125 15.3V9.20003C17.125 9.08958 17.2145 9.00003 17.325 9.00003H18.5592C18.7311 9.00003 18.8229 8.79765 18.7098 8.66833L15.6454 5.1662C15.5675 5.0772 15.4298 5.07484 15.349 5.16111L12.0657 8.66325C11.946 8.79098 12.0365 9.00003 12.2116 9.00003H13.55C13.6604 9.00003 13.75 9.08958 13.75 9.20003Z" fill="#FFE8EF"/>
<path fill-rule="evenodd" clip-rule="evenodd" d="M17.325 9.00003C17.2146 9.00003 17.125 9.08958 17.125 9.20003V15.3C17.125 15.4105 17.0355 15.5 16.925 15.5H13.95C13.8396 15.5 13.75 15.4105 13.75 15.3V9.20003C13.75 9.08958 13.6605 9.00003 13.55 9.00003H12.2117C12.0366 9.00003 11.946 8.79098 12.0657 8.66325L15.349 5.16111C15.4299 5.07484 15.5675 5.0772 15.6454 5.1662L18.7098 8.66833C18.8229 8.79765 18.7311 9.00003 18.5593 9.00003H17.325ZM18.125 10V15.3C18.125 15.9628 17.5878 16.5 16.925 16.5H13.95C13.2873 16.5 12.75 15.9628 12.75 15.3V10H12.2117C11.1611 10 10.6177 8.74571 11.3362 7.97931L14.6195 4.47717C15.1047 3.95954 15.9308 3.97372 16.398 4.5077L19.4624 8.00983C20.1413 8.78573 19.5903 10 18.5593 10H18.125Z" fill="#FA4E81"/>
<path d="M13.75 15.2999L13.75 9.19991C13.75 9.08945 13.6605 8.99991 13.55 8.99991L10.575 8.99991C10.4646 8.99991 10.375 9.08945 10.375 9.19991L10.375 15.2999C10.375 15.4104 10.2855 15.4999 10.175 15.4999L8.95118 15.4999C8.7777 15.4999 8.68649 15.7057 8.80298 15.8342L11.9768 19.3364C12.0562 19.424 12.1938 19.424 12.2732 19.3364L15.4471 15.8342C15.5636 15.7057 15.4724 15.4999 15.2989 15.4999L13.95 15.4999C13.8396 15.4999 13.75 15.4104 13.75 15.2999Z" fill="#FFE8EF"/>
<path fill-rule="evenodd" clip-rule="evenodd" d="M10.175 15.4999C10.2855 15.4999 10.375 15.4104 10.375 15.2999L10.375 9.19991C10.375 9.08945 10.4646 8.99991 10.575 8.99991L13.55 8.99991C13.6605 8.99991 13.75 9.08945 13.75 9.19991L13.75 15.2999C13.75 15.4104 13.8396 15.4999 13.95 15.4999L15.2989 15.4999C15.4723 15.4999 15.5636 15.7057 15.4471 15.8342L12.2732 19.3364C12.1938 19.424 12.0562 19.424 11.9768 19.3364L8.80297 15.8342C8.68647 15.7057 8.77769 15.4999 8.95117 15.4999L10.175 15.4999ZM9.37501 14.4999L9.37501 9.19991C9.37501 8.53717 9.91227 7.99991 10.575 7.99991L13.55 7.99991C14.2128 7.99991 14.75 8.53717 14.75 9.19991L14.75 14.4999L15.2989 14.4999C16.3397 14.4999 16.887 15.7345 16.188 16.5057L13.0142 20.0079C12.5379 20.5335 11.7121 20.5335 11.2358 20.0079L8.06198 16.5057C7.36301 15.7345 7.91029 14.4999 8.95117 14.4999L9.37501 14.4999Z" fill="#FA4E81"/>
</svg>