<svg width="30" height="30" viewBox="0 0 30 30" fill="none" xmlns="http://www.w3.org/2000/svg">
<path fill-rule="evenodd" clip-rule="evenodd" d="M15 24.9C20.4676 24.9 24.9 20.4676 24.9 15C24.9 9.53238 20.4676 5.1 15 5.1C9.53238 5.1 5.1 9.53238 5.1 15C5.1 20.4676 9.53238 24.9 15 24.9ZM15 26C21.0751 26 26 21.0751 26 15C26 8.92487 21.0751 4 15 4C8.92487 4 4 8.92487 4 15C4 21.0751 8.92487 26 15 26Z" fill="#FF6C2D"/>
<path d="M9.48315 9.3871C9.64023 8.87097 10.3598 8.87097 10.5168 9.3871L10.84 10.4488C10.91 10.679 11.1196 10.8359 11.3568 10.8359H12.458C12.9754 10.8359 13.1976 11.5027 12.7864 11.8217L11.8496 12.5483C11.6694 12.688 11.5942 12.927 11.6611 13.1469L12.0078 14.2861C12.1633 14.797 11.5811 15.2094 11.1626 14.8847L10.3284 14.2377C10.1345 14.0873 9.86548 14.0873 9.6716 14.2377L8.83743 14.8847C8.4189 15.2094 7.83669 14.797 7.99219 14.2861L8.33887 13.1469C8.4058 12.927 8.33057 12.688 8.15042 12.5483L7.21362 11.8217C6.80243 11.5027 7.02457 10.8359 7.54202 10.8359H8.64318C8.88043 10.8359 9.08999 10.6789 9.16003 10.4488L9.48315 9.3871Z" fill="#FF6C2D"/>
<path d="M19.4832 9.3871C19.6402 8.87097 20.3598 8.87097 20.5168 9.3871L20.84 10.4488C20.91 10.679 21.1196 10.8359 21.3568 10.8359H22.458C22.9754 10.8359 23.1976 11.5027 22.7864 11.8217L21.8496 12.5483C21.6694 12.688 21.5942 12.927 21.6611 13.1469L22.0078 14.2861C22.1633 14.797 21.5811 15.2094 21.1626 14.8847L20.3284 14.2377C20.1345 14.0873 19.8655 14.0873 19.6716 14.2377L18.8374 14.8847C18.4189 15.2094 17.8367 14.797 17.9922 14.2861L18.3389 13.1469C18.4058 12.927 18.3306 12.688 18.1504 12.5483L17.2136 11.8217C16.8024 11.5027 17.0246 10.8359 17.542 10.8359H18.6432C18.8804 10.8359 19.09 10.6789 19.16 10.4488L19.4832 9.3871Z" fill="#FF6C2D"/>
<path fill-rule="evenodd" clip-rule="evenodd" d="M11.6012 18.5C11.7553 18.9002 12.0843 19.3309 12.5766 19.6988C13.2104 20.1725 14.0637 20.5 15 20.5C15.9364 20.5 16.7897 20.1725 17.4235 19.6988C17.9158 19.3309 18.2448 18.9002 18.3989 18.5H11.6012ZM10.5157 18.2589C10.462 17.8112 10.8321 17.5 11.2 17.5H18.8C19.168 17.5 19.5381 17.8112 19.4844 18.2589C19.3829 19.1038 18.8055 19.9144 18.0222 20.4998C17.228 21.0934 16.1673 21.5 15 21.5C13.8328 21.5 12.7721 21.0934 11.9779 20.4998C11.1946 19.9144 10.6172 19.1038 10.5157 18.2589Z" fill="#FF6C2D"/>
</svg>