<svg width="30" height="30" viewBox="0 0 30 30" fill="none" xmlns="http://www.w3.org/2000/svg">
<path fill-rule="evenodd" clip-rule="evenodd" d="M20 5H10C8.89543 5 8 5.89543 8 7V23C8 24.1046 8.89543 25 10 25H20C21.1046 25 22 24.1046 22 23V7C22 5.89543 21.1046 5 20 5ZM10 4C8.34315 4 7 5.34315 7 7V23C7 24.6569 8.34315 26 10 26H20C21.6569 26 23 24.6569 23 23V7C23 5.34315 21.6569 4 20 4H10Z" fill="#999999"/>
<path fill-rule="evenodd" clip-rule="evenodd" d="M12.9802 16.8017C13.4571 16.9926 13.9239 16.9436 14.3025 16.7371C14.3917 16.6891 14.4826 16.7948 14.4229 16.881C14.2731 17.0973 13.9221 17.4968 13.6896 17.7552C13.6078 17.8473 13.6694 18 13.7888 18H16.2112C16.3306 18 16.3931 17.8473 16.3104 17.7552C16.0779 17.4968 15.7269 17.0973 15.5771 16.881C15.5183 16.7948 15.6083 16.6891 15.6975 16.7371C16.0761 16.9436 16.5429 16.9926 17.0198 16.8017C17.6346 16.5569 18.0169 15.899 17.9994 15.2C17.9994 15.1628 17.9985 15.1246 17.9967 15.0855C17.9232 13.5719 15.8408 12.0329 15.1746 11.094C15.0855 10.9687 14.9145 10.9687 14.8263 11.094C14.1592 12.0329 12.0768 13.5719 12.0033 15.0855C12.0015 15.1246 12.0006 15.1628 12.0006 15.2C11.9831 15.899 12.3663 16.5569 12.9802 16.8017Z" fill="#999999"/>
</svg>