<svg width="30" height="30" viewBox="0 0 30 30" fill="none" xmlns="http://www.w3.org/2000/svg">
<path fill-rule="evenodd" clip-rule="evenodd" d="M20.0338 19.9054C22.9902 16.949 24.039 13.128 23.2211 10.2796C23.0502 9.68446 23.158 9.10646 23.345 8.6583C23.6077 8.02882 23.4779 7.21676 22.8998 6.63864C22.3217 6.06053 21.5097 5.93082 20.8802 6.19346C20.432 6.38044 19.854 6.48827 19.2589 6.31738C16.4104 5.49949 12.5895 6.54825 9.63303 9.50469C6.74897 12.3888 5.67763 16.1006 6.39063 18.9262C6.54493 19.5377 6.41228 20.1255 6.19163 20.5795C5.84719 21.2883 5.9738 22.235 6.63861 22.8998C7.30342 23.5646 8.25013 23.6912 8.95889 23.3468C9.41294 23.1262 10.0007 22.9935 10.6122 23.1478C13.4378 23.8609 17.1497 22.7895 20.0338 19.9054ZM24.1986 9.99893C24.1087 9.68574 24.1581 9.35062 24.2836 9.0499C24.7086 8.03137 24.482 6.78256 23.619 5.91952C22.7559 5.05648 21.5071 4.82992 20.4886 5.25488C20.1879 5.38035 19.8527 5.42981 19.5395 5.33988C16.2593 4.39799 12.0704 5.6291 8.9139 8.78556C5.83272 11.8667 4.58615 15.9317 5.40454 19.175C5.48575 19.4968 5.422 19.8365 5.27692 20.135C4.73724 21.2455 4.95753 22.657 5.91948 23.6189C6.88143 24.5809 8.29289 24.8012 9.40341 24.2615C9.70194 24.1165 10.0416 24.0527 10.3634 24.1339C13.6067 24.9523 17.6717 23.7058 20.7529 20.6246C23.9094 17.4681 25.1405 13.2792 24.1986 9.99893Z" fill="#999999"/>
</svg>