<svg width="40" height="40" viewBox="0 0 40 40" fill="none" xmlns="http://www.w3.org/2000/svg">
<rect x="1" y="1" width="38" height="38" rx="7" fill="url(#paint0_linear_25186_349866)" stroke="url(#paint1_linear_25186_349866)" stroke-width="2"/>
<circle cx="19.9996" cy="19.9996" r="13.7857" fill="url(#paint2_linear_25186_349866)" stroke="url(#paint3_linear_25186_349866)"/>
<path fill-rule="evenodd" clip-rule="evenodd" d="M19.982 33.7143C27.5658 33.7143 33.7137 27.6302 33.7137 20.1252C33.7137 17.1696 32.7602 14.4343 31.141 12.2043C26.21 10.9283 23.0735 15.8398 21.3552 21.0958C20.0997 26.2209 15.274 23.6194 11.3506 21.0958C8.96375 19.7243 7.34249 20.0275 6.28516 21.1017C6.79093 28.1509 12.7299 33.7143 19.982 33.7143Z" fill="url(#paint4_linear_25186_349866)"/>
<g filter="url(#filter0_d_25186_349866)">
<path fill-rule="evenodd" clip-rule="evenodd" d="M27.1154 12.0002C26.6008 12.0002 26.1244 12.2721 25.8626 12.7152L20.31 22.1119C19.6677 23.1987 20.4512 24.5717 21.7136 24.5717V24.5717H26.285V26.8574C26.285 27.4886 26.7967 28.0002 27.4279 28.0002C28.059 28.0002 28.5707 27.4886 28.5707 26.8574V24.5717H29.1422C29.7733 24.5717 30.285 24.06 30.285 23.4288C30.285 22.7976 29.7733 22.286 29.1422 22.286H28.5707V13.4555C28.5707 12.6518 27.9192 12.0002 27.1154 12.0002V12.0002ZM26.285 22.286V16.8329L23.0638 22.286H26.285Z" fill="url(#paint5_linear_25186_349866)"/>
<path fill-rule="evenodd" clip-rule="evenodd" d="M15.1509 12C15.156 12 15.1609 12 15.1657 12C17.5361 12 19.0996 13.6338 19.5401 15.0997C20.0193 16.6942 19.6876 18.5631 18.688 20.0625C18.6638 20.0987 18.6376 20.1336 18.6095 20.1668L13.9155 25.7144H19.9994C20.6306 25.7144 21.1423 26.2261 21.1423 26.8572C21.1423 27.4884 20.6306 28.0001 19.9994 28.0001H11.4514C11.0064 28.0001 10.6018 27.7418 10.4146 27.3381C10.2273 26.9344 10.2915 26.4587 10.5789 26.119L16.8199 18.7433C17.4575 17.7557 17.6078 16.6116 17.3511 15.7575C17.1651 15.1386 16.4078 14.2857 15.1657 14.2857C14.8849 14.2857 14.2302 14.2965 13.6584 14.63C13.1908 14.9028 12.5805 15.5044 12.5709 17.1495C12.5672 17.7807 12.0525 18.2894 11.4213 18.2857C10.7902 18.282 10.2815 17.7674 10.2852 17.1362C10.2989 14.7813 11.26 13.3829 12.5067 12.6557C13.632 11.9993 14.8156 11.9998 15.1509 12Z" fill="url(#paint6_linear_25186_349866)"/>
</g>
<defs>
<filter id="filter0_d_25186_349866" x="8.28516" y="10" width="24" height="20.0002" filterUnits="userSpaceOnUse" color-interpolation-filters="sRGB">
<feFlood flood-opacity="0" result="BackgroundImageFix"/>
<feColorMatrix in="SourceAlpha" type="matrix" values="0 0 0 0 0 0 0 0 0 0 0 0 0 0 0 0 0 0 127 0" result="hardAlpha"/>
<feOffset/>
<feGaussianBlur stdDeviation="1"/>
<feComposite in2="hardAlpha" operator="out"/>
<feColorMatrix type="matrix" values="0 0 0 0 0.866667 0 0 0 0 0.126389 0 0 0 0 0.481722 0 0 0 1 0"/>
<feBlend mode="normal" in2="BackgroundImageFix" result="effect1_dropShadow_25186_349866"/>
<feBlend mode="normal" in="SourceGraphic" in2="effect1_dropShadow_25186_349866" result="shape"/>
</filter>
<linearGradient id="paint0_linear_25186_349866" x1="4.57143" y1="6.57143" x2="31.7143" y2="37.1429" gradientUnits="userSpaceOnUse">
<stop stop-color="#FF75AF"/>
<stop offset="1" stop-color="#FA549A"/>
</linearGradient>
<linearGradient id="paint1_linear_25186_349866" x1="8.85714" y1="2.85714" x2="28" y2="40" gradientUnits="userSpaceOnUse">
<stop stop-color="#FF9EC7"/>
<stop offset="1" stop-color="#E8327E"/>
</linearGradient>
<linearGradient id="paint2_linear_25186_349866" x1="19.9996" y1="5.71387" x2="19.9996" y2="34.2853" gradientUnits="userSpaceOnUse">
<stop stop-color="#FF96C2"/>
<stop offset="1" stop-color="#FF79A9"/>
</linearGradient>
<linearGradient id="paint3_linear_25186_349866" x1="19.9996" y1="5.71387" x2="19.9996" y2="34.2853" gradientUnits="userSpaceOnUse">
<stop stop-color="#FFC0D7"/>
<stop offset="1" stop-color="#FF5EAB" stop-opacity="0"/>
</linearGradient>
<linearGradient id="paint4_linear_25186_349866" x1="33.7137" y1="35.4286" x2="12.0396" y2="-1.35936" gradientUnits="userSpaceOnUse">
<stop stop-color="#FF469F"/>
<stop offset="1" stop-color="#F85B94"/>
</linearGradient>
<linearGradient id="paint5_linear_25186_349866" x1="21.0542" y1="11.4841" x2="28.6612" y2="27.2813" gradientUnits="userSpaceOnUse">
<stop stop-color="white"/>
<stop offset="1" stop-color="#FFBCE8"/>
</linearGradient>
<linearGradient id="paint6_linear_25186_349866" x1="12.3731" y1="11.4839" x2="20.2208" y2="26.9663" gradientUnits="userSpaceOnUse">
<stop stop-color="white"/>
<stop offset="1" stop-color="#FFBCE8"/>
</linearGradient>
</defs>
</svg>
