<svg width="40" height="40" viewBox="0 0 40 40" fill="none" xmlns="http://www.w3.org/2000/svg">
<rect x="1" y="1" width="38" height="38" rx="7" fill="url(#paint0_linear_25186_349856)" stroke="url(#paint1_linear_25186_349856)" stroke-width="2"/>
<circle cx="19.9996" cy="19.9996" r="13.7857" fill="url(#paint2_linear_25186_349856)" stroke="url(#paint3_linear_25186_349856)"/>
<path fill-rule="evenodd" clip-rule="evenodd" d="M19.982 33.7143C27.5658 33.7143 33.7137 27.6302 33.7137 20.1252C33.7137 17.1696 32.7602 14.4343 31.141 12.2043C26.21 10.9283 23.0735 15.8398 21.3552 21.0958C20.0997 26.2209 15.274 23.6194 11.3506 21.0958C8.96375 19.7243 7.34249 20.0275 6.28516 21.1017C6.79093 28.1509 12.7299 33.7143 19.982 33.7143Z" fill="url(#paint4_linear_25186_349856)"/>
<g filter="url(#filter0_d_25186_349856)">
<path fill-rule="evenodd" clip-rule="evenodd" d="M19.5583 29.068C19.8528 29.1682 20.1963 29.1682 20.4908 29.068C24.8098 27.9157 27.9509 24.3588 28 20.1506V13.9384C28 13.6379 27.8037 13.3373 27.4601 13.2371L20.589 10.9326C20.2454 10.8324 19.8528 10.8324 19.4601 10.9326L12.5399 13.2371C12.2454 13.3373 12 13.6379 12 13.9384V20.2007C12.0982 24.3588 15.2393 27.9157 19.5583 29.068ZM23.9102 16.8783C24.0796 16.612 24.0011 16.2589 23.7349 16.0894C23.4686 15.92 23.1154 15.9985 22.946 16.2647L19.6655 21.4198C19.5535 21.5958 19.2969 21.5964 19.1841 21.421L17.3373 18.5482C17.1667 18.2828 16.8131 18.2059 16.5476 18.3766C16.2822 18.5472 16.2053 18.9008 16.376 19.1662L18.4643 22.4147C18.9154 23.1164 19.942 23.1141 20.3898 22.4103L23.9102 16.8783Z" fill="url(#paint5_linear_25186_349856)"/>
</g>
<defs>
<filter id="filter0_d_25186_349856" x="10" y="8.85742" width="20" height="22.2858" filterUnits="userSpaceOnUse" color-interpolation-filters="sRGB">
<feFlood flood-opacity="0" result="BackgroundImageFix"/>
<feColorMatrix in="SourceAlpha" type="matrix" values="0 0 0 0 0 0 0 0 0 0 0 0 0 0 0 0 0 0 127 0" result="hardAlpha"/>
<feOffset/>
<feGaussianBlur stdDeviation="1"/>
<feComposite in2="hardAlpha" operator="out"/>
<feColorMatrix type="matrix" values="0 0 0 0 0.716667 0 0 0 0 0.348658 0 0 0 0 0.00895834 0 0 0 0.4 0"/>
<feBlend mode="normal" in2="BackgroundImageFix" result="effect1_dropShadow_25186_349856"/>
<feBlend mode="normal" in="SourceGraphic" in2="effect1_dropShadow_25186_349856" result="shape"/>
</filter>
<linearGradient id="paint0_linear_25186_349856" x1="4.57143" y1="6.57143" x2="31.7143" y2="37.1429" gradientUnits="userSpaceOnUse">
<stop stop-color="#F8C16E"/>
<stop offset="1" stop-color="#F78541"/>
</linearGradient>
<linearGradient id="paint1_linear_25186_349856" x1="8.57143" y1="1.14286" x2="28" y2="40" gradientUnits="userSpaceOnUse">
<stop stop-color="#FDDA81"/>
<stop offset="1" stop-color="#F56D20"/>
</linearGradient>
<linearGradient id="paint2_linear_25186_349856" x1="10.8567" y1="8.57101" x2="30.8567" y2="31.1424" gradientUnits="userSpaceOnUse">
<stop stop-color="#FFCC7E"/>
<stop offset="1" stop-color="#FFA756"/>
</linearGradient>
<linearGradient id="paint3_linear_25186_349856" x1="19.9996" y1="5.71387" x2="19.9996" y2="34.2853" gradientUnits="userSpaceOnUse">
<stop stop-color="#FFE8AD"/>
<stop offset="1" stop-color="#FFCE84" stop-opacity="0"/>
</linearGradient>
<linearGradient id="paint4_linear_25186_349856" x1="33.7137" y1="36.5714" x2="18.3903" y2="9.27013" gradientUnits="userSpaceOnUse">
<stop stop-color="#FFA756"/>
<stop offset="1" stop-color="#FF8E3D"/>
</linearGradient>
<linearGradient id="paint5_linear_25186_349856" x1="16" y1="11.5792" x2="22.6599" y2="29.5059" gradientUnits="userSpaceOnUse">
<stop stop-color="white"/>
<stop offset="1" stop-color="#FFDABF"/>
</linearGradient>
</defs>
</svg>