<svg width="86" height="21" viewBox="0 0 86 21" fill="none" xmlns="http://www.w3.org/2000/svg">
<path fill-rule="evenodd" clip-rule="evenodd" d="M74.6448 9.81494C74.9308 9.9092 75.2172 10.0036 75.4917 10.125C76.2684 10.4682 76.6856 11.07 76.682 11.9372C76.6787 12.8254 76.3255 13.5162 75.5231 13.9349C75.0094 14.203 74.4527 14.2887 73.8812 14.2731C72.8046 14.2439 71.8393 13.8987 70.9985 13.2152C70.9683 13.1906 70.9396 13.1641 70.9058 13.1328C70.8898 13.118 70.8726 13.1022 70.8535 13.0849L71.7897 11.9508C71.8437 11.9893 71.8962 12.0277 71.9481 12.0656L71.9483 12.0657C72.0566 12.1449 72.1621 12.2221 72.2717 12.2931C72.9394 12.7257 73.6572 12.954 74.457 12.7918C74.8769 12.7068 75.0926 12.4439 75.0854 12.0778C75.0804 11.8309 74.9569 11.6508 74.7461 11.5611C74.4015 11.4142 74.0451 11.2933 73.6893 11.174C73.5329 11.1217 73.3743 11.0754 73.2157 11.0291C72.9642 10.9558 72.7128 10.8824 72.4709 10.7852C71.5222 10.4034 71.129 9.81397 71.1386 8.85369C71.1479 7.92099 71.6338 7.17237 72.5069 6.84109C73.6483 6.40814 74.7563 6.58291 75.8207 7.12619C75.9677 7.20135 76.1053 7.29494 76.2498 7.39326L76.2499 7.39328L76.2499 7.39331C76.3188 7.44015 76.3892 7.48806 76.463 7.53555L75.6635 8.70517C75.5116 8.6419 75.3622 8.57743 75.2141 8.51352C74.8698 8.36496 74.5326 8.21944 74.1868 8.09909C73.871 7.98911 73.5373 7.97814 73.2132 8.09411C72.9486 8.18881 72.755 8.38153 72.7342 8.68191C72.7137 8.97929 72.8485 9.20358 73.1161 9.30559C73.3793 9.40604 73.6481 9.49133 73.9171 9.57665L73.9171 9.57667C74.0752 9.62682 74.2333 9.67698 74.3903 9.73024C74.4748 9.7589 74.5597 9.78687 74.6445 9.81484L74.6448 9.81494ZM66.584 6.74803H66.5827H65.8215L62.6465 14.208H64.3515L66.5833 8.71843L67.5585 11.1517H66.2388L65.6735 12.5808H68.1314L68.8152 14.208H70.5202L67.3451 6.74803H66.584ZM51.9234 6.8921C51.2891 6.78345 50.6462 6.77846 50.0017 6.79076H48.5078V7.74838H48.5114V14.2424H50.1206V14.2404C50.6911 14.2441 51.2607 14.2361 51.8243 14.1716C53.63 13.9649 54.9408 12.4238 54.9666 10.6319C54.9943 8.72361 53.775 7.20976 51.9234 6.8921ZM30.281 6.79643L28.5268 10.1109H28.5264L26.7723 6.79643C26.7723 6.79643 24.8895 6.80072 24.8732 6.78632L27.7111 11.8171V14.2614H29.3342V11.8308L32.1801 6.78632C32.1638 6.80072 30.281 6.79643 30.281 6.79643ZM51.3673 12.7779C52.063 12.728 52.4654 12.3954 52.4654 12.3954C53.6252 11.5717 53.281 9.98209 53.281 9.98209C52.987 8.45229 51.659 8.24429 51.3742 8.23299L50.1387 8.23233V12.7819H51.3673V12.7779ZM60.448 11.6009L60.443 11.6036C60.4395 11.6055 60.437 11.6091 60.4313 11.6176C60.4279 11.6227 60.4232 11.6296 60.4165 11.6388C60.7846 12.1834 62.1863 14.2007 62.1863 14.2007H60.3052L58.736 11.8953H58.2937V10.4735H59.0895C59.2167 10.4712 59.3452 10.4675 59.4684 10.4423C60.0522 10.323 60.3756 9.91032 60.3686 9.35741C60.3614 8.79221 60.0446 8.35094 59.4493 8.30044C59.2947 8.28748 59.1377 8.27984 58.9788 8.27552H57.6845V14.1831H57.6739V14.2116H56.043V6.82081H56.0539H57.0063L57.2325 6.81982C57.9417 6.81667 58.6512 6.81352 59.3604 6.82313C59.9544 6.83111 60.5266 6.96336 61.0287 7.3066C61.7363 7.79039 61.9953 8.49648 61.9867 9.32385C61.9762 10.3742 61.5087 11.1308 60.5398 11.5554C60.5085 11.5693 60.4781 11.5852 60.4481 11.6009L60.448 11.6009ZM79.5865 14.2557H77.9229V6.80805H79.5865V14.2557ZM82.5748 12.7781V6.80805H80.9111V12.7781V14.2537V14.2557H82.5748V14.2537H85.9999V12.7781H82.5748ZM39.0569 10.383H36.7658V11.6264H37.5362V12.4568C37.0215 12.9888 35.7949 12.9087 35.7949 12.9087C34.1712 12.7555 33.8234 11.341 33.8234 11.341C33.4369 9.72614 34.1567 8.87684 34.7077 8.51964C35.1134 8.25648 35.5194 8.18404 35.5194 8.18404C36.9548 7.99464 37.7956 8.91339 37.7956 8.91339L38.7959 7.68131C38.7737 7.66484 38.7556 7.64935 38.7384 7.63467L38.7384 7.63465L38.7225 7.62116C37.6961 6.75492 36.4963 6.51236 35.2155 6.73232C33.3199 7.05829 32.0989 8.52629 32.0355 10.4648C31.9843 12.0291 32.7979 13.4343 34.1815 14.0102C35.2931 14.4727 36.3526 14.5019 37.3552 14.162C37.3552 14.162 37.3674 14.1584 37.374 14.1557C37.7407 14.0298 38.1002 13.8543 38.4513 13.6324C38.9108 13.3626 39.0565 13.1905 39.0565 13.1905C39.0565 13.1905 39.0582 11.7205 39.0582 11.2028C39.0582 11.0243 39.0575 10.7211 39.0571 10.5387L39.0569 10.39V10.383ZM44.9016 10.383H47.1926V10.39C47.1926 10.4042 47.1927 10.4603 47.1929 10.5387C47.1933 10.7211 47.1939 11.0243 47.1939 11.2028C47.1939 11.7205 47.1923 13.1905 47.1923 13.1905C47.1923 13.1905 47.0466 13.3626 46.5871 13.6324C46.2359 13.8543 45.8765 14.0298 45.5098 14.1557C45.5032 14.1584 45.4909 14.162 45.4909 14.162C44.4883 14.5019 43.4289 14.4727 42.3172 14.0102C40.9337 13.4343 40.12 12.0291 40.1712 10.4648C40.2347 8.52629 41.4557 7.05829 43.3512 6.73232C44.632 6.51236 45.8319 6.75492 46.8583 7.62116C46.8635 7.62558 46.8688 7.63008 46.8742 7.63465C46.8913 7.64934 46.9095 7.66484 46.9316 7.68131L45.9313 8.91339C45.9313 8.91339 45.0906 7.99464 43.6552 8.18404C43.6552 8.18404 43.2492 8.25648 42.8435 8.51964C42.2924 8.87684 41.5726 9.72614 41.9591 11.341C41.9591 11.341 42.307 12.7555 43.9307 12.9087C43.9307 12.9087 45.1573 12.9888 45.672 12.4568V11.6264H44.9016V10.383Z" fill="white"/>
<path fill-rule="evenodd" clip-rule="evenodd" d="M19.9465 5.96204C19.9465 5.96204 20.4649 7.04526 20.708 8.36407C20.708 8.36407 18.633 8.9532 17.194 10.3421C18.2845 10.7209 19.5197 10.9861 20.9194 11.0954C20.9194 11.0954 20.8425 12.6142 20.4586 13.5669C20.4586 13.5669 18.0797 13.5659 15.3014 12.2796C13.7623 11.5669 11.9972 10.4016 10.4597 8.75117C8.92224 10.4016 7.15748 11.5669 5.61803 12.2796C2.83974 13.5659 0.460846 13.5669 0.460846 13.5669C0.0769728 12.6142 0 11.0954 0 11.0954C1.38948 10.9867 2.61675 10.7249 3.70163 10.3508C2.26227 8.96449 0.191937 8.37703 0.191937 8.37703C0.435078 7.05822 0.953736 5.97467 0.953736 5.97467C3.43834 6.64753 5.25001 8.21322 6.176 9.17416C7.12577 8.57839 7.91895 7.88659 8.58033 7.15558C8.41217 7.12999 4.85325 6.56014 2.35477 3.74576C2.35477 3.74576 3.0842 2.79312 4.14629 1.98203C4.14629 1.98203 5.65833 3.71984 7.63154 4.34352C7.17664 3.22043 6.84629 1.98436 6.68871 0.630661C6.68871 0.630661 7.76369 0.103006 9.06925 0C9.06925 0 9.26482 2.05845 10.4597 4.40632C11.6549 2.05845 11.8505 0 11.8505 0C13.1557 0.103006 14.2307 0.630661 14.2307 0.630661C14.0738 1.97904 13.7454 3.21079 13.2932 4.33056C15.2469 3.69625 16.7388 1.98203 16.7388 1.98203C17.8012 2.79312 18.5306 3.74576 18.5306 3.74576C16.1197 6.46145 12.7213 7.08746 12.3348 7.15093C12.9926 7.87861 13.7805 8.56742 14.7236 9.16153C15.6496 8.20059 17.4613 6.6349 19.9465 5.96204ZM10.4347 14.8873L13.0247 11.5111C13.878 12.1288 15.2258 12.7295 15.2258 12.7295L11.6626 17.3937L11.6646 17.3977H11.66V20.9162C10.5338 21.1049 9.19289 20.9162 9.19289 20.9162C9.21734 20.9408 9.2104 17.6595 9.20974 17.3977L5.64355 12.7295C5.64355 12.7295 6.99174 12.1288 7.84471 11.5111L10.4347 14.8873Z" fill="white"/>
</svg>
