<svg width="79" height="16" viewBox="0 0 79 16" fill="none" xmlns="http://www.w3.org/2000/svg">
<path d="M23.8584 5.76925L18.8572 5.91629C18.771 5.91629 18.6847 5.95305 18.6272 6.01737C18.5698 6.0817 18.541 6.16441 18.541 6.24712L18.6368 7.55204C18.6464 7.71746 18.7901 7.84611 18.9626 7.83692L20.3231 7.81854L20.6296 13.9572C20.6296 14.0399 20.6775 14.1134 20.735 14.1686C20.8021 14.2237 20.8883 14.2513 20.9746 14.2421L22.5075 14.141C22.68 14.1318 22.8141 13.994 22.8045 13.8286L22.6225 7.78179L23.9734 7.76341C24.0596 7.76341 24.1458 7.72665 24.2033 7.66232C24.2608 7.59799 24.2991 7.51529 24.2895 7.43258L24.1937 6.03575C24.1746 5.88872 24.0309 5.76006 23.8584 5.76925ZM29.6836 6.16441L28.1698 6.0817C27.9973 6.0817 27.8536 6.21036 27.844 6.37577L27.8249 9.57377L27.1638 9.71161L27.0009 6.0817C26.9913 5.91629 26.8572 5.78763 26.6848 5.78763L25.1901 5.82439C25.1039 5.82439 25.0177 5.86115 24.9602 5.91629C24.9027 5.97143 24.8644 6.05413 24.8644 6.13684L25.1327 14.2145C25.1327 14.3799 25.2764 14.5178 25.4488 14.5178L26.9434 14.481C27.0297 14.481 27.1159 14.4535 27.1734 14.3891C27.2309 14.334 27.2692 14.2513 27.2692 14.1686L27.1063 11.4668L27.6907 11.5036L27.7961 13.9205C27.7961 14.0032 27.8249 14.0859 27.8824 14.141C27.9398 14.2053 28.0261 14.2329 28.1123 14.2329L29.674 14.334C29.6836 14.334 29.6836 14.334 29.6931 14.334C29.856 14.3248 29.9902 14.1962 29.9997 14.0399L30.0093 6.46767C30.0093 6.38496 29.9806 6.30225 29.9231 6.24712C29.856 6.20117 29.7698 6.16441 29.6836 6.16441ZM35.298 5.48438L33.9183 5.58546C33.7554 5.59465 33.6213 5.7325 33.6213 5.88872C33.6213 5.88872 33.6309 10.943 33.6117 11.6047C33.6021 11.9998 33.65 12.6523 33.2093 12.6707C32.9027 12.6799 32.7973 12.248 32.7878 11.6414C32.7782 10.9522 32.8453 6.25631 32.8453 6.20117C32.8453 6.04494 32.7207 5.9071 32.5578 5.88872L30.9961 5.74169C30.9003 5.7325 30.8141 5.76006 30.747 5.82439C30.68 5.87953 30.6417 5.97143 30.6417 6.05413C30.6417 6.05413 30.6991 11.9723 30.7087 12.1836C30.7279 12.9556 31.3411 14.334 33.0848 14.2789C35.0297 14.2329 35.3842 13.121 35.5087 11.816C35.5566 11.2738 35.6524 6.33901 35.6524 5.79682C35.6524 5.71412 35.6141 5.63141 35.5471 5.56708C35.4704 5.51194 35.3842 5.48438 35.298 5.48438ZM41.3531 5.80601L39.9255 5.87034C39.8393 5.87034 39.7626 5.91629 39.7052 5.97143C39.6477 6.03575 39.6189 6.11846 39.6285 6.20117L39.868 9.99649L38.3734 6.0817C38.3255 5.95305 38.1818 5.87034 38.0381 5.87953L36.601 6.03575C36.4381 6.05413 36.3135 6.18279 36.3135 6.3482L36.553 13.8286C36.553 13.994 36.6872 14.1226 36.8501 14.1318L38.2872 14.2329C38.3734 14.2421 38.4692 14.2053 38.5363 14.1502C38.6034 14.0859 38.6321 14.0032 38.6321 13.9113L38.4117 10.6398L39.6477 14.0399C39.6956 14.1502 39.801 14.2329 39.9351 14.2421H41.4489C41.4585 14.2421 41.468 14.2421 41.4872 14.2421C41.5638 14.2421 41.6405 14.2053 41.698 14.1594C41.765 14.1043 41.8034 14.0216 41.7938 13.9297L41.698 6.12765C41.698 6.04494 41.6597 5.96224 41.5926 5.9071C41.5255 5.83358 41.4393 5.80601 41.3531 5.80601ZM43.2597 5.64979C43.1638 5.64979 43.0585 5.64979 42.9531 5.64979C42.7806 5.64979 42.6465 5.78763 42.6369 5.94386L42.3782 13.7183C42.3686 13.8837 42.5028 14.0216 42.6752 14.0307C42.6848 14.0307 42.8668 14.0491 43.1543 14.0491C44.1603 14.0491 46.5651 13.8745 47.1112 12.2571C47.5711 10.9063 47.4944 9.06834 47.3794 8.19532C47.1591 6.48605 45.8082 5.64979 43.2597 5.64979ZM45.4058 10.7684C45.2333 12.0825 44.8022 12.1652 44.3327 12.3215L44.5531 7.44177C44.716 7.47853 44.9267 7.47853 45.1854 7.81854C45.5782 8.3056 45.5686 9.49106 45.4058 10.7684ZM52.0741 12.6707L50.1962 12.8085L50.11 11.1268L51.3268 11.0625C51.48 11.0533 51.6142 10.9338 51.6238 10.7868L51.7387 9.74837C51.7483 9.65647 51.7196 9.56458 51.6525 9.50025C51.5854 9.43592 51.4992 9.39916 51.4034 9.40835L50.0812 9.47268V7.64394H52.0262C52.2082 7.64394 52.3519 7.5061 52.3519 7.33149C52.3519 7.30392 52.3519 7.28554 52.3423 7.26717L52.2369 6.1736C52.2178 6.00818 52.0836 5.88872 51.9112 5.89791L48.3471 5.98062C48.1746 5.98981 48.0309 6.12765 48.0309 6.29306L48.1459 13.9756C48.1459 14.141 48.2896 14.2789 48.4717 14.2789H52.0836C52.2561 14.2789 52.3998 14.1502 52.3998 13.9756L52.4286 12.9739C52.4286 12.8912 52.3902 12.7993 52.3327 12.7442C52.2561 12.6891 52.1699 12.6615 52.0741 12.6707ZM57.9088 8.15856C57.8322 7.08337 57.4393 5.64979 54.9962 5.64979C54.4693 5.64979 53.8561 5.71412 53.1663 5.84277C53.013 5.87034 52.9076 5.99899 52.9076 6.14603L53.0226 13.6632C53.0226 13.8194 53.1567 13.9572 53.3196 13.9664L54.4405 14.0491C54.5268 14.0583 54.6226 14.0307 54.6801 13.9664C54.7471 13.9113 54.7854 13.8286 54.7854 13.7367V11.3106L55.3603 11.283L55.9926 13.8745C56.0214 14.0216 56.1555 14.1226 56.3088 14.1226C56.3184 14.1226 56.328 14.1226 56.3375 14.1226L57.4585 14.0399C57.5447 14.0307 57.631 13.994 57.6884 13.9205C57.7459 13.8561 57.7651 13.7642 57.7459 13.6815L56.9507 10.796C57.5064 10.4008 58.0238 9.65647 57.9088 8.15856ZM55.8872 9.22456C55.5998 9.51863 55.1016 9.61052 54.7854 9.63809V7.4142C54.8908 7.39582 54.9962 7.38663 55.092 7.38663C55.5232 7.38663 56.0501 7.57042 56.1172 8.45263C56.1459 8.78346 56.0693 9.03158 55.8872 9.22456ZM62.1915 10.3641C62.6513 9.77594 63.8298 8.41587 63.7052 6.03575C63.7052 5.95305 63.6669 5.87953 63.5998 5.82439C63.5328 5.76925 63.4466 5.74169 63.3699 5.75087L62.0382 5.82439C61.8657 5.83358 61.722 5.98062 61.7412 6.15522C61.7891 6.82606 61.3196 8.26884 60.6585 9.17861L60.7543 6.24712C60.7543 6.16441 60.7256 6.0817 60.6585 6.02656C60.601 5.97143 60.5148 5.93467 60.4286 5.93467L58.704 5.96224C58.6178 5.96224 58.5411 5.99899 58.4741 6.05413C58.4166 6.10927 58.3879 6.19198 58.3879 6.27468L58.5603 14.0583C58.5603 14.1502 58.5986 14.2329 58.6753 14.2881C58.7423 14.3432 58.8382 14.3708 58.9244 14.3616L60.2657 14.187C60.419 14.1686 60.5435 14.0399 60.5435 13.8837L60.5627 11.6047C60.831 11.7609 61.6358 12.8728 61.7699 13.9664C61.7891 14.1226 61.9232 14.2421 62.0861 14.2421L63.504 14.2329C63.5136 14.2329 63.5136 14.2329 63.5232 14.2329C63.5998 14.2237 63.6765 14.1962 63.734 14.141C63.7915 14.0859 63.8298 14.0032 63.8202 13.9205C63.8106 13.6356 63.3316 11.2463 62.1915 10.3641ZM66.1963 5.57627L64.6633 5.76925C64.5004 5.78763 64.3855 5.91629 64.3855 6.07251L64.3759 13.6999C64.3759 13.7826 64.4142 13.8653 64.4813 13.9297C64.5484 13.9848 64.625 14.0124 64.7112 14.0124H64.7208L66.3879 13.8929C66.5603 13.8837 66.6849 13.7459 66.6849 13.5805L66.5603 5.88872C66.5603 5.79682 66.522 5.71412 66.4454 5.65898C66.3783 5.59465 66.2921 5.56708 66.1963 5.57627ZM69.4538 5.80601C68.9939 5.83358 67.4705 6.10008 67.346 8.24127C67.3268 8.51696 67.3172 8.77427 67.2981 9.02239C67.2023 10.4835 67.1448 11.5403 67.3364 12.4593C67.4514 13.0015 67.9304 14.2789 69.8178 14.2789C69.9328 14.2789 70.0574 14.2697 70.1819 14.2605C70.9675 14.1962 71.552 13.9572 71.916 13.5437C72.4334 12.9556 72.3663 12.1928 72.328 11.7885L72.3184 11.7058C72.3089 11.5403 72.1556 11.4209 71.9831 11.4209L70.7951 11.4668C70.7089 11.4668 70.6226 11.5128 70.5651 11.5771C70.5076 11.6506 70.4789 11.7333 70.4981 11.8252C70.5268 11.9815 70.5556 12.4685 70.3448 12.7074C70.2969 12.7718 70.1915 12.8545 69.9711 12.8545H69.952C69.7795 12.8545 69.655 12.8085 69.5496 12.6982C69.3771 12.5236 69.1759 12.0917 69.2334 11.0441C69.243 10.8052 69.2621 10.5203 69.2717 10.217C69.3005 9.43592 69.3388 8.54453 69.4154 7.98396V7.96558C69.4729 7.54285 69.5591 7.35906 69.9328 7.34068C70.2011 7.33149 70.3831 7.37744 70.4789 7.49691C70.6035 7.64394 70.5843 7.88287 70.5747 7.96558C70.5556 8.05747 70.5843 8.14937 70.6418 8.22289C70.6993 8.29641 70.7951 8.33316 70.8909 8.33316L72.328 8.35154C72.5005 8.35154 72.6442 8.22289 72.6538 8.05747C72.6538 8.02072 72.6825 7.18446 72.0214 6.53199C71.4466 5.98062 70.5843 5.7325 69.4538 5.80601ZM78.9867 13.5988C78.9676 13.5069 78.3448 11.1728 77.0897 10.07C77.7029 9.50944 78.9676 8.40668 78.546 5.9071C78.5173 5.74168 78.364 5.63141 78.1915 5.64979L76.534 5.82439C76.4478 5.83358 76.3711 5.87953 76.3137 5.94386C76.2658 6.00818 76.237 6.10008 76.2562 6.18279C76.2562 6.21036 76.6011 8.02072 75.3172 9.10509L75.346 6.01737C75.346 5.93467 75.3077 5.84277 75.2406 5.78763C75.1735 5.7325 75.0777 5.70493 74.9915 5.71412L73.334 5.88872C73.1711 5.9071 73.0466 6.04494 73.0466 6.20117L73.2382 13.9297C73.2382 14.0124 73.2765 14.0951 73.3436 14.1502C73.4011 14.2053 73.4873 14.2329 73.5639 14.2237C73.5735 14.2237 73.5831 14.2237 73.5927 14.2237L74.9915 14.0767C75.1448 14.0583 75.2693 13.9388 75.2789 13.7826L75.3939 11.3657C75.8346 11.8068 76.5819 12.928 76.6969 13.8745C76.7161 14.0399 76.8789 14.1594 77.0514 14.141L78.7089 13.9664C78.8047 13.9572 78.8813 13.9113 78.9388 13.8378C78.9963 13.7734 79.0155 13.6907 78.9867 13.5988Z" fill="white"/>
<path d="M14.7509 10.9444L15.2667 7.51587L13.1202 3.21429L11.6559 3.69048L9.75072 1.7381L6.37291 0L5.63246 2.59524L5.10831 1.23016L2.5292 3.64286L1.08156 6.05556L1.01501 8.55556L0 8.09524L0.698857 12.1032L2.27129 14.6825L5.9902 15.8968L9.03522 16L14.285 14.1667L15.7992 10.6032L14.7509 10.9444ZM12.4713 9.04762L9.49281 9.12698L9.38465 12.3254L9.22658 14.2143L6.63082 14.1905V12.373L6.41451 9.20635L3.30293 9.33333L3.19478 6.2619L7.77894 6.23809L12.5212 6.11111L12.6044 6.52381L12.4713 9.04762Z" fill="white"/>
</svg>