<svg width="68" height="19" viewBox="0 0 68 19" fill="none" xmlns="http://www.w3.org/2000/svg">
<path d="M16.2214 15.6923C15.9261 15.6923 15.6968 15.8091 15.5345 16.0417C15.3722 16.2742 15.2911 16.5999 15.2911 17.0156C15.2911 17.8816 15.6015 18.3151 16.2214 18.3151C16.4819 18.3151 16.797 18.2468 17.1669 18.1102V18.8011C16.8631 18.9337 16.5234 19 16.1478 19C15.609 19 15.1967 18.8288 14.9108 18.4854C14.6249 18.1429 14.4824 17.65 14.4824 17.0086C14.4824 16.6048 14.5522 16.2505 14.6928 15.9466C14.8334 15.6428 15.0344 15.4102 15.2977 15.2479C15.56 15.0856 15.8685 15.0044 16.2214 15.0044C16.5809 15.0044 16.9423 15.0955 17.3056 15.2786L17.0518 15.9486C16.9131 15.8793 16.7734 15.819 16.6338 15.7675C16.4941 15.718 16.3564 15.6923 16.2214 15.6923Z" fill="white"/>
<path d="M27.0322 18.9468V15.061H27.8182V18.9468H27.0322Z" fill="white"/>
<path d="M39.2665 18.9468H38.4805V15.7469H37.4746V15.061H40.2723V15.7469H39.2665V18.9468Z" fill="white"/>
<path d="M51.0772 16.6629L51.85 15.0625H52.6964L51.4678 17.4359V18.9483H50.6875V17.4627L49.458 15.0625H50.3091L51.0772 16.6629Z" fill="white"/>
<path d="M52.8781 4.73938C52.5893 4.73938 52.3016 4.73938 52.0128 4.73938C51.8543 4.73938 51.8364 4.73938 51.8194 4.56815C51.7826 4.20788 51.7014 3.8585 51.5552 3.52594C51.2117 2.74899 50.6239 2.32339 49.8237 2.2264C49.3755 2.17196 48.9292 2.20165 48.4942 2.35309C47.8715 2.56984 47.4384 3.00137 47.1694 3.62195C47.0421 3.91492 46.9741 4.2257 46.9326 4.54242C46.9279 4.57607 46.926 4.60972 46.9241 4.64239C46.9203 4.70177 46.892 4.73443 46.8345 4.73641C46.7948 4.7374 46.7543 4.73839 46.7146 4.73839C46.1542 4.73839 45.5927 4.73839 45.0322 4.73839C44.9926 4.73839 44.952 4.73839 44.9124 4.73641C44.8558 4.73443 44.8266 4.70177 44.8181 4.64437C44.8001 4.52856 44.785 4.41177 44.7596 4.29696C44.6727 3.90106 44.5359 3.52594 44.3151 3.18943C43.9113 2.57182 43.347 2.25114 42.6375 2.21155C42.3327 2.19473 42.0289 2.20858 41.7307 2.28479C40.9654 2.47977 40.4446 2.97168 40.1455 3.72785C40.0407 3.99212 39.97 4.26727 39.9426 4.5543C39.9247 4.73641 39.9218 4.73839 39.7331 4.73839C39.2047 4.73938 38.6754 4.73839 38.147 4.73839C38.0828 4.73839 38.0187 4.73938 37.9545 4.7374C37.8516 4.73344 37.8309 4.71266 37.8413 4.59686C37.8516 4.47116 37.8686 4.34645 37.8894 4.22273C38.0243 3.41113 38.281 2.64704 38.7178 1.95817C39.3633 0.939718 40.2672 0.32805 41.4099 0.100407C41.7647 0.0301347 42.1232 -0.0025272 42.4846 0.000442058C43.3744 0.00836009 44.1642 0.307266 44.8577 0.890231C45.1785 1.15944 45.4559 1.4732 45.7088 1.81169C45.7531 1.87108 45.7965 1.93145 45.8418 1.98985C45.872 2.02944 45.9079 2.0334 45.9409 1.99282C45.9928 1.92947 46.0438 1.86415 46.0938 1.79882C46.357 1.45835 46.6486 1.14757 46.9798 0.879343C47.6818 0.311225 48.4772 0.0222166 49.3623 0.00143181C49.919 -0.011435 50.4644 0.0618068 50.9947 0.245901C51.8836 0.553714 52.5629 1.14163 53.064 1.96015C53.4678 2.61933 53.7103 3.34482 53.8462 4.11188C53.8726 4.26034 53.8896 4.41078 53.9056 4.56024C53.9245 4.73542 53.9226 4.73641 53.7443 4.73839C53.5763 4.73938 53.4074 4.73839 53.2395 4.73839C53.1187 4.73938 52.9979 4.73938 52.8781 4.73938Z" fill="white"/>
<path d="M11.7278 5.33912C12.0325 5.33912 12.3364 5.33715 12.6412 5.34011C12.7516 5.3411 12.7695 5.35991 12.7714 5.46977C12.7742 5.64595 12.7657 5.82311 12.7723 5.99929C12.7874 6.40014 12.8421 6.76635 12.9818 7.12761C13.2337 7.77887 13.6319 8.30047 14.2235 8.64688C14.5859 8.85869 14.9774 8.98043 15.387 9.022C15.8748 9.07148 16.3626 9.05961 16.8438 8.93589C17.9705 8.64589 18.6847 7.90259 19.031 6.75348C19.1009 6.5199 19.1197 6.31601 19.1292 6.03393C19.1216 5.84093 19.1273 5.64694 19.1301 5.45394C19.1311 5.36684 19.1518 5.34209 19.2245 5.34209C19.8576 5.34011 20.4907 5.34011 21.1229 5.34209C21.1965 5.34209 21.2154 5.36585 21.2173 5.45493C21.2343 6.10321 21.2201 6.74754 21.0531 7.38C20.8653 8.09163 20.586 8.75575 20.1548 9.34367C19.5849 10.1206 18.8452 10.6432 17.9601 10.9451C17.3845 11.142 16.7919 11.2321 16.188 11.2489C15.5606 11.2668 14.9397 11.2173 14.3292 11.0559C12.8006 10.6511 11.741 9.67424 11.1163 8.16586C10.8889 7.61556 10.738 7.03952 10.6861 6.44171C10.6568 6.10816 10.6766 5.76967 10.6747 5.43414C10.6747 5.37278 10.7097 5.34209 10.7644 5.3411C10.9087 5.33912 11.0531 5.33912 11.1965 5.33813C11.3749 5.33813 11.5513 5.33912 11.7278 5.33912Z" fill="white"/>
<path d="M19.1563 4.72917C19.1139 4.66385 19.1092 4.59655 19.096 4.53122C18.8978 3.52068 18.3392 2.82885 17.4211 2.45868C17.0522 2.30923 16.6672 2.23499 16.2718 2.21619C15.7491 2.19144 15.2311 2.2152 14.7244 2.3696C14.061 2.57151 13.5213 2.95059 13.1514 3.57314C12.9627 3.89085 12.8457 4.23727 12.7853 4.60545C12.7646 4.73115 12.758 4.73907 12.6542 4.73907C12.0371 4.74105 11.4209 4.74105 10.8038 4.73907C10.6925 4.73907 10.6708 4.71334 10.6878 4.60545C10.7114 4.44808 10.7368 4.29071 10.7699 4.13433C10.9312 3.37024 11.2181 2.66356 11.6596 2.0311C12.2786 1.14527 13.1033 0.567259 14.1035 0.258456C14.5904 0.108013 15.0886 0.032792 15.5944 0.00903793C16.2784 -0.0236239 16.955 0.0298227 17.6202 0.208968C18.5015 0.446509 19.2705 0.890908 19.8942 1.59462C20.416 2.18353 20.7699 2.87437 21.002 3.63649C21.0775 3.88491 21.136 4.1373 21.1784 4.39464C21.1907 4.46887 21.1992 4.54409 21.2039 4.61931C21.2096 4.71334 21.1888 4.73808 21.0954 4.73907C20.8387 4.74204 20.583 4.74105 20.3264 4.74105C19.9895 4.74105 19.6536 4.74204 19.3168 4.74105C19.262 4.73907 19.2064 4.73313 19.1563 4.72917Z" fill="white"/>
<path d="M2.2495 0.0532532C2.82603 0.0532532 3.40255 0.062161 3.97908 0.0502839C4.36783 0.0423659 4.74526 0.0997716 5.11703 0.206665C5.79546 0.401646 6.42671 0.700552 6.98436 1.15782C7.78263 1.81303 8.26291 2.67016 8.44879 3.71039C8.49031 3.941 8.50635 4.17657 8.53183 4.41015C8.53843 4.46854 8.53937 4.52793 8.53937 4.58632C8.53937 4.72093 8.52711 4.7338 8.40727 4.73875C8.38368 4.73974 8.35915 4.73875 8.33556 4.73875C7.77508 4.73875 7.2146 4.73875 6.65411 4.73875C6.61448 4.73875 6.57391 4.73875 6.53428 4.73677C6.47766 4.73479 6.4437 4.7041 6.4437 4.64373C6.44464 4.47448 6.42294 4.30919 6.39369 4.14291C6.32764 3.76582 6.19553 3.41743 5.97568 3.10862C5.63694 2.63156 5.16798 2.38214 4.62448 2.26733C4.43577 2.22774 4.24517 2.20696 4.05173 2.20696C3.46672 2.20696 2.88264 2.20696 2.29763 2.20597C2.258 2.20597 2.21742 2.20696 2.17779 2.21092C2.13061 2.21487 2.10797 2.24655 2.10608 2.29406C2.10325 2.36136 2.10231 2.42866 2.10231 2.49596C2.10231 3.16801 2.10136 3.84005 2.10231 4.51209C2.10231 4.73974 2.10136 4.73875 1.89378 4.73776C1.33329 4.73677 0.77281 4.73776 0.212327 4.73677C0.164204 4.73677 0.116082 4.73479 0.0689033 4.72984C0.033991 4.72588 0.0104017 4.70213 0.00757095 4.66452C0.00285308 4.6081 2.23568e-05 4.54871 2.23568e-05 4.49032C2.23568e-05 3.09576 2.23568e-05 1.70119 2.23568e-05 0.30663C2.23568e-05 0.0334581 -0.00752623 0.0532532 0.254788 0.0532532C0.920008 0.0532532 1.58428 0.0532532 2.2495 0.0532532Z" fill="white"/>
<path d="M26.8235 11.2504C25.846 11.2504 24.8685 11.2504 23.8909 11.2504C23.8192 11.2504 23.7465 11.2494 23.6748 11.2474C23.6295 11.2464 23.5993 11.2207 23.5965 11.1722C23.5927 11.1138 23.5918 11.0544 23.5918 10.996C23.5918 9.20554 23.5918 7.41607 23.5927 5.6256C23.5927 5.31383 23.5663 5.33956 23.8626 5.33857C24.3835 5.33758 24.9043 5.33857 25.4252 5.33857C25.4808 5.33857 25.5374 5.33956 25.5931 5.34253C25.6375 5.34451 25.6686 5.36827 25.6714 5.41775C25.6752 5.50188 25.6771 5.58601 25.6771 5.66915C25.6771 6.69454 25.6771 7.71992 25.678 8.74531C25.678 9.06599 25.6478 9.04619 25.9611 9.04619C27.251 9.04619 28.5408 9.04619 29.8307 9.04619C30.1279 9.04619 30.1034 9.02343 30.1034 9.33124C30.1044 9.87758 30.1034 10.4239 30.1034 10.9703C30.1034 11.0376 30.1025 11.1049 30.0987 11.1712C30.0959 11.2197 30.0666 11.2454 30.0204 11.2474C29.9487 11.2494 29.876 11.2504 29.8043 11.2504C28.8107 11.2504 27.8171 11.2504 26.8235 11.2504Z" fill="white"/>
<path d="M64.5034 0.000989754C65.5696 0.000989754 66.6349 0.000989754 67.7012 0.000989754C67.7729 0.000989754 67.8455 0.00197951 67.9173 0.00494877C67.9625 0.00692828 67.9918 0.0336516 67.9956 0.0811598C68.0003 0.131637 68.0003 0.182115 68.0003 0.232592C68.0003 0.812588 68.0003 1.39258 68.0003 1.97258C68.0003 2.02306 68.0012 2.07353 67.9965 2.12401C67.9918 2.17053 67.9654 2.20121 67.9191 2.20319C67.855 2.20616 67.7908 2.20715 67.7266 2.20715C67.086 2.20715 66.4443 2.20715 65.8036 2.20814C65.5923 2.20814 65.5913 2.21012 65.5904 2.42886C65.5894 3.09298 65.5904 3.75711 65.5904 4.42123C65.5904 4.48853 65.5913 4.55584 65.5885 4.62314C65.5847 4.71915 65.5687 4.73696 65.4706 4.73795C65.0695 4.73993 64.6695 4.73993 64.2684 4.73894C64.0439 4.73894 63.8193 4.73795 63.5957 4.73696C63.5381 4.73696 63.5051 4.70727 63.5013 4.64788C63.4975 4.57266 63.4957 4.49645 63.4957 4.42123C63.4957 3.79868 63.4957 3.17711 63.4957 2.55455C63.4957 2.49616 63.4966 2.43677 63.4947 2.37838C63.49 2.21903 63.4834 2.20814 63.3277 2.20814C62.671 2.20616 62.0133 2.20913 61.3566 2.20616C60.9584 2.20418 61.0122 2.25862 61.0103 1.84787C61.0075 1.32627 61.0093 0.80566 61.0103 0.284059C61.0103 0.216756 61.0103 0.149453 61.0141 0.0821496C61.0169 0.0346414 61.0443 0.00593852 61.0905 0.00395902C61.1622 0.000989754 61.2349 0 61.3066 0C62.3709 0.000989754 63.4372 0.000989754 64.5034 0.000989754Z" fill="white"/>
<path d="M56.5006 8.30032C56.5006 7.38479 56.5006 6.46927 56.5006 5.55276C56.5006 5.33303 56.4836 5.33105 56.71 5.33105C57.2705 5.33105 57.831 5.33105 58.3924 5.33105C58.432 5.33105 58.4726 5.33105 58.5123 5.33402C58.5698 5.33897 58.5962 5.3746 58.5972 5.43399C58.5981 5.48447 58.6 5.53494 58.6 5.58542C58.6 7.39964 58.6009 9.21485 58.6009 11.0291C58.6009 11.037 58.6009 11.0459 58.6009 11.0538C58.5972 11.2468 58.5972 11.2488 58.4122 11.2488C57.8357 11.2498 57.2592 11.2488 56.6827 11.2488C56.6591 11.2488 56.6345 11.2488 56.611 11.2478C56.5213 11.2419 56.5072 11.226 56.5034 11.1221C56.5015 11.0548 56.5025 10.9875 56.5025 10.9202C56.4996 10.0482 56.4996 9.17427 56.5006 8.30032C56.4996 8.30032 56.5006 8.30032 56.5006 8.30032Z" fill="white"/>
<path d="M51.8337 8.28269C51.8337 7.37509 51.8328 6.46848 51.8337 5.56087C51.8337 5.32531 51.8148 5.33125 52.0602 5.33224C52.6046 5.33224 53.1491 5.33224 53.6935 5.33224C53.7492 5.33224 53.8058 5.33422 53.8614 5.33917C53.8964 5.34214 53.9209 5.36787 53.9237 5.4035C53.9294 5.47872 53.9313 5.55394 53.9313 5.63016C53.9322 7.06629 53.9322 8.50341 53.9322 9.93954C53.9322 10.3008 53.9322 10.6621 53.9322 11.0233C53.9322 11.0649 53.9332 11.1075 53.9303 11.149C53.9247 11.2262 53.9039 11.245 53.8218 11.25C53.7897 11.252 53.7577 11.251 53.7256 11.251C53.1651 11.251 52.6046 11.251 52.0441 11.251C51.996 11.251 51.9479 11.249 51.9007 11.245C51.8649 11.2421 51.8413 11.2183 51.8394 11.1807C51.8356 11.1055 51.8337 11.0303 51.8337 10.954C51.8328 10.0633 51.8328 9.17248 51.8337 8.28269Z" fill="white"/>
<path d="M46.9227 8.30032C46.9227 9.19901 46.9227 10.0977 46.9227 10.9964C46.9227 11.2597 46.9359 11.2508 46.6944 11.2508C46.1414 11.2508 45.5895 11.2508 45.0365 11.2508C44.9884 11.2508 44.9403 11.2498 44.8931 11.2448C44.8582 11.2409 44.8346 11.2171 44.8308 11.1805C44.8261 11.131 44.8242 11.0805 44.8242 11.0301C44.8242 9.21584 44.8242 7.40063 44.8252 5.58641C44.8252 5.33501 44.8082 5.33105 45.0554 5.33105C45.6083 5.33204 46.1603 5.33105 46.7132 5.33204C46.7614 5.33204 46.8095 5.33303 46.8567 5.33798C46.8925 5.34095 46.9161 5.3657 46.918 5.40232C46.9218 5.47754 46.9227 5.55375 46.9227 5.62897C46.9227 6.51876 46.9227 7.40954 46.9227 8.30032Z" fill="white"/>
<path d="M32.8408 8.30145C32.8408 7.41958 32.8408 6.53671 32.8408 5.65484C32.8408 5.61327 32.8408 5.57072 32.8418 5.52915C32.8455 5.33713 32.8455 5.33416 33.0305 5.33317C33.607 5.33119 34.1835 5.33218 34.761 5.33317C34.7931 5.33317 34.8252 5.33416 34.8572 5.33713C34.9148 5.34208 34.9403 5.37771 34.9412 5.4371C34.9412 5.47867 34.9431 5.52123 34.9431 5.5628C34.9431 7.38592 34.944 9.20905 34.944 11.0322C34.944 11.0569 34.945 11.0827 34.944 11.1074C34.9393 11.2351 34.928 11.2499 34.8016 11.2499C34.193 11.2519 33.5844 11.2509 32.9758 11.2509C32.9682 11.2509 32.9597 11.2509 32.9522 11.2499C32.8635 11.244 32.8474 11.2272 32.8446 11.1242C32.8418 11.0569 32.8437 10.9896 32.8437 10.9223C32.8408 10.0494 32.8408 9.1754 32.8408 8.30145Z" fill="white"/>
<path d="M2.08451 11.136C2.0345 11.1746 1.97694 11.1676 1.92127 11.1676C1.3438 11.1676 0.767277 11.1676 0.18981 11.1676C0.157728 11.1676 0.125646 11.1676 0.0935649 11.1647C0.0397811 11.1607 0.0029817 11.135 0.00203812 11.0726C0.00203812 11.0142 0.000150972 10.9558 0.000150972 10.8964C0.000150972 9.15645 0.000150972 7.41646 0.000150972 5.67648C0.000150972 5.60126 -0.000792603 5.52505 0.00203812 5.44983C0.00581242 5.3558 0.0237403 5.33897 0.119985 5.33303C0.159615 5.33105 0.200189 5.33105 0.239819 5.33105C0.776713 5.33105 1.31361 5.33105 1.8505 5.33105C1.90617 5.33105 1.96279 5.33303 2.01846 5.33699C2.06375 5.33996 2.093 5.36471 2.09489 5.41518C2.09772 5.48249 2.09866 5.54979 2.09866 5.61709C2.09866 7.38281 2.09961 9.14754 2.09866 10.9133C2.10149 10.9875 2.11282 11.0637 2.08451 11.136Z" fill="white"/>
<path d="M8.54369 8.33311C8.54369 9.19815 8.54369 10.0622 8.54369 10.9273C8.54369 10.9856 8.54463 11.045 8.54275 11.1034C8.53897 11.2321 8.52765 11.246 8.40121 11.2469C7.79261 11.2489 7.18494 11.2479 6.57634 11.2469C6.55275 11.2469 6.52821 11.244 6.50463 11.24C6.46783 11.2341 6.44895 11.2074 6.44707 11.1717C6.44329 11.1133 6.44141 11.0549 6.44141 10.9955C6.44141 9.22389 6.44141 7.45223 6.44141 5.68057C6.44141 5.66374 6.44141 5.64692 6.44141 5.63009C6.44424 5.41136 6.44424 5.40938 6.65465 5.40938C7.21514 5.40839 7.77562 5.40938 8.33516 5.40938C8.36724 5.40938 8.39932 5.40839 8.43141 5.41037C8.51821 5.41531 8.53614 5.43511 8.54086 5.53705C8.54369 5.61228 8.54275 5.68849 8.54275 5.76371C8.54369 6.61984 8.54369 7.47697 8.54369 8.33311Z" fill="white"/>
<path d="M37.8316 8.29718C37.8316 7.41432 37.8316 6.53245 37.8316 5.64959C37.8316 5.57437 37.8335 5.49816 37.8364 5.42294C37.8382 5.37543 37.8628 5.34574 37.909 5.34178C37.9486 5.33881 37.9892 5.33683 38.0288 5.33683C38.5893 5.33683 39.1508 5.33683 39.7113 5.33683C39.7433 5.33683 39.7754 5.33584 39.8075 5.33881C39.8877 5.34376 39.9085 5.36256 39.9132 5.44075C39.917 5.49915 39.917 5.55853 39.917 5.61693C39.917 7.41531 39.9179 9.21469 39.9179 11.0131C39.9179 11.0635 39.9179 11.114 39.9141 11.1645C39.9103 11.211 39.8858 11.2417 39.8386 11.2447C39.8066 11.2467 39.7745 11.2486 39.7424 11.2486C39.1659 11.2486 38.5884 11.2486 38.0119 11.2486C37.9958 11.2486 37.9798 11.2486 37.9637 11.2486C37.8486 11.2437 37.8364 11.2328 37.8316 11.1219C37.8288 11.0546 37.8307 10.9873 37.8307 10.92C37.8307 10.0451 37.8307 9.17114 37.8316 8.29718C37.8307 8.29718 37.8307 8.29718 37.8316 8.29718Z" fill="white"/>
<path d="M65.5884 8.32192C65.5884 9.2127 65.5884 10.1035 65.5884 10.9952C65.5884 11.2615 65.5998 11.2486 65.3601 11.2486C64.8156 11.2486 64.2703 11.2486 63.7258 11.2486C63.6777 11.2486 63.6296 11.2466 63.5815 11.2447C63.5343 11.2417 63.5088 11.211 63.506 11.1645C63.5022 11.1061 63.5022 11.0467 63.5022 10.9883C63.5022 9.20676 63.5012 7.42421 63.5031 5.64266C63.5031 5.3002 63.472 5.3388 63.8041 5.33781C64.3089 5.33583 64.8138 5.33682 65.3186 5.33781C65.3827 5.33781 65.4469 5.3388 65.5111 5.34276C65.5573 5.34573 65.5818 5.37641 65.5837 5.42392C65.5866 5.49914 65.5884 5.57535 65.5884 5.65058C65.5884 6.54036 65.5884 7.43114 65.5884 8.32192Z" fill="white"/>
<path d="M58.5967 2.3786C58.5967 3.05955 58.5967 3.7405 58.5967 4.42145C58.5967 4.47985 58.5986 4.53923 58.5958 4.59763C58.5911 4.72234 58.5778 4.73916 58.4524 4.73916C57.8437 4.74015 57.2342 4.74015 56.6256 4.73916C56.5171 4.73916 56.502 4.72036 56.4973 4.60752C56.4954 4.55705 56.4963 4.50657 56.4963 4.45609C56.4963 3.06945 56.4963 1.6828 56.4963 0.296157C56.4963 0.237762 56.4954 0.178377 56.4982 0.119981C56.5029 0.0229854 56.518 0.00912884 56.6162 0.00319032C56.6237 0.00319032 56.6322 0.00220056 56.6398 0.00220056C57.2484 0.00220056 57.8579 0.00121081 58.4665 0.00319032C58.5778 0.00319032 58.5911 0.0200161 58.5958 0.134828C58.5986 0.193223 58.5967 0.252608 58.5967 0.311004C58.5967 0.999872 58.5967 1.68973 58.5967 2.3786Z" fill="white"/>
<path d="M32.8408 2.3724C32.8408 1.6578 32.8418 0.943196 32.8408 0.228594C32.8408 0.000950749 32.8418 0.00293027 33.0503 0.00293027C33.6117 0.00293027 34.1722 0.00293027 34.7336 0.00293027C34.7818 0.00293027 34.8299 0.00490977 34.8771 0.0108483C34.912 0.0148073 34.9346 0.0395512 34.9374 0.0771618C34.9412 0.135557 34.9431 0.194942 34.9431 0.253338C34.9431 1.66572 34.9431 3.07809 34.9431 4.49047C34.9431 4.74781 34.9525 4.74187 34.7091 4.74088C34.1637 4.73989 33.6193 4.74088 33.0739 4.73989C33.0182 4.73989 32.9616 4.73692 32.9059 4.73296C32.8691 4.72999 32.8484 4.70228 32.8465 4.66665C32.8427 4.59935 32.8408 4.53204 32.8408 4.46573C32.8408 3.76795 32.8408 3.07018 32.8408 2.3724Z" fill="white"/>
<path d="M25.6767 2.36991C25.6767 3.08451 25.6776 3.79812 25.6767 4.51273C25.6767 4.73641 25.6748 4.73839 25.47 4.73938C24.9095 4.74037 24.3491 4.73938 23.7876 4.73938C23.748 4.73938 23.7074 4.7374 23.6678 4.73443C23.6197 4.73146 23.597 4.69781 23.5951 4.65129C23.5914 4.58399 23.5923 4.51669 23.5923 4.44938C23.5923 3.06274 23.5923 1.67708 23.5923 0.290438C23.5923 -0.0252937 23.5678 0.00142964 23.8593 0.000439891C24.3877 -0.000549863 24.9171 0.000439891 25.4455 0.000439891C25.4936 0.000439891 25.5417 0.00142964 25.5899 0.00340915C25.6493 0.00538866 25.6738 0.0429993 25.6748 0.100405C25.6767 0.167708 25.6767 0.235011 25.6767 0.302315C25.6767 0.992173 25.6767 1.68104 25.6767 2.36991Z" fill="white"/>
</svg>