<svg width="78" height="21" viewBox="0 0 78 21" fill="none" xmlns="http://www.w3.org/2000/svg">
<path fill-rule="evenodd" clip-rule="evenodd" d="M72.8879 4.77169C72.8403 3.75369 72.5221 2.79927 71.931 2.00862C70.9773 0.732373 69.2096 0 67.4383 0H48.9341C46.0783 0 43.16 1.90117 41.7908 4.50014H42.0013C42.0013 4.50026 42.0012 4.50037 42.0012 4.50049H5.72469C3.9044 4.50049 2.10353 5.91665 1.62644 7.72621L0.118334 12.6667C-0.145515 13.6663 0.036559 14.6682 0.617571 15.4137C1.17509 16.127 2.04841 16.5009 3.01752 16.5009H38.3483C38.4237 17.4305 38.7324 18.2989 39.277 19.0276C40.215 20.2818 41.749 21.0009 43.488 21.0009H60.8973L62.0353 20.9859C64.9722 20.9859 68.1799 19.0184 69.5701 16.3369L69.5636 16.3496H69.7375H71.8262C73.678 16.3496 75.963 14.9043 76.4475 13.1062L77.8808 8.51156C78.1483 7.51873 77.9649 6.52678 77.3756 5.78823C76.8107 5.08102 75.9239 4.67444 74.9418 4.67444H72.8826C72.8847 4.70678 72.8865 4.73919 72.8879 4.77169ZM59.5387 14.816H63.6926C63.7258 14.816 63.7551 14.7948 63.7649 14.7639L66.4334 6.2849C66.4482 6.23634 66.4118 6.18778 66.3606 6.18778H62.2395C62.2062 6.18778 62.177 6.20897 62.1671 6.23987L59.4663 14.7193C59.451 14.7675 59.4874 14.816 59.5387 14.816ZM63.6464 1.91022H67.7068C70.2044 1.91022 71.6418 3.74137 70.8584 6.19542L68.2488 14.602C67.4636 17.0539 64.7093 19.0753 62.2135 19.0753H58.1517C55.6528 19.0753 54.3075 17.0667 55.0923 14.6144L57.7351 6.17379C58.5194 3.72018 61.1478 1.91022 63.6464 1.91022ZM47.6861 6.19157H56.1512C56.1844 6.19157 56.2141 6.16994 56.224 6.13903L57.5656 2.0132C57.5809 1.96508 57.5445 1.91608 57.4928 1.91608H49.0196C46.593 1.91608 44.0275 3.69779 43.2652 6.08209L40.4907 14.7523C39.7275 17.1352 41.0898 19.0873 43.5174 19.0873H47.9301C50.3586 19.0873 52.7492 17.1352 53.5124 14.7523L55.3534 8.86855C55.3687 8.82043 55.3318 8.77187 55.2806 8.77187H49.0848C49.0515 8.77187 49.0219 8.79306 49.012 8.82396L47.9153 12.1636C47.8996 12.2121 47.9364 12.2607 47.9877 12.2607H49.7684C49.8197 12.2607 49.8565 12.3097 49.8408 12.3578L49.1005 14.7487C49.0911 14.7792 49.0614 14.8008 49.0282 14.8008H44.9916C44.9403 14.8008 44.9039 14.7518 44.9192 14.7033L47.6133 6.24366C47.6232 6.21276 47.6528 6.19157 47.6861 6.19157ZM73.8592 1.12806C74.1014 0.890561 74.3927 0.77181 74.7334 0.77181C75.0732 0.77181 75.364 0.890561 75.6058 1.12806C75.8476 1.36601 75.9685 1.65207 75.9685 1.98669C75.9685 2.32176 75.848 2.60782 75.6067 2.84488C75.3658 3.0815 75.0745 3.19981 74.7334 3.19981C74.3913 3.19981 74.0996 3.08194 73.8583 2.84576C73.6169 2.60914 73.4965 2.32308 73.4965 1.98669C73.4965 1.65207 73.6174 1.36601 73.8592 1.12806ZM73.992 3.24584C74.2212 3.37519 74.4697 3.43964 74.7372 3.43964C75.0033 3.43964 75.2514 3.37475 75.481 3.24496C75.7103 3.11473 75.8909 2.93771 76.0235 2.71345C76.1561 2.48963 76.2222 2.24683 76.2222 1.98505C76.2222 1.72503 76.1557 1.48311 76.0226 1.25797C75.8891 1.03327 75.708 0.855805 75.4788 0.725134C75.2491 0.594463 75.0024 0.528687 74.7372 0.528687C74.4711 0.528687 74.2234 0.594022 73.9938 0.72381C73.7641 0.854039 73.583 1.03106 73.4504 1.2562C73.3169 1.4809 73.2504 1.72415 73.2504 1.98505C73.2504 2.24683 73.3164 2.48963 73.4495 2.71477C73.5816 2.93903 73.7623 3.11605 73.992 3.24584ZM74.4018 1.40885H74.6967C74.8477 1.40885 74.9529 1.42607 75.0126 1.46095C75.0724 1.49582 75.1021 1.5563 75.1021 1.64238C75.1021 1.72494 75.0711 1.78541 75.0095 1.82294C74.9479 1.8609 74.8504 1.87989 74.7164 1.87989H74.4018V1.40885ZM74.4044 2.09751H74.5577C74.6566 2.09751 74.7348 2.12356 74.7941 2.17565C74.853 2.22774 74.933 2.34208 75.0337 2.51866L75.1735 2.76367H75.4881L75.2953 2.45862C75.2144 2.33104 75.147 2.23922 75.0939 2.18316C75.0409 2.12753 74.9843 2.08692 74.924 2.06264C75.0575 2.05249 75.1667 2.00613 75.2521 1.92358C75.3375 1.84147 75.3798 1.73994 75.3798 1.6203C75.3798 1.5404 75.3555 1.46491 75.3074 1.39428C75.2584 1.32364 75.1942 1.27243 75.1137 1.24242C75.0328 1.2124 74.8948 1.19739 74.6993 1.19739H74.1469V2.76367H74.4044V2.09751ZM12.4414 7.06624L10.2499 14.005H15.5031C15.5364 14.005 15.5661 13.9838 15.5764 13.9525L16.6466 10.6067C16.6623 10.5577 16.6254 10.5087 16.5733 10.5087H14.9544C14.9211 10.5087 14.8914 10.5299 14.8815 10.5608L14.3503 12.1959C14.3404 12.2273 14.3103 12.2485 14.277 12.2485H12.7196C12.668 12.2485 12.6311 12.1995 12.6459 12.1514L14.2078 7.11083C14.2226 7.06183 14.1858 7.01327 14.1341 7.01327H12.5151C12.4814 7.01327 12.4518 7.0349 12.4414 7.06624ZM26.4217 13.9973C26.4554 13.9973 26.4851 13.9757 26.4949 13.9444L27.0073 12.299C27.0172 12.269 27.0451 12.2487 27.0774 12.2478C28.0375 12.2196 29.0218 11.4435 29.3229 10.5037L30.385 7.12034C30.4003 7.07178 30.3634 7.0219 30.3117 7.0219H28.7225C28.6887 7.0219 28.6591 7.04309 28.6492 7.07443C28.531 7.44481 27.6842 10.1439 27.5691 10.5231H25.7767C25.8868 10.1328 26.6815 7.58343 26.8302 7.11858C26.8455 7.07046 26.8087 7.0219 26.7574 7.0219H25.1457C25.1124 7.0219 25.0832 7.04309 25.0729 7.07399L24.0054 10.5037C23.7087 11.4281 24.227 12.2081 25.1385 12.2602C25.1888 12.2628 25.2239 12.3092 25.209 12.3564L24.7241 13.9029C24.7088 13.951 24.7452 14 24.7969 14L26.4217 13.9973ZM32.8265 10.491C33.1334 9.53348 34.1802 8.7499 35.156 8.7499C35.156 8.7499 37.0199 8.7499 37.0698 8.75255C37.9817 8.8042 38.4815 9.56704 38.1853 10.491L37.1134 13.9551C37.1035 13.986 37.0743 14.0072 37.041 14.0072H35.3902C35.3389 14.0072 35.3021 13.9591 35.3174 13.9109C35.3841 13.7032 35.555 13.1511 35.7446 12.5383L35.7446 12.5381L35.7453 12.536C35.9795 11.7793 36.2421 10.9305 36.3727 10.5237C35.8945 10.5263 34.9618 10.5268 34.6189 10.5268C34.4862 10.9287 34.0746 12.2334 33.7936 13.1245L33.7917 13.1306C33.6662 13.5284 33.567 13.8429 33.5308 13.956C33.5204 13.9869 33.4917 14.0072 33.4584 14.0072H31.8435C31.7923 14.0072 31.7558 13.9586 31.7711 13.9101L32.8265 10.491ZM21.2262 10.5289H19.445L19.9942 8.74851H21.7866L21.2262 10.5289ZM22.3517 7.02765H20.517C19.5412 7.02765 18.494 7.81256 18.187 8.76963L16.5892 13.8967C16.5735 13.9444 16.6099 13.9938 16.6615 13.9938H18.2765C18.3093 13.9938 18.3385 13.9731 18.3484 13.9422L19.0086 11.9079C19.0194 11.8775 19.0482 11.8572 19.0805 11.8572H20.7256C20.7759 11.8572 20.8123 11.9044 20.7988 11.9521L20.1768 13.8971C20.1619 13.9452 20.1983 13.9938 20.2496 13.9938L21.8753 13.9951C21.9085 13.9951 21.9377 13.9744 21.9476 13.943L23.567 8.76963C23.874 7.81256 23.3275 7.02809 22.3517 7.02765ZM6.91428 10.5308H8.69549L9.25596 8.74995H7.46352L6.91428 10.5308ZM6.26263 7.02765H9.80032C10.7752 7.02765 11.3222 7.81212 11.0161 8.76919L10.4592 10.5094C10.1531 11.4669 9.10455 12.2501 8.12923 12.2501H6.4132C6.37949 12.2501 6.34982 12.2713 6.33994 12.3026L5.81632 13.9408C5.80643 13.9717 5.77676 13.9934 5.74306 13.9934H4.13085C4.07961 13.9934 4.04275 13.9444 4.05849 13.8962L6.19027 7.08019C6.20015 7.0484 6.22982 7.02765 6.26263 7.02765ZM32.8344 9.06796H30.7979L31.4257 7.03197H33.4753L32.8344 9.06796Z" fill="white"/>
</svg>