<svg width="60" height="27" viewBox="0 0 60 27" fill="none" xmlns="http://www.w3.org/2000/svg">
<path fill-rule="evenodd" clip-rule="evenodd" d="M3.98921 18.5306C3.98921 18.5306 0.093148 20.0227 0.0439453 21.6712C0.156089 22.2117 0.496664 22.7787 1.1599 23.3729C3.6614 25.6139 7.99865 27.7952 13.6371 26.7145C19.2756 25.6337 21.4908 21.7629 21.4908 21.7629C18.8948 24.0596 15.4326 24.999 12.2855 25.1973C9.13848 25.3956 7.07067 24.6421 6.2335 23.4423C5.81655 22.8447 5.58975 22.2373 5.5892 21.5711C5.58869 20.8997 5.81803 20.1685 6.3142 19.3273C7.3027 17.6516 10.5607 15.5198 10.5607 15.5198L3.98921 18.5306Z" fill="white"/>
<path fill-rule="evenodd" clip-rule="evenodd" d="M3.72746 1.80283C2.7313 2.35689 1.87134 2.98945 1.15984 3.6268C0.496695 4.22087 0.156179 4.78776 0.0439453 5.32822C0.094661 6.97628 3.98915 8.46784 3.98915 8.46784L10.5541 11.4757C10.3998 11.3741 7.27813 9.30651 6.31414 7.67235C5.81797 6.83123 5.58863 6.1 5.58914 5.42856C5.58969 4.76235 5.81648 4.15496 6.23344 3.5574C7.07061 2.35763 9.13842 1.60403 12.2854 1.80235C15.4325 2.00067 18.8947 2.94013 21.4907 5.23681C21.4907 5.23681 19.2755 1.36606 13.637 0.285241C13.2654 0.214027 12.8996 0.156973 12.5394 0.113156C12.0939 0.0589876 11.6573 0.0250764 11.2299 0.00969741C11.0491 0.00318289 10.8701 0 10.6926 0C7.94548 -2.97467e-05 5.59674 0.76321 3.72746 1.80283Z" fill="white"/>
<path fill-rule="evenodd" clip-rule="evenodd" d="M0.0428786 5.32617C0.013708 5.46664 -3.00609e-05 5.60528 1.99062e-07 5.74221C0.000333059 7.06555 1.28762 8.22326 2.3692 9.22703C3.94832 10.6926 4.65898 12.1487 4.65994 13.4587C4.65994 13.4716 4.65988 13.4846 4.65976 13.4974C4.65988 13.5103 4.65994 13.5232 4.65994 13.5362C4.65898 14.8462 3.94832 16.3023 2.3692 17.7678C1.28771 18.7716 0.000484358 19.9292 1.99062e-07 21.2525C-6.03209e-05 21.3893 0.0136777 21.528 0.042818 21.6684C0.0920208 20.02 3.98808 18.5278 3.98808 18.5278L10.5595 15.517C10.5595 15.517 12.4256 14.5354 12.4256 13.5637C12.4256 13.5414 12.4247 13.5194 12.4234 13.4974C12.4247 13.4755 12.4256 13.4534 12.4256 13.4312C12.4256 12.4595 10.5595 11.4779 10.5595 11.4779C10.5595 11.4779 10.557 11.4762 10.553 11.4736L3.98808 8.46578C3.98808 8.46578 0.0935943 6.97423 0.0428786 5.32617Z" fill="white"/>
<path fill-rule="evenodd" clip-rule="evenodd" d="M45.1934 11.5918C45.441 11.4924 45.8554 11.4427 46.4366 11.4427C46.7196 11.4427 46.9622 11.49 47.1644 11.5843C47.3665 11.6787 47.5131 11.7868 47.6041 11.9085C47.6951 12.0303 47.7645 12.1693 47.8126 12.3258C47.8605 12.4823 47.8871 12.5991 47.8922 12.6761C47.8971 12.7532 47.8971 12.8189 47.8922 12.8735V15.5861C47.1341 15.6855 46.755 15.4545 46.755 14.8931V14.0733C46.76 13.3331 46.7247 12.8823 46.6489 12.7208C46.5731 12.5594 46.3355 12.4737 45.9363 12.4637C45.6886 12.4637 45.441 12.5084 45.1934 12.5978V14.8931C45.2035 15.1912 45.1087 15.3862 44.9091 15.4781C44.7094 15.5701 44.4251 15.6059 44.0563 15.5861V9.77344C44.1473 9.83805 44.2672 9.8766 44.4164 9.88894C44.5654 9.90138 44.6918 9.90757 44.7954 9.90757C44.899 9.90757 44.9912 9.96102 45.0721 10.0678C45.1529 10.1747 45.1934 10.3498 45.1934 10.5932V11.5918ZM23.7189 12.8768V15.5894C23.5419 15.5993 23.3903 15.598 23.2641 15.5857C23.1377 15.5733 23.0177 15.5447 22.904 15.5C22.7903 15.4553 22.7069 15.382 22.6538 15.2801C22.6007 15.1784 22.5767 15.0504 22.5818 14.8964V13.2867V13.2717V12.8991C22.506 12.5366 22.1622 12.3924 21.5508 12.4669C21.2324 12.5067 21.0478 12.5366 20.9974 12.5564C21.0125 12.6409 21.0201 12.7402 21.0201 12.8545V14.8964C21.0251 15.0504 20.9999 15.1784 20.9444 15.2801C20.8887 15.382 20.8053 15.4553 20.6942 15.5C20.5829 15.5447 20.4641 15.5733 20.3379 15.5857C20.2115 15.598 20.0599 15.5993 19.883 15.5894V11.9602C19.883 11.6373 20.4111 11.4634 21.4674 11.4385C22.9633 11.3988 23.7138 11.8782 23.7189 12.8768ZM16.0777 13.3737C16.1636 13.3141 16.3038 13.2744 16.4984 13.2545C16.6929 13.2347 16.8749 13.2235 17.0442 13.221C17.2135 13.2185 17.3638 13.1837 17.4953 13.1166C17.6267 13.0496 17.6898 12.9441 17.6848 12.7999C17.6848 12.6708 17.5812 12.564 17.374 12.4795C17.0859 12.3602 16.8055 12.3504 16.5326 12.4497C16.1535 12.5838 16.0019 12.8919 16.0777 13.3737ZM16.1163 14.1568C16.1163 14.3108 16.1946 14.4264 16.3513 14.5033C16.5079 14.5804 16.7063 14.6201 16.9464 14.6226C17.1864 14.6251 17.4214 14.6151 17.6514 14.5927C17.8813 14.5704 18.0987 14.5443 18.3033 14.5145C18.508 14.4847 18.6255 14.4698 18.6558 14.4698C18.676 14.902 18.5888 15.2075 18.3943 15.3864C18.1997 15.5653 17.8093 15.6547 17.2231 15.6547C16.4144 15.6547 15.8206 15.4933 15.4416 15.1703C15.0626 14.8474 14.873 14.2885 14.873 13.4936C14.873 13.0961 14.9248 12.7595 15.0284 12.4838C15.132 12.208 15.2836 11.9982 15.4833 11.8541C15.6829 11.71 15.9052 11.6081 16.1504 11.5485C16.3955 11.4889 16.6822 11.4591 17.0108 11.4591C17.6374 11.4591 18.0987 11.5895 18.3943 11.8504C18.69 12.1112 18.8378 12.5273 18.8378 13.0986C18.8378 13.3173 18.7948 13.4924 18.7089 13.624C18.6229 13.7557 18.5105 13.8438 18.3716 13.8885C18.2325 13.9332 18.0657 13.9656 17.8712 13.9854C17.6766 14.0053 17.4846 14.0115 17.2951 14.004C17.1056 13.9966 16.9009 14.0053 16.681 14.0301C16.4612 14.055 16.2729 14.0972 16.1163 14.1568ZM27.688 12.5106V13.5688C27.693 14.2246 27.693 14.5525 27.688 14.5525H27.6805C27.6399 14.5625 27.5958 14.5724 27.5478 14.5823C27.4997 14.5923 27.4151 14.6035 27.2938 14.6158C27.1725 14.6283 27.06 14.6307 26.9565 14.6233C26.8528 14.6158 26.7366 14.5935 26.6078 14.5562C26.4789 14.5189 26.3701 14.4631 26.2818 14.3885C26.1933 14.314 26.1188 14.2072 26.0582 14.0681C25.9975 13.929 25.9672 13.7651 25.9672 13.5762C25.9672 13.3776 25.9924 13.2049 26.043 13.0583C26.0935 12.9118 26.1592 12.7975 26.2401 12.7155C26.3209 12.6335 26.4169 12.5677 26.5282 12.518C26.6393 12.4684 26.7467 12.4386 26.8503 12.4286C26.9539 12.4187 27.0638 12.4174 27.1801 12.4249C27.2963 12.4323 27.3936 12.4435 27.472 12.4584C27.5503 12.4733 27.6223 12.4908 27.688 12.5106ZM27.9723 9.94777C27.8586 9.93284 27.7639 9.89816 27.688 9.84342V11.6543C27.5212 11.5351 27.2433 11.4754 26.8541 11.4754C26.652 11.4754 26.4573 11.4954 26.2704 11.5351C26.0834 11.5749 25.899 11.6444 25.717 11.7437C25.5351 11.8432 25.3771 11.9673 25.2432 12.1163C25.1093 12.2654 25.0018 12.458 24.9211 12.6939C24.8401 12.9299 24.7998 13.1969 24.7998 13.495C24.7998 14.2651 24.969 14.8153 25.3077 15.1456C25.6462 15.4761 26.2047 15.6413 26.983 15.6413C27.2306 15.6413 27.453 15.6288 27.6501 15.604C27.8472 15.5792 28.0038 15.5518 28.1201 15.522C28.2363 15.4922 28.3425 15.4512 28.4385 15.399C28.5345 15.3469 28.6003 15.3047 28.6356 15.2724C28.6709 15.2401 28.7101 15.1978 28.7531 15.1456C28.796 15.0935 28.8201 15.065 28.8251 15.0599V10.6632C28.8251 10.4645 28.8011 10.3129 28.7531 10.2086C28.705 10.1042 28.6381 10.0385 28.5523 10.0111C28.4663 9.98386 28.3766 9.97011 28.2831 9.97011C28.1896 9.97011 28.086 9.96268 27.9723 9.94777ZM31.0955 14.0069C31.0677 13.9052 31.0463 13.7673 31.0311 13.5933V13.5337C31.026 13.4344 31.0247 13.3524 31.0273 13.2878C31.0298 13.2233 31.0487 13.1326 31.0842 13.0158C31.1195 12.8991 31.1701 12.8047 31.2358 12.7326C31.3014 12.6607 31.405 12.5973 31.5466 12.5426C31.688 12.488 31.8599 12.4606 32.0621 12.4606C32.1732 12.4606 32.2755 12.4706 32.3691 12.4904C32.4626 12.5103 32.5422 12.5364 32.6079 12.5686C32.6735 12.601 32.733 12.642 32.786 12.6916C32.8391 12.7413 32.882 12.7898 32.9149 12.8369C32.9477 12.8842 32.9756 12.9401 32.9983 13.0046C33.0211 13.0692 33.0387 13.1251 33.0514 13.1723C33.0639 13.2196 33.0728 13.2755 33.0779 13.34C33.0829 13.4046 33.0855 13.453 33.0855 13.4853V13.6045V13.6828C33.0855 13.7424 33.0829 13.7971 33.0779 13.8467C33.0728 13.8964 33.0526 13.971 33.0173 14.0703C32.9818 14.1697 32.9339 14.2541 32.8732 14.3236C32.8126 14.3933 32.719 14.4554 32.5927 14.5099C32.4664 14.5647 32.3147 14.5919 32.1379 14.5919C31.9105 14.5919 31.7235 14.5696 31.5769 14.5248C31.4303 14.4801 31.3204 14.4082 31.2472 14.3087C31.1738 14.2094 31.1232 14.1088 31.0955 14.0069ZM29.8883 13.4052C29.8907 13.455 29.8946 13.4947 29.8996 13.5245C29.9148 13.7182 29.9337 13.8859 29.9565 14.0275C29.9792 14.1691 30.0134 14.317 30.0588 14.4709C30.1043 14.625 30.1624 14.7541 30.2332 14.8584C30.3039 14.9628 30.3962 15.0646 30.5099 15.164C30.6236 15.2634 30.7562 15.3417 30.9079 15.3987C31.0595 15.4559 31.2439 15.5019 31.4613 15.5366C31.6785 15.5714 31.9262 15.5887 32.2042 15.5887C32.472 15.5887 32.7133 15.5589 32.9282 15.4993C33.1429 15.4397 33.3173 15.3664 33.4512 15.2795C33.5851 15.1926 33.7014 15.0846 33.7999 14.9553C33.8985 14.8262 33.9705 14.7069 34.016 14.5976C34.0615 14.4884 34.0968 14.3641 34.1221 14.225C34.1474 14.086 34.1625 13.9841 34.1676 13.9194C34.1726 13.8549 34.1752 13.7829 34.1752 13.7033C34.1752 13.6934 34.1764 13.6426 34.179 13.5506C34.1815 13.4587 34.1815 13.3829 34.179 13.3233C34.1764 13.2637 34.1701 13.1755 34.1601 13.0587C34.1499 12.9421 34.1322 12.8402 34.107 12.7532C34.0816 12.6663 34.045 12.5632 33.997 12.4439C33.949 12.3247 33.8896 12.2216 33.8189 12.1347C33.7481 12.0478 33.6584 11.9595 33.5498 11.8701C33.441 11.7807 33.3173 11.7061 33.1783 11.6465C33.0393 11.5869 32.8738 11.5397 32.6818 11.5049C32.4897 11.4702 32.28 11.4528 32.0526 11.4528C31.7291 11.4528 31.441 11.4913 31.1884 11.5683C30.9356 11.6454 30.7347 11.741 30.5857 11.8552C30.4366 11.9696 30.3115 12.1061 30.2104 12.2651C30.1093 12.4241 30.0386 12.5695 29.9982 12.701C29.9577 12.8327 29.9287 12.9706 29.911 13.1146C29.8933 13.2588 29.8857 13.3557 29.8883 13.4052ZM38.0372 11.6098C38.0296 11.5155 38.0283 11.4633 38.0334 11.4533H37.8097H37.7226H37.4572H36.7067C36.5096 11.4533 36.3315 11.4782 36.1723 11.5278C36.0131 11.5775 35.8829 11.6396 35.7819 11.7141C35.6807 11.7886 35.5948 11.8756 35.5241 11.9749C35.4533 12.0744 35.4002 12.17 35.3649 12.2619C35.3295 12.3538 35.3043 12.4457 35.2891 12.5376C35.274 12.6296 35.2651 12.7015 35.2626 12.7537C35.26 12.8059 35.2588 12.8468 35.2588 12.8767V14.8738C35.2588 15.0577 35.2992 15.198 35.3801 15.2949C35.4609 15.3918 35.5531 15.4502 35.6568 15.47C35.7603 15.4899 35.8867 15.5185 36.0358 15.5557C36.1848 15.593 36.3049 15.6439 36.3959 15.7085V13.3238C36.3959 13.135 36.4111 12.986 36.4414 12.8767C36.4717 12.7674 36.5323 12.6829 36.6233 12.6233C36.7143 12.5637 36.8178 12.5264 36.9342 12.5115C37.0504 12.4966 37.2146 12.4891 37.4269 12.4891C37.5734 12.4891 37.6934 12.4593 37.787 12.3997C37.8804 12.3401 37.9424 12.2607 37.9727 12.1612C38.003 12.0619 38.0232 11.9688 38.0334 11.8818C38.0434 11.7949 38.0447 11.7042 38.0372 11.6098ZM40.0986 13.5105V14.5687C40.1794 14.5937 40.2666 14.6134 40.3602 14.6283C40.4536 14.6433 40.5711 14.6557 40.7127 14.6656C40.8541 14.6756 40.9856 14.6607 41.1069 14.6209C41.2282 14.5812 41.3444 14.524 41.4556 14.4495C41.5667 14.375 41.6552 14.2557 41.7209 14.0918C41.7865 13.9278 41.8195 13.7316 41.8195 13.5031C41.8195 13.3143 41.7878 13.1504 41.7247 13.0112C41.6615 12.8722 41.5883 12.7653 41.5049 12.6908C41.4215 12.6163 41.3116 12.5604 41.1751 12.5231C41.0386 12.4858 40.925 12.4635 40.834 12.456C40.743 12.4486 40.6293 12.4523 40.4928 12.4672C40.3564 12.4821 40.273 12.4922 40.2427 12.497C40.2124 12.502 40.1669 12.5119 40.1062 12.5268H40.0986C40.0936 12.5268 40.0936 12.8547 40.0986 13.5105ZM40.0957 17.2389C40.0047 17.1743 39.8846 17.1358 39.7356 17.1234C39.5864 17.1109 39.46 17.1048 39.3565 17.1048C39.2529 17.1048 39.1606 17.0513 39.0798 16.9445C38.9989 16.8376 38.9586 16.6625 38.9586 16.4192V12.0224C38.9635 12.0175 38.9876 11.9888 39.0306 11.9367C39.0734 11.8845 39.1127 11.8435 39.1481 11.8137C39.1834 11.7839 39.2491 11.7418 39.3452 11.687C39.4411 11.6324 39.5472 11.5901 39.6635 11.5603C39.7798 11.5305 39.9365 11.5033 40.1336 11.4784C40.3307 11.4535 40.553 11.4411 40.8007 11.4411C41.5789 11.4411 42.1374 11.6063 42.476 11.9367C42.8146 12.2671 42.9839 12.8173 42.9839 13.5873C42.9839 13.9599 42.9233 14.283 42.802 14.5561C42.6807 14.8294 42.5177 15.0394 42.313 15.1858C42.1084 15.3324 41.891 15.4392 41.6611 15.5063C41.4311 15.5733 41.1873 15.6069 40.9296 15.6069C40.5808 15.6069 40.3028 15.5722 40.0957 15.5025V17.2389ZM50.0287 11.6737C50.1095 11.7806 50.15 11.9558 50.15 12.1991V14.8968C50.1601 15.1949 50.0653 15.39 49.8657 15.4818C49.666 15.5738 49.3818 15.6097 49.0129 15.5899V11.3794C49.1039 11.444 49.2239 11.4826 49.373 11.4949C49.522 11.5074 49.6484 11.5135 49.752 11.5135C49.8556 11.5135 49.9478 11.567 50.0287 11.6737ZM49.16 11.0263C49.0437 10.9071 48.9857 10.7655 48.9857 10.6016C48.9857 10.4376 49.045 10.2973 49.1638 10.1805C49.2825 10.0638 49.4254 10.0054 49.5921 10.0054C49.7589 10.0054 49.9016 10.0638 50.0205 10.1805C50.1391 10.2973 50.1986 10.4376 50.1986 10.6016C50.1986 10.7655 50.1391 10.9059 50.0205 11.0226C49.9016 11.1394 49.7589 11.1977 49.5921 11.1977C49.4254 11.1977 49.2813 11.1407 49.16 11.0263ZM55.1087 15.5853V12.8727C55.1036 11.8741 54.3531 11.3947 52.8572 11.4344C51.8009 11.4593 51.2728 11.6332 51.2728 11.9561V15.5853C51.4497 15.5952 51.6013 15.5939 51.7277 15.5816C51.854 15.5692 51.9728 15.5406 52.084 15.4959C52.1951 15.4512 52.2785 15.3779 52.3342 15.276C52.3897 15.1742 52.4149 15.0463 52.4099 14.8922V12.8503C52.4099 12.7361 52.4024 12.6368 52.3872 12.5523C52.4377 12.5324 52.6222 12.5026 52.9406 12.4628C53.552 12.3883 53.8958 12.5324 53.9716 12.895V13.2676V13.2826V14.8922C53.9665 15.0463 53.9905 15.1742 54.0436 15.276C54.0967 15.3779 54.1801 15.4512 54.2938 15.4959C54.4075 15.5406 54.5275 15.5692 54.6539 15.5816C54.7801 15.5939 54.9318 15.5952 55.1087 15.5853ZM58.8966 13.6157C58.8764 13.6406 58.8473 13.6705 58.8094 13.7051C58.7715 13.74 58.6868 13.786 58.5555 13.843C58.424 13.9002 58.2876 13.9287 58.1461 13.9287C57.8985 13.9287 57.6975 13.9585 57.5434 14.0181C57.3893 14.0777 57.3122 14.1623 57.3122 14.2715C57.3122 14.4008 57.3678 14.4976 57.479 14.5621C57.5901 14.6268 57.8126 14.659 58.1461 14.659C58.2826 14.659 58.3874 14.6579 58.4607 14.6553C58.5339 14.6529 58.6022 14.6342 58.6654 14.5994C58.7285 14.5647 58.7727 14.5323 58.7981 14.5025C58.8233 14.4727 58.8447 14.4094 58.8625 14.3125C58.8802 14.2156 58.8902 14.1225 58.8928 14.033C58.8953 13.9436 58.8966 13.8046 58.8966 13.6157ZM56.4905 12.4923C56.4905 12.4774 56.4879 12.4576 56.4829 12.4327C56.4778 12.4079 56.4765 12.3594 56.4791 12.2874C56.4816 12.2154 56.4892 12.147 56.5018 12.0824C56.5144 12.0179 56.5398 11.9446 56.5777 11.8626C56.6156 11.7806 56.666 11.7111 56.7293 11.6539C56.7924 11.5968 56.8783 11.5484 56.987 11.5086C57.0956 11.4689 57.2232 11.449 57.3699 11.449H57.5821C57.7135 11.4441 57.8486 11.4441 57.9877 11.449C58.1266 11.454 58.2656 11.4602 58.4046 11.4676C58.5436 11.4751 58.6787 11.4962 58.8102 11.5309C58.9416 11.5658 59.0666 11.608 59.1855 11.6576C59.3041 11.7074 59.4129 11.7781 59.5114 11.87C59.61 11.962 59.6959 12.0675 59.7692 12.1867C59.8424 12.306 59.8992 12.4526 59.9397 12.6264C59.9801 12.8004 60.0004 12.9966 60.0004 13.2152V13.2673V13.3195V13.3791V13.4313V13.4909V13.5505V13.6176V13.6921V13.7666V13.856V13.9753V14.0349C60.0004 14.2386 59.9776 14.4237 59.9321 14.5901C59.8867 14.7566 59.8298 14.8919 59.7616 14.9962C59.6934 15.1006 59.6087 15.1925 59.5076 15.272C59.4065 15.3515 59.3117 15.4098 59.2233 15.4471C59.1349 15.4843 59.0325 15.5142 58.9163 15.5365C58.8 15.5589 58.7103 15.5726 58.6472 15.5775C58.584 15.5825 58.5095 15.5849 58.4236 15.5849H57.3774C57.3623 15.5849 57.3395 15.5838 57.3092 15.5812C57.2789 15.5788 57.222 15.5713 57.1386 15.5589C57.0552 15.5465 56.9757 15.5279 56.8998 15.503C56.824 15.4782 56.7394 15.4372 56.6459 15.38C56.5523 15.3229 56.4727 15.2559 56.4071 15.1788C56.3413 15.1018 56.2858 15.0012 56.2403 14.877C56.1948 14.7529 56.1721 14.6137 56.1721 14.4597C56.1721 14.1865 56.2074 13.9566 56.2782 13.7703C56.3489 13.584 56.4564 13.44 56.6004 13.3381C56.7444 13.2363 56.9048 13.1655 57.0818 13.1257C57.2586 13.086 57.4734 13.0661 57.7262 13.0661C58.1658 13.0661 58.4653 13.0376 58.6245 12.9804C58.7837 12.9233 58.8633 12.8351 58.8633 12.7159C58.8633 12.547 58.6977 12.4327 58.3667 12.3731C58.0356 12.3134 57.6845 12.3011 57.313 12.3358C56.9415 12.3706 56.6673 12.4228 56.4905 12.4923Z" fill="white"/>
</svg>