<svg width="96" height="17" viewBox="0 0 96 17" fill="none" xmlns="http://www.w3.org/2000/svg">
<path fill-rule="evenodd" clip-rule="evenodd" d="M27.2703 0H26.4819V17H27.2703V0ZM40.8413 0H40.0528V17H40.8413V0ZM54.4485 0H53.6772V17H54.4485V0ZM95.2496 0H94.461V17H95.2496V0ZM81.6936 0H80.905V17H81.6936V0ZM68.0453 0H67.2567V17H68.0453V0ZM0 0H13.5176V17H0V0ZM7.73923 12.003C7.50432 12.2548 7.15224 12.3892 6.68245 12.3892H5.12295V9.16408H6.83365C7.2694 9.16408 7.58799 9.29849 7.78942 9.60082C7.97411 9.88667 8.07482 10.3064 8.07482 10.844C8.07482 11.3645 7.9571 11.7342 7.73923 12.003ZM5.12295 4.5953H6.2464C6.74968 4.5953 7.11876 4.71265 7.37012 4.96437C7.62177 5.21673 7.73923 5.60286 7.73923 6.1237C7.73923 6.61075 7.62177 6.96365 7.38716 7.2157C7.15224 7.46746 6.79991 7.60184 6.34712 7.61891H5.12295V4.5953ZM10.0034 9.21468C9.71829 8.7444 9.28225 8.44208 8.67826 8.30767C9.16479 8.08888 9.51716 7.78682 9.76848 7.36659C10.0034 6.94688 10.1209 6.45957 10.1209 5.92225C10.1209 4.89763 9.78552 4.12473 9.13101 3.60389C8.47712 3.08334 7.57155 2.8313 6.39761 2.8313H3.07666V14.1699H6.8504C8.00759 14.1699 8.87969 13.8844 9.50012 13.3303C10.1209 12.7588 10.4394 11.9357 10.4394 10.8607C10.4394 10.2222 10.2885 9.68492 10.0034 9.21468ZM91.73 8.42431V12.5567C91.4617 13.0102 91.0424 13.4134 90.4549 13.7828C89.885 14.1525 89.1301 14.3204 88.2246 14.3204C87.0504 14.3204 86.0777 13.9678 85.3568 13.2454C84.6355 12.5231 84.2663 11.4982 84.2663 10.1713V6.8115C84.2663 5.50128 84.6183 4.47636 85.3063 3.75436C85.9939 3.03205 86.9163 2.67913 88.0568 2.67913C89.1974 2.67913 90.0857 2.96499 90.7068 3.5529C91.3104 4.1408 91.6291 4.9472 91.6796 6.00536L91.6628 6.05597H90.1702C90.153 5.33337 89.9519 4.79576 89.6167 4.42605C89.2643 4.05699 88.7613 3.87201 88.0737 3.87201C87.386 3.87201 86.8494 4.12403 86.4465 4.61107C86.0444 5.11485 85.843 5.83715 85.843 6.77827V10.1545C85.843 11.1289 86.0608 11.8679 86.4801 12.3717C86.9163 12.8758 87.4865 13.1275 88.2246 13.1275C88.7613 13.1275 89.1802 13.0437 89.4825 12.859C89.7845 12.674 90.0024 12.439 90.1534 12.1535V9.58335H88.2078V8.42431H91.73ZM76.6385 2.83883H78.1983V14.1607H76.6385L72.3449 5.74481H72.2948V14.1607H70.7181V2.83883H72.2948L76.5884 11.238L76.6385 11.2212V2.83883ZM63.4696 2.83883V4.40109H61.5925V12.5988H63.4696V14.1607H61.5925H60.033H58.1558V12.5988H60.033V4.40109H58.1558V2.83883H63.4696ZM42.5762 14.1607V2.83883H44.6054L47.255 12.0779H47.3055L49.9555 2.83883H51.9851V14.1607H50.4252V9.8101L50.559 5.45925L50.5089 5.44248L47.7921 14.1607H46.7524L44.0351 5.45925H44.0015L44.1357 9.8101V14.1607H42.5762ZM33.6622 5.10662L32.2369 10.0622H35.1215L33.7127 5.10662H33.6622ZM32.941 2.83883H34.4506L37.9055 14.1607H36.3122L35.4903 11.305H31.8845L31.0627 14.1607H29.4527L32.941 2.83883ZM22.3839 13.7745C22.9708 13.4216 23.3901 13.002 23.6418 12.5481V8.43255H20.1367V9.57481H22.0653V12.1452C21.9311 12.4305 21.6962 12.6658 21.4113 12.8505C21.1092 13.0352 20.6899 13.1361 20.1531 13.1361C19.4155 13.1361 18.8283 12.884 18.409 12.3635C17.9732 11.8594 17.7718 11.1203 17.7718 10.1627V6.7865C17.7718 5.82891 17.9562 5.10662 18.3588 4.61957C18.761 4.11549 19.2978 3.86347 19.9855 3.86347C20.6732 3.86347 21.1929 4.04816 21.5285 4.43459C21.8806 4.80429 22.0653 5.34191 22.0988 6.04713H23.5912L23.6083 5.99683C23.5578 4.95543 23.2392 4.13226 22.6187 3.54437C22.0147 2.97323 21.1259 2.6709 19.9688 2.6709C18.8283 2.6709 17.9227 3.04058 17.2351 3.7629C16.5473 4.46813 16.1953 5.49275 16.1953 6.80327V10.1627C16.1953 11.49 16.5641 12.5314 17.2852 13.2369C18.0064 13.9592 18.9625 14.3286 20.1531 14.3286C21.0587 14.3286 21.7969 14.1439 22.3839 13.7745Z" fill="white"/>
</svg>