<svg width="60" height="21" viewBox="0 0 60 21" fill="none" xmlns="http://www.w3.org/2000/svg">
<path fill-rule="evenodd" clip-rule="evenodd" d="M14.1902 14.724H20.212V16.9101H13.35H11.8096V4.78711H13.35H20.1419V7.10572H14.1902V9.62307H19.3717V12.0742H14.1902V14.724ZM0 16.9102V4.78719H2.4507L7.42211 12.3392V4.78719H10.0129V16.9102H7.63217L2.59074 9.22568V16.9102H0ZM24.0988 16.9103V7.10591H21.088V4.7873H29.6304V7.10591H26.6896V16.9103H24.0988Z" fill="white"/>
<path fill-rule="evenodd" clip-rule="evenodd" d="M40.4873 16.9145V4.7915H42.938L47.9094 12.3436V4.7915H50.5002V16.9145H48.1195L43.078 9.22999V16.9145H40.4873Z" fill="white"/>
<path fill-rule="evenodd" clip-rule="evenodd" d="M54.4689 16.9145V7.11011H51.458V4.7915H60.0004V7.11011H57.0596V16.9145H54.4689Z" fill="white"/>
<path fill-rule="evenodd" clip-rule="evenodd" d="M39.4058 14.5079H33.3841V11.7918H38.5656V9.40694H33.3841V6.82334H39.4058V4.57098H32.5439V0H32.0537V21H32.5439V16.694H39.4058V14.5079Z" fill="white"/>
</svg>
