<svg width="66" height="20" viewBox="0 0 66 20" fill="none" xmlns="http://www.w3.org/2000/svg">
<path fill-rule="evenodd" clip-rule="evenodd" d="M3.47416 17.4963H2.50865C2.37364 17.4963 2.29976 17.5797 2.28575 17.7477C2.30167 17.8997 2.38383 17.9763 2.53222 17.9763H3.30029V18.158C3.30029 18.7301 3.07293 19.1205 2.62074 19.3318C2.40039 19.4331 2.18258 19.4807 1.96476 19.4745C1.65079 19.464 1.39285 19.3602 1.19478 19.1638C0.847687 18.8221 0.676368 18.3538 0.680189 17.7595C0.683374 17.348 0.787184 16.9848 0.992895 16.6697C1.23109 16.3027 1.58328 16.1192 2.05011 16.1192C2.25645 16.1192 2.44115 16.1538 2.60482 16.2199C2.73857 16.2749 2.89715 16.3725 3.08184 16.5121C3.14107 16.5579 3.20922 16.5826 3.28628 16.5881C3.35633 16.5857 3.41556 16.564 3.46588 16.5239C3.52001 16.4806 3.5474 16.4256 3.5474 16.3595C3.5474 16.2922 3.52702 16.2354 3.48689 16.1903C3.34487 16.029 3.14298 15.903 2.88441 15.8134C2.60546 15.7183 2.31505 15.6713 2.0138 15.675C1.7132 15.6787 1.44062 15.7411 1.1916 15.8597C0.952135 15.9746 0.752793 16.1322 0.593575 16.3299C0.269406 16.7327 0.108914 17.2424 0.113372 17.859C0.115919 18.3569 0.263037 18.8079 0.554088 19.2126C0.890358 19.6846 1.37375 19.9206 2.0017 19.9206C2.5163 19.9206 2.90861 19.8087 3.17865 19.5851C3.60917 19.2305 3.82444 18.6936 3.82444 17.9763V17.8824C3.82444 17.6248 3.70725 17.4963 3.47416 17.4963Z" fill="white"/>
<path fill-rule="evenodd" clip-rule="evenodd" d="M65.5868 17.4963H64.6213C64.4869 17.4963 64.4124 17.5797 64.399 17.7477C64.415 17.8997 64.4965 17.9763 64.6449 17.9763H65.4129V18.158C65.4129 18.7301 65.1862 19.1205 64.7334 19.3318C64.513 19.4331 64.2952 19.4807 64.078 19.4745C63.7641 19.464 63.5061 19.3602 63.3081 19.1638C62.961 18.8221 62.789 18.3538 62.7935 17.7595C62.796 17.348 62.9005 16.9848 63.1055 16.6697C63.3444 16.3027 63.6966 16.1192 64.1634 16.1192C64.3697 16.1192 64.5544 16.1538 64.7181 16.2199C64.8512 16.2749 65.0104 16.3725 65.1951 16.5121C65.2544 16.5579 65.3219 16.5826 65.3996 16.5881C65.4696 16.5857 65.5288 16.564 65.5792 16.5239C65.6333 16.4806 65.66 16.4256 65.66 16.3595C65.66 16.2922 65.6403 16.2354 65.6002 16.1903C65.4575 16.029 65.2563 15.903 64.9971 15.8134C64.7187 15.7183 64.4283 15.6713 64.1264 15.675C63.8265 15.6787 63.5533 15.7411 63.3049 15.8597C63.0648 15.9746 62.8661 16.1322 62.7062 16.3299C62.3827 16.7327 62.2222 17.2424 62.2267 17.859C62.2286 18.3569 62.3763 18.8079 62.6667 19.2126C63.003 19.6846 63.4864 19.9206 64.1143 19.9206C64.6296 19.9206 65.0219 19.8087 65.2919 19.5851C65.7225 19.2305 65.9377 18.6936 65.9377 17.9763V17.8824C65.9377 17.6248 65.8205 17.4963 65.5868 17.4963Z" fill="white"/>
<mask id="mask0_23674_302135" style="mask-type:alpha" maskUnits="userSpaceOnUse" x="25" y="15" width="6" height="5">
<path fill-rule="evenodd" clip-rule="evenodd" d="M25.4453 15.6848H30.1391V20H25.4453V15.6848Z" fill="white"/>
</mask>
<g mask="url(#mask0_23674_302135)">
<path fill-rule="evenodd" clip-rule="evenodd" d="M29.3729 15.775C29.2971 15.7151 29.2073 15.6848 29.1016 15.6848C29.0144 15.6848 28.9354 15.7083 28.8647 15.7534C28.7959 15.7985 28.7475 15.8634 28.722 15.948L27.8037 19.0278H27.7928L26.8757 15.9702C26.8464 15.872 26.7987 15.8016 26.7331 15.7583C26.6624 15.7095 26.5783 15.6848 26.4828 15.6848C26.3866 15.6848 26.3006 15.7169 26.2255 15.7793C26.1529 15.8386 26.1064 15.9295 26.0847 16.053L25.4574 19.5844C25.4574 19.6307 25.453 19.6697 25.4453 19.7005C25.4574 19.9001 25.5389 20.0002 25.6931 20.0002C25.8637 20.0002 25.9618 19.9155 25.9879 19.7469L26.4936 16.3508L27.5323 19.7469C27.575 19.884 27.6648 19.9526 27.8037 19.9526C27.9349 19.9526 28.0208 19.884 28.0629 19.7469L29.1143 16.352L29.6086 19.724C29.6315 19.8766 29.7219 19.9526 29.8799 19.9526C30.0525 19.9526 30.1391 19.8371 30.1391 19.6066L29.5118 16.0295C29.492 15.9183 29.4449 15.8337 29.3729 15.775Z" fill="white"/>
</g>
<path fill-rule="evenodd" clip-rule="evenodd" d="M39.7798 15.6714C39.5996 15.6714 39.5092 15.7628 39.5092 15.9463V19.6408C39.5092 19.8243 39.5996 19.9169 39.7798 19.9169C39.9492 19.9169 40.034 19.8212 40.034 19.629V15.9463C40.034 15.7628 39.9492 15.6714 39.7798 15.6714Z" fill="white"/>
<path fill-rule="evenodd" clip-rule="evenodd" d="M52.5963 15.676C52.5186 15.676 52.4555 15.7026 52.4078 15.7551C52.3606 15.8089 52.3371 15.8737 52.3371 15.951V18.9838H52.3301L50.073 15.841C49.9883 15.7236 49.8876 15.6643 49.7711 15.6643C49.6227 15.6643 49.5488 15.7564 49.5488 15.9392V19.6566C49.5488 19.8333 49.6354 19.9216 49.808 19.9216C49.9851 19.9216 50.073 19.8363 50.073 19.6683V16.6126L52.3371 19.7684C52.4148 19.8777 52.5135 19.9327 52.6326 19.9327C52.7886 19.9327 52.8669 19.8438 52.8669 19.6683V15.951C52.8669 15.7675 52.7765 15.676 52.5963 15.676Z" fill="white"/>
<path fill-rule="evenodd" clip-rule="evenodd" d="M13.7803 18.5692L14.6069 16.3037H14.6171L15.4508 18.5692H13.7803ZM14.9788 15.9838C14.9413 15.8856 14.891 15.8115 14.8292 15.762C14.7629 15.7108 14.6891 15.6848 14.6056 15.6848C14.5286 15.6848 14.4566 15.712 14.3904 15.7657C14.3267 15.817 14.2757 15.893 14.2369 15.9956L12.8491 19.5955L12.8326 19.6598C12.8249 19.6876 12.8186 19.7129 12.8135 19.7358C12.8269 19.8723 12.9096 19.9415 13.0612 19.9415C13.1975 19.9415 13.2879 19.8809 13.3325 19.7605L13.6178 19.0037H15.6062L15.8909 19.7599C15.9157 19.826 15.9514 19.8742 15.9972 19.9026C16.0482 19.9359 16.1029 19.9532 16.1622 19.9532C16.3277 19.9532 16.4099 19.884 16.4099 19.7469C16.4099 19.7086 16.4023 19.6585 16.3863 19.5955L14.9788 15.9838Z" fill="white"/>
<path fill-rule="evenodd" clip-rule="evenodd" d="M55.2907 0.00317383C54.3366 0.00317383 53.5635 0.75319 53.5635 1.67804C53.5635 2.60352 54.3366 3.35353 55.2907 3.35353C56.2441 3.35353 57.0172 2.60352 57.0172 1.67804C57.0172 0.75319 56.2441 0.00317383 55.2907 0.00317383Z" fill="white"/>
<mask id="mask1_23674_302135" style="mask-type:alpha" maskUnits="userSpaceOnUse" x="62" y="0" width="4" height="4">
<path fill-rule="evenodd" clip-rule="evenodd" d="M62.5469 0.00488281H66.0005V3.35524H62.5469V0.00488281Z" fill="white"/>
</mask>
<g mask="url(#mask1_23674_302135)">
<path fill-rule="evenodd" clip-rule="evenodd" d="M64.2741 3.35524C65.2275 3.35524 66.0006 2.60523 66.0006 1.68037C66.0006 0.754899 65.2275 0.00488281 64.2741 0.00488281C63.32 0.00488281 62.5469 0.754899 62.5469 1.68037C62.5469 2.60523 63.32 3.35524 64.2741 3.35524Z" fill="white"/>
</g>
<path fill-rule="evenodd" clip-rule="evenodd" d="M55.2907 8.13843C54.3366 8.13843 53.5635 8.88844 53.5635 9.8133C53.5635 10.7388 54.3366 11.4888 55.2907 11.4888C56.2441 11.4888 57.0172 10.7388 57.0172 9.8133C57.0172 8.88844 56.2441 8.13843 55.2907 8.13843Z" fill="white"/>
<mask id="mask2_23674_302135" style="mask-type:alpha" maskUnits="userSpaceOnUse" x="62" y="8" width="4" height="4">
<path fill-rule="evenodd" clip-rule="evenodd" d="M62.54 8.17285H65.9936V11.5232H62.54V8.17285Z" fill="white"/>
</mask>
<g mask="url(#mask2_23674_302135)">
<path fill-rule="evenodd" clip-rule="evenodd" d="M64.2672 8.17285C63.3132 8.17285 62.54 8.92287 62.54 9.84772C62.54 10.7732 63.3132 11.5232 64.2672 11.5232C65.2206 11.5232 65.9938 10.7732 65.9938 9.84772C65.9938 8.92287 65.2206 8.17285 64.2672 8.17285Z" fill="white"/>
</g>
<path fill-rule="evenodd" clip-rule="evenodd" d="M59.776 4.08472C58.822 4.08472 58.0488 4.83473 58.0488 5.75959C58.0488 6.68506 58.822 7.43508 59.776 7.43508C60.7294 7.43508 61.5026 6.68506 61.5026 5.75959C61.5026 4.83473 60.7294 4.08472 59.776 4.08472Z" fill="white"/>
<path fill-rule="evenodd" clip-rule="evenodd" d="M42.8574 6.65761L44.6197 2.2508L46.3806 6.65761H42.8574ZM50.7504 11.2064C50.7504 11.1743 50.7409 11.1447 50.7262 11.1181L45.9102 0.19159L45.9051 0.187883C45.872 0.0853271 45.7765 0.00995478 45.6605 0.00501234L45.6593 0.00439453H44.6823H44.5607H43.5837L43.5824 0.00501234C43.4665 0.00995478 43.371 0.0853271 43.3379 0.187883L43.3328 0.19159L38.5174 11.1181C38.5021 11.1447 38.4932 11.1743 38.4932 11.2064C38.4932 11.3084 38.5779 11.3912 38.6823 11.3912H40.8267C40.9413 11.3912 41.0388 11.3207 41.077 11.2231L41.0801 11.2213L42.0705 8.68147H47.1725L48.1628 11.2213L48.166 11.2231C48.2049 11.3207 48.3017 11.3912 48.4163 11.3912H50.56C50.6651 11.3912 50.7504 11.3084 50.7504 11.2064Z" fill="white"/>
<path fill-rule="evenodd" clip-rule="evenodd" d="M23.2421 0L18.5509 0.00247122V0C15.9601 0 13.8604 2.20309 13.8604 4.92082V5.60782V5.64056V5.75115V5.79193V6.47089C13.8604 9.18862 15.9601 11.3892 18.5509 11.3892L23.2421 11.3917C23.3651 11.3917 23.4663 11.2947 23.4663 11.1749V9.62973C23.4663 9.5105 23.3651 9.41288 23.2421 9.41288H18.9923C18.9923 9.41288 18.442 9.42524 17.8873 9.17132C17.3326 8.91679 17.0562 8.51212 17.0562 8.51212C17.0562 8.51212 16.8709 8.27983 16.769 7.8696C16.6677 7.45938 16.618 6.88853 16.618 6.88853V6.62473H23.2421C23.3651 6.62473 23.4663 6.52711 23.4663 6.40788V4.86275C23.4663 4.74289 23.3651 4.6459 23.2421 4.6459H16.618V4.50318C16.618 4.50318 16.6677 3.93233 16.769 3.52211C16.8709 3.11189 17.0562 2.87959 17.0562 2.87959C17.0562 2.87959 17.3326 2.47493 17.8873 2.22101C18.442 1.96647 18.9923 1.97883 18.9923 1.97883H23.2421C23.3651 1.97883 23.4663 1.88184 23.4663 1.76198V0.217467C23.4663 0.0969955 23.3651 0 23.2421 0Z" fill="white"/>
<path fill-rule="evenodd" clip-rule="evenodd" d="M35.2791 9.4105H31.7489C31.7489 9.4105 31.2917 9.42285 30.8312 9.16894C30.3701 8.9144 30.1408 8.50974 30.1408 8.50974C30.1408 8.50974 29.9491 8.15265 29.9491 7.73439V6.88306V5.74876V0.190369L29.9459 0.187898C29.93 0.0834885 29.8377 0.00317383 29.7249 0.00317383H27.7099C27.5863 0.00317383 27.4863 0.100169 27.4863 0.220024C27.4863 0.233615 27.4882 0.246589 27.4901 0.258945L27.4863 5.74876V6.46851V6.48457V7.63554C27.4863 7.65408 27.4863 7.67261 27.487 7.69115C27.5169 9.74288 29.26 11.3869 31.3821 11.3869L35.2791 11.3899C35.3817 11.3899 35.4645 11.2923 35.4645 11.1725V9.62796C35.4645 9.50811 35.3817 9.4105 35.2791 9.4105Z" fill="white"/>
<path fill-rule="evenodd" clip-rule="evenodd" d="M5.95937 4.91796L5.36708 4.91919H2.46484V2.05814H5.36708H5.95937C7.26815 2.05814 7.66619 2.6883 7.66683 3.46488C7.66619 4.2427 7.26815 4.91796 5.95937 4.91796ZM10.5052 11.1094L7.79152 6.64457C7.79279 6.64457 7.79534 6.64457 7.79534 6.64457L7.79598 6.64395C9.19264 6.35729 10.1626 5.41699 10.1626 3.37576C10.1626 0.658651 8.29656 0.0334314 5.94012 0.00439453L5.36503 0.00501234H0.222906C0.0999893 0.00501234 0 0.102008 0 0.221862V0.224951V11.1712V11.1743C0 11.2948 0.0999893 11.3918 0.222906 11.3918H2.23861C2.36217 11.3918 2.46279 11.2948 2.46279 11.1743V6.89169H5.32427L7.8412 11.2145H7.84438C7.90425 11.3195 8.01761 11.3918 8.15008 11.3918H10.3307V11.3899C10.3352 11.3905 10.3397 11.3918 10.3441 11.3918C10.4492 11.3918 10.5345 11.309 10.5345 11.2071C10.5345 11.1712 10.5231 11.1379 10.5046 11.1094H10.5052Z" fill="white"/>
</svg>
