<svg width="85" height="18" viewBox="0 0 85 18" fill="none" xmlns="http://www.w3.org/2000/svg">
<path fill-rule="evenodd" clip-rule="evenodd" d="M2.37416 3.36612V16.7143C2.37416 17.0553 2.2491 17.3823 2.02648 17.6234C1.80385 17.8645 1.50192 18 1.18708 18C0.872248 18 0.570309 17.8645 0.347688 17.6234C0.125067 17.3823 0 17.0553 0 16.7143V1.28574C3.78478e-05 1.06659 0.051781 0.851096 0.150319 0.659696C0.248856 0.468297 0.390919 0.307345 0.563025 0.192119C0.73513 0.0768918 0.931567 0.0112124 1.13369 0.00131343C1.33582 -0.00858553 1.53693 0.0376245 1.71793 0.135558L15.9629 7.8501C16.1601 7.95689 16.3259 8.12103 16.4417 8.32413C16.5576 8.52723 16.619 8.76126 16.619 9.00001C16.619 9.23876 16.5576 9.4728 16.4417 9.67589C16.3259 9.87899 16.1601 10.0431 15.9629 10.1499L6.22894 15.4214C6.04796 15.5194 5.84686 15.5657 5.64473 15.5558C5.44259 15.546 5.24614 15.4804 5.07402 15.3651C4.9019 15.2499 4.75983 15.089 4.66129 14.8976C4.56275 14.7062 4.51102 14.4907 4.51101 14.2715V8.99975C4.51101 8.65876 4.63608 8.33173 4.8587 8.09061C5.08132 7.84949 5.38326 7.71404 5.69809 7.71404C6.01293 7.71404 6.31486 7.84949 6.53749 8.09061C6.76011 8.33173 6.88517 8.65876 6.88517 8.99975V12.1911L12.7778 8.99975L2.37416 3.36612ZM28.5414 5.34852C28.8297 5.55571 29.0551 5.85042 29.1895 6.19575C29.2813 6.4302 29.3286 6.68227 29.3285 6.93694V8.41934C29.3287 8.66968 29.2833 8.9176 29.1949 9.14891C29.1065 9.38023 28.9769 9.59041 28.8135 9.76743C28.65 9.94444 28.456 10.0848 28.2424 10.1805C28.0288 10.2763 27.7999 10.3254 27.5688 10.3253H23.4628V12.1783C23.4628 12.3889 23.3855 12.5909 23.248 12.7398C23.1105 12.8887 22.924 12.9724 22.7296 12.9724C22.5351 12.9724 22.3486 12.8887 22.2111 12.7398C22.0736 12.5909 21.9963 12.3889 21.9963 12.1783V5.82515C21.9963 5.61453 22.0736 5.41254 22.2111 5.26361C22.3486 5.11467 22.5351 5.03101 22.7296 5.03101H27.5688C27.9148 5.03088 28.2531 5.14133 28.5414 5.34852ZM27.8394 8.54269C27.8547 8.5037 27.8624 8.46171 27.8621 8.41934V6.93694C27.8622 6.90483 27.8579 6.87287 27.8491 6.84218C27.8363 6.79807 27.8147 6.75751 27.786 6.72328C27.7573 6.68906 27.722 6.66198 27.6827 6.64391C27.6466 6.62756 27.6079 6.61919 27.5688 6.61929H23.4628V8.7362H27.5688C27.627 8.73692 27.684 8.71846 27.7323 8.68326C27.7797 8.64852 27.8169 8.59972 27.8394 8.54269ZM64.2868 8.5337C63.9963 8.32083 63.6536 8.20722 63.3029 8.20757H59.0013C58.9622 8.20791 58.9234 8.19953 58.8874 8.18295C58.8348 8.15856 58.7897 8.11831 58.7576 8.06701C58.7254 8.01457 58.7084 7.9529 58.7088 7.88991V6.93694C58.7087 6.89459 58.7164 6.85265 58.7315 6.81359C58.754 6.7566 58.7912 6.70781 58.8385 6.67302C58.862 6.65594 58.8876 6.64265 58.9145 6.63358C58.9426 6.62402 58.9719 6.6192 59.0013 6.61929H64.085C64.2794 6.61929 64.4659 6.53562 64.6034 6.38669C64.7409 6.23776 64.8182 6.03577 64.8182 5.82515C64.8182 5.61453 64.7409 5.41254 64.6034 5.26361C64.4659 5.11468 64.2794 5.03101 64.085 5.03101H59.0013C58.7702 5.03083 58.5413 5.08001 58.3277 5.17573C58.1141 5.27145 57.9201 5.41184 57.7566 5.58885C57.5932 5.76587 57.4636 5.97605 57.3752 6.20737C57.2868 6.43868 57.2414 6.6866 57.2416 6.93694V7.88991C57.2414 8.14025 57.2868 8.38817 57.3752 8.61949C57.4636 8.85081 57.5932 9.06098 57.7566 9.238C57.9201 9.41502 58.1141 9.5554 58.3277 9.65112C58.5413 9.74684 58.7702 9.79602 59.0013 9.79585H63.3029C63.342 9.79575 63.3807 9.80412 63.4167 9.82047C63.4561 9.83854 63.4913 9.86562 63.52 9.89984C63.5488 9.93407 63.5703 9.97463 63.5832 10.0187C63.5919 10.0494 63.5963 10.0814 63.5961 10.1135V11.0665C63.5965 11.1088 63.5887 11.1508 63.5734 11.1898C63.551 11.2469 63.5138 11.2957 63.4664 11.3304C63.4181 11.3656 63.3611 11.3841 63.3029 11.3833H58.2192C58.0247 11.3833 57.8382 11.467 57.7007 11.6159C57.5632 11.7649 57.486 11.9669 57.486 12.1775C57.486 12.3881 57.5632 12.5901 57.7007 12.739C57.8382 12.8879 58.0247 12.9716 58.2192 12.9716H63.3029C63.534 12.9718 63.7629 12.9226 63.9765 12.8269C64.19 12.7312 64.3841 12.5908 64.5475 12.4138C64.711 12.2368 64.8406 12.0266 64.929 11.7953C65.0173 11.5639 65.0627 11.316 65.0626 11.0657V10.1135C65.0627 9.80154 64.9921 9.49431 64.8569 9.21884C64.7218 8.94337 64.5262 8.70809 64.2873 8.5337H64.2868ZM54.9442 5.03159C55.1382 5.01754 55.3294 5.08754 55.4758 5.22619C55.5483 5.29483 55.6076 5.37828 55.6503 5.47176C55.6931 5.56524 55.7184 5.66693 55.7248 5.77101C55.7313 5.87509 55.7187 5.97953 55.6879 6.07836C55.6571 6.17718 55.6086 6.26847 55.5452 6.34698L52.3048 10.3577V12.177C52.3048 12.3877 52.2276 12.5896 52.0901 12.7386C51.9526 12.8875 51.7661 12.9712 51.5716 12.9712C51.3771 12.9712 51.1907 12.8875 51.0531 12.7386C50.9156 12.5896 50.8384 12.3877 50.8384 12.177V10.3577L47.5978 6.34698C47.5331 6.26872 47.4835 6.17733 47.4516 6.07813C47.4198 5.97892 47.4065 5.87387 47.4124 5.76904C47.4183 5.66421 47.4433 5.56169 47.4861 5.46742C47.5288 5.37315 47.5884 5.28899 47.6614 5.21983C47.7343 5.15067 47.8193 5.09787 47.9112 5.06449C48.0031 5.03111 48.1003 5.01782 48.197 5.02538C48.2937 5.03293 48.3881 5.0612 48.4747 5.10852C48.5612 5.15585 48.6383 5.22131 48.7013 5.3011L51.5716 8.85329L54.4412 5.3011C54.5692 5.14258 54.7501 5.04564 54.9442 5.03159ZM74.6757 6.19575C74.5413 5.85017 74.3156 5.55529 74.027 5.34808C73.7385 5.14087 73.3998 5.03057 73.0536 5.03101H68.752C68.5209 5.03083 68.292 5.08001 68.0784 5.17573C67.8649 5.27145 67.6708 5.41184 67.5074 5.58886C67.3439 5.76587 67.2143 5.97605 67.1259 6.20737C67.0376 6.43869 66.9921 6.6866 66.9923 6.93694V11.0665C66.9921 11.3168 67.0376 11.5647 67.1259 11.796C67.2143 12.0274 67.3439 12.2375 67.5074 12.4146C67.6708 12.5916 67.8649 12.732 68.0784 12.8277C68.292 12.9234 68.5209 12.9726 68.752 12.9724H73.0536C73.2847 12.9726 73.5136 12.9234 73.7272 12.8277C73.9408 12.732 74.1348 12.5916 74.2983 12.4146C74.4617 12.2375 74.5913 12.0274 74.6797 11.796C74.7681 11.5647 74.8135 11.3168 74.8133 11.0665V6.93694C74.8136 6.6824 74.7668 6.43038 74.6757 6.19575ZM73.3469 11.0665C73.347 11.1088 73.3392 11.1508 73.3242 11.1898C73.3075 11.2324 73.2825 11.2706 73.2509 11.3017C73.2193 11.3328 73.1818 11.3561 73.1411 11.3701C73.1128 11.3795 73.0833 11.3843 73.0536 11.3841H68.752C68.7129 11.3845 68.6741 11.3761 68.6381 11.3595C68.5988 11.3414 68.5636 11.3144 68.5349 11.2801C68.5061 11.2459 68.4846 11.2053 68.4717 11.1612C68.463 11.1305 68.4586 11.0986 68.4587 11.0665V6.93694C68.4584 6.89457 68.4662 6.85258 68.4815 6.81359C68.5039 6.75656 68.5411 6.70776 68.5885 6.67302C68.6369 6.63812 68.6939 6.61969 68.752 6.62008H73.0536C73.0927 6.61998 73.1314 6.62835 73.1675 6.6447C73.2201 6.66909 73.2652 6.70934 73.2973 6.76064C73.313 6.78602 73.3253 6.81376 73.3337 6.84297C73.3425 6.87337 73.347 6.90507 73.3469 6.93694V11.0665ZM83.415 5.2636C83.5525 5.11467 83.739 5.03101 83.9335 5.03101C84.0298 5.03101 84.1251 5.05155 84.2141 5.09146C84.303 5.13137 84.3839 5.18986 84.452 5.2636C84.52 5.33735 84.5741 5.42489 84.6109 5.52124C84.6477 5.61759 84.6667 5.72086 84.6667 5.82515V12.1796C84.6665 12.3339 84.6248 12.4847 84.5468 12.6138C84.4687 12.7428 84.3576 12.8444 84.2271 12.9062C84.0965 12.9679 83.9522 12.9872 83.8118 12.9616C83.6713 12.936 83.5408 12.8666 83.4361 12.762L78.3121 7.63896V12.1783C78.3121 12.3889 78.2349 12.5909 78.0974 12.7398C77.9599 12.8887 77.7734 12.9724 77.5789 12.9724C77.3845 12.9724 77.198 12.8887 77.0605 12.7398C76.923 12.5909 76.8457 12.3889 76.8457 12.1783V5.82515C76.8459 5.67087 76.8876 5.52001 76.9657 5.39098C77.0437 5.26194 77.1548 5.16034 77.2853 5.09857C77.4159 5.0368 77.5602 5.01754 77.7006 5.04315C77.8411 5.06876 77.9716 5.13813 78.0763 5.24278L83.2003 10.3644V5.82515C83.2003 5.61453 83.2775 5.41253 83.415 5.2636ZM37.0967 11.3841H32.6974V5.82515C32.6974 5.61453 32.6201 5.41254 32.4826 5.2636C32.3451 5.11467 32.1586 5.03101 31.9642 5.03101C31.7697 5.03101 31.5832 5.11467 31.4457 5.2636C31.3082 5.41254 31.231 5.61453 31.231 5.82515V12.1783C31.231 12.3889 31.3082 12.5909 31.4457 12.7398C31.5832 12.8887 31.7697 12.9724 31.9642 12.9724H37.0967C37.2912 12.9724 37.4777 12.8887 37.6152 12.7398C37.7527 12.5909 37.8299 12.3889 37.8299 12.1783C37.8299 11.9676 37.7527 11.7657 37.6152 11.6167C37.4777 11.4678 37.2912 11.3841 37.0967 11.3841ZM46.7048 12.8669C46.816 12.9361 46.9421 12.9724 47.0704 12.9723C47.1993 12.9722 47.326 12.9353 47.4375 12.8653C47.5491 12.7953 47.6416 12.6947 47.7058 12.5736C47.77 12.4525 47.8036 12.3152 47.8032 12.1755C47.8028 12.0359 47.7683 11.8988 47.7034 11.7782L44.2817 5.42508C44.2171 5.30517 44.1247 5.20568 44.0136 5.13654C43.9024 5.06739 43.7765 5.03101 43.6483 5.03101C43.5202 5.03101 43.3942 5.06739 43.2831 5.13654C43.172 5.20568 43.0795 5.30517 43.015 5.42508L39.5933 11.7782C39.4953 11.9601 39.4681 12.1768 39.5176 12.3805C39.5671 12.5842 39.6892 12.7582 39.8572 12.8643C40.0252 12.9704 40.2252 12.9999 40.4133 12.9463C40.6014 12.8927 40.7621 12.7604 40.86 12.5784L43.6487 7.40116L46.4364 12.5782C46.501 12.6982 46.5935 12.7978 46.7048 12.8669Z" fill="white"/>
</svg>
