<svg width="80" height="20" viewBox="0 0 80 20" fill="none" xmlns="http://www.w3.org/2000/svg">
<path d="M37.7498 6.22776C37.7498 6.22776 39.6256 6.20264 40.5662 6.20264C42.1908 6.20264 43.0868 6.9816 43.0868 8.23441C43.0868 8.99004 42.5204 9.63977 41.7259 9.82644L41.7989 9.83721C42.6166 9.95028 43.3826 10.5264 43.3826 11.5638C43.3826 12.9638 42.1855 13.7769 40.4825 13.7769C39.5757 13.7769 38.6459 13.7661 37.748 13.7661V6.22776H37.7498ZM40.5163 9.43157C41.3447 9.43157 41.749 9.04747 41.749 8.37081C41.749 7.69416 41.3678 7.29929 40.4825 7.29929C40.0015 7.29929 39.4706 7.31006 39.191 7.32262V9.43336H40.5163V9.43157ZM39.191 10.4475V12.6713H40.4611C41.4248 12.6713 41.8844 12.2656 41.8844 11.5423C41.8844 10.819 41.3803 10.4475 40.5056 10.4475H39.191Z" fill="white"/>
<path d="M53.3896 6.20264H55.8212C57.5349 6.20264 58.6893 7.04981 58.6893 8.6185C58.6893 10.1872 57.5581 11.1313 55.7215 11.1313C55.3973 11.1313 54.9234 11.1205 54.7773 11.1205V13.7661H53.3914V6.20264H53.3896ZM55.7535 10.0023C56.7957 10.0023 57.3212 9.56618 57.3212 8.67414C57.3212 7.7821 56.7939 7.3316 55.8195 7.3316H54.7738V10.0023H55.7518H55.7535Z" fill="white"/>
<path d="M59.8857 6.2373H61.2823L61.3429 12.5749H64.2359L63.7211 13.7649H59.8857V6.2373Z" fill="white"/>
<path d="M27.7654 11.3113C27.3806 10.7029 27.1098 10.5216 27.1098 10.5216C28.5367 10.0173 28.7024 8.76086 28.7024 8.76086C29.0373 6.35218 26.4275 6.2373 26.4275 6.2373H23.5488V13.7326H24.949V10.8196H25.6794C25.8005 10.8196 25.9145 10.8806 25.9822 10.9847L27.6531 13.5441C27.7297 13.6626 27.8615 13.7326 28.0023 13.7326H29.4096L27.7654 11.3113ZM26.114 9.79649H24.9775V7.32319H26.114C26.7909 7.32319 27.3414 7.876 27.3414 8.55984C27.3414 9.24368 26.7927 9.79649 26.114 9.79649Z" fill="white"/>
<path d="M34.834 6.2373V10.8806C34.834 11.8283 34.0715 12.5965 33.131 12.5965C32.1904 12.5965 31.428 11.8283 31.428 10.8806V6.2373H30.0527V10.8913C30.0527 12.6144 31.4386 13.8313 33.1488 13.8313C34.8589 13.8313 36.2448 12.6144 36.2448 10.8913V6.2373H34.8322H34.834Z" fill="white"/>
<path d="M49.0899 6.2373C48.9224 6.2373 48.7675 6.33064 48.6891 6.47781L46.9611 9.69957L45.2332 6.47781C45.153 6.32884 44.9998 6.2373 44.8324 6.2373H43.5801L46.2664 10.8124V13.729H47.6559V10.8124L50.3422 6.2373H49.0899Z" fill="white"/>
<path d="M75.9727 6.2373C75.8053 6.2373 75.6503 6.33064 75.5719 6.47781L73.844 9.69957L72.116 6.47781C72.0358 6.32884 71.8827 6.2373 71.7152 6.2373H70.4629L73.1492 10.8124V13.729H74.5387V10.8124L77.225 6.2373H75.9727Z" fill="white"/>
<path d="M68.7131 6.2373H67.3041L64.3701 13.7667H65.3908C65.7026 13.7667 65.9823 13.5675 66.0838 13.2695L66.5541 11.9036H69.4631L69.9334 13.2695C70.0367 13.5675 70.3146 13.7667 70.6263 13.7667H71.6471L68.7131 6.2373ZM66.9032 10.8896L68.0077 7.68036L69.1122 10.8896H66.9015H66.9032Z" fill="white"/>
<path d="M78.2451 6.59246C78.2451 6.59246 78.5159 6.58887 78.7083 6.58887C79.0111 6.58887 79.2088 6.74681 79.2088 7.00886C79.2088 7.22065 79.102 7.3445 78.9559 7.40732L79.2979 7.90808L78.9933 7.92603L78.694 7.46296H78.5373V7.91706H78.2487V6.59246H78.2451ZM78.6994 7.21706C78.8472 7.21706 78.9185 7.14348 78.9185 7.02322C78.9185 6.90297 78.8437 6.83476 78.6994 6.83476C78.6495 6.83476 78.5337 6.83835 78.5337 6.83835V7.21706H78.6994Z" fill="white"/>
<path fill-rule="evenodd" clip-rule="evenodd" d="M78.7711 6.1995C78.1907 6.1995 77.7201 6.67362 77.7201 7.25846C77.7201 7.84331 78.1907 8.31743 78.7711 8.31743C79.3516 8.31743 79.8222 7.84331 79.8222 7.25846C79.8222 6.67362 79.3516 6.1995 78.7711 6.1995ZM77.542 7.25846C77.542 6.57449 78.0923 6.02002 78.7711 6.02002C79.45 6.02002 80.0003 6.57449 80.0003 7.25846C80.0003 7.94244 79.45 8.49691 78.7711 8.49691C78.0923 8.49691 77.542 7.94244 77.542 7.25846Z" fill="white"/>
<path fill-rule="evenodd" clip-rule="evenodd" d="M6.7041 13.8479L11.4645 11.0718V16.6813L6.7041 13.8479Z" fill="white"/>
<path fill-rule="evenodd" clip-rule="evenodd" d="M11.4635 3.31641L6.60742 6.10201L6.62041 6.10966C6.64743 6.12286 6.67427 6.13721 6.70087 6.15274L11.4635 8.93014V3.31641Z" fill="white"/>
<path fill-rule="evenodd" clip-rule="evenodd" d="M4.93389 12.8218V7.17947C4.93389 7.16721 4.93407 7.155 4.93442 7.14286V7.07324L0 9.99885L4.93389 12.8218Z" fill="white"/>
<path fill-rule="evenodd" clip-rule="evenodd" d="M5.57636 13.8794C5.91153 14.052 6.32833 14.0663 6.70102 13.8492L6.70614 13.8462L11.4639 16.6832C6.3656 19.6699 1.95312 20.0001 1.95312 20.0001L5.57636 13.8794Z" fill="white"/>
<path fill-rule="evenodd" clip-rule="evenodd" d="M11.4629 11.0719L11.5388 11.0276C11.9303 10.7999 12.1262 10.4016 12.1267 10.0029H19.0605C19.0694 10.0173 19.0747 10.0245 19.0747 10.0245C16.6699 13.0793 13.9818 15.2044 11.4629 16.6816V11.0719Z" fill="white"/>
<path fill-rule="evenodd" clip-rule="evenodd" d="M11.4629 8.92998V3.31641C16.4169 6.16304 18.8378 9.67197 19.0569 9.99863L12.1267 10.0019C12.1268 9.60266 11.9308 9.20315 11.5388 8.97425L11.4629 8.92998Z" fill="white"/>
<path fill-rule="evenodd" clip-rule="evenodd" d="M5.37533 6.25367C5.70808 5.98675 6.17858 5.90137 6.60558 6.10259L11.4628 3.31688C8.95108 1.87562 5.78735 0.603069 1.93066 0L5.37533 6.25367Z" fill="white"/>
<path fill-rule="evenodd" clip-rule="evenodd" d="M4.93861 7.07077C4.96836 6.73057 5.13641 6.44514 5.37555 6.25343L1.93102 0H1.92389C1.92389 0 0.0302835 4.16584 0 9.9991L4.93861 7.07077Z" fill="white"/>
<path fill-rule="evenodd" clip-rule="evenodd" d="M4.93389 12.8148V12.8223C4.93389 13.3021 5.20461 13.6873 5.57548 13.8787L1.951 19.9999C0.463546 16.4515 -0.0156453 13.0036 0.000387127 9.99902L4.93389 12.8148Z" fill="white"/>
</svg>