<svg width="64" height="14" viewBox="0 0 64 14" fill="none" xmlns="http://www.w3.org/2000/svg">
<path fill-rule="evenodd" clip-rule="evenodd" d="M28.7681 7.14143L30.4671 5.00027L32.4598 2.47685L32.9249 1.88767L34.1984 0.269585C34.4491 -0.0523079 35.033 -0.0896705 35.485 0.177616C35.937 0.453524 36.0953 0.939238 35.8446 1.26401L34.558 2.89646L34.0928 3.48564L32.1661 5.92571L30.4143 8.13585C30.1636 8.45774 29.5797 8.4951 29.1277 8.22782C28.6757 7.95191 28.5174 7.4662 28.7681 7.14143ZM60.2514 3.91557L62.1592 7.60404L63.885 10.9542C64.1361 11.4362 63.9604 12.029 63.4928 12.2446C63.0253 12.4601 62.4291 12.2446 62.1781 11.7506L60.4993 8.5082L58.5287 4.72392L58.0612 3.81977L56.7998 1.37376C56.5488 0.891745 56.7245 0.298955 57.192 0.0833949C57.6595 -0.132165 58.2557 0.0833949 58.5068 0.577387L59.7964 3.03537L60.2514 3.91557ZM0.950611 3.92253C1.46999 3.92253 1.90122 3.50138 1.90122 2.99416C1.90122 2.20105 2.60946 1.85675 3.32084 1.85675H3.37121C4.07944 1.85675 4.79083 2.20412 4.79083 2.99416C4.79083 3.50138 5.22207 3.92253 5.74144 3.92253C6.26081 3.92253 6.70464 3.50138 6.70464 2.99416C6.70464 1.26345 5.3102 1.67735e-09 3.3838 1.67735e-09H3.33343C1.39444 1.67735e-09 0 1.25115 0 2.99416C0 3.50138 0.418647 3.92253 0.950611 3.92253ZM6.70464 9.30194C6.70464 8.80709 6.2734 8.39622 5.75403 8.39622C5.23466 8.39622 4.80342 8.7951 4.80342 9.30194C4.80342 10.0757 4.09518 10.4116 3.3838 10.4116H3.33343C2.6252 10.4116 1.91381 10.0727 1.91381 9.30194C1.91381 8.80709 1.48258 8.39622 0.963202 8.39622C0.443828 8.39622 0 8.7951 0 9.30194C0 10.9904 1.39444 12.223 3.32084 12.223H3.37121C3.62302 12.223 3.87799 12.199 4.10463 12.163L4.94192 13.7196C5.1056 14.0225 5.62497 14.0944 6.08139 13.8635C6.5504 13.6356 6.78963 13.2007 6.62595 12.8978L5.81384 11.3413C6.37728 10.8225 6.70464 10.1117 6.70464 9.30194ZM1.82854 3.93421V8.38327C1.59696 8.15772 1.28419 8.03366 0.920284 8.01957C0.556381 8.01957 0.228567 8.169 0 8.39455V3.91165C0.231575 4.14003 0.556381 4.28664 0.920284 4.28664C1.28419 4.28664 1.59997 4.14848 1.82854 3.93421ZM4.87793 3.91165V8.39455C5.10801 8.169 5.43799 8.01957 5.80431 8.01957C6.15851 8.01957 6.47336 8.1549 6.70647 8.37199V3.93421C6.47639 4.14848 6.15851 4.28664 5.7922 4.28664C5.44102 4.28664 5.11104 4.14003 4.87793 3.91165ZM22.6255 2.99416C22.6255 3.50138 22.1935 3.92253 21.6731 3.92253C21.1401 3.92253 20.7207 3.50138 20.7207 2.99416C20.7207 1.26345 22.1178 1.67735e-09 24.0478 1.67735e-09H24.0983C26.0283 1.67735e-09 27.4253 1.26345 27.4253 2.99416C27.4253 3.50138 26.9933 3.92253 26.4729 3.92253C25.9526 3.92253 25.5205 3.50138 25.5205 2.99416C25.5205 2.20412 24.8078 1.85675 24.0983 1.85675H24.0478C23.3351 1.85675 22.6255 2.20105 22.6255 2.99416ZM26.4729 8.39622C25.9526 8.39622 25.5205 8.81737 25.5205 9.32459C25.5205 10.1177 24.811 10.462 24.0983 10.462H24.0478C23.3382 10.462 22.6255 10.1146 22.6255 9.32459C22.6255 8.81737 22.1935 8.39622 21.6731 8.39622C21.1528 8.39622 20.7207 8.81737 20.7207 9.32459C20.7207 11.0553 22.1178 12.3188 24.0478 12.3188H24.0983C26.0283 12.3188 27.4253 11.0553 27.4253 9.32459C27.4253 8.80507 26.9933 8.39622 26.4729 8.39622ZM22.5492 3.93421V8.38327C22.3207 8.169 22.0049 8.03366 21.641 8.01957C21.2771 8.01957 20.9493 8.169 20.7207 8.39455V3.91165C20.9523 4.14003 21.2771 4.28664 21.641 4.28664C22.0049 4.28664 22.3207 4.14848 22.5492 3.93421ZM37.5235 3.92253C38.0438 3.92253 38.4759 3.50138 38.4759 2.99416C38.4759 2.20105 39.1854 1.85675 39.8982 1.85675H39.9486C40.6582 1.85675 41.3709 2.20412 41.3709 2.99416C41.3709 3.50138 41.803 3.92253 42.3233 3.92253C42.8437 3.92253 43.2757 3.50138 43.2757 2.99416C43.2757 1.26345 41.8786 1.67735e-09 39.9486 1.67735e-09H39.8982C37.9681 1.67735e-09 36.5711 1.26345 36.5711 2.99416C36.5711 3.50138 37.0031 3.92253 37.5235 3.92253ZM37.1826 4.28633C37.546 4.3901 37.9447 4.36704 38.2695 4.18256C38.591 4.00961 38.7871 3.70695 38.8386 3.36969L42.6682 8.02208C42.3049 7.92984 41.9319 7.96443 41.6071 8.13738C41.2695 8.32475 41.0766 8.63606 41.0251 8.97331L37.1826 4.28633ZM42.3235 8.39622C41.8032 8.39622 41.3711 8.81737 41.3711 9.32459C41.3711 10.1177 40.6616 10.462 39.9488 10.462H39.8984C39.1888 10.462 38.4761 10.1146 38.4761 9.32459C38.4761 8.81737 38.044 8.39622 37.5237 8.39622C37.0033 8.39622 36.5713 8.81737 36.5713 9.32459C36.5713 11.0553 37.9684 12.3188 39.8984 12.3188H39.9488C41.8789 12.3188 43.2759 11.0553 43.2759 9.32459C43.2728 8.80507 42.8439 8.39622 42.3235 8.39622ZM13.3445 9.32459C13.3445 8.81737 13.7765 8.39622 14.2968 8.39622C14.8298 8.39622 15.2492 8.80507 15.2366 9.32459C15.2366 11.0553 13.8396 12.3188 11.9096 12.3188H11.8592C9.92923 12.3188 8.53223 11.0553 8.53223 9.32459C8.53223 8.80507 8.96426 8.39622 9.48459 8.39622C10.0049 8.39622 10.4369 8.81737 10.4369 9.32459C10.4369 10.1023 11.1623 10.462 11.8718 10.462H11.9223C12.6349 10.462 13.3445 10.1177 13.3445 9.32459ZM14.3223 1.67735e-09C13.8228 1.67735e-09 13.408 0.405188 13.408 0.893188V3.34502V4.25004V8.40543C13.6381 8.16883 13.9681 8.01208 14.3344 8.01208C14.6886 8.01208 15.0034 8.15404 15.2365 8.38177V4.23821V3.35685V0.893188C15.2365 0.3904 14.8218 1.67735e-09 14.3223 1.67735e-09ZM10.3608 4.23821V8.38177C10.1323 8.157 9.80444 8.01208 9.45257 8.01208C9.08866 8.01208 8.76085 8.16883 8.53228 8.40543V4.25004V3.34502V0.893188C8.53228 0.393358 8.95633 1.67735e-09 9.45257 1.67735e-09C9.9488 1.67735e-09 10.3608 0.405188 10.3608 0.893188V3.35685V4.23821ZM18.894 4.28578V3.39453V0.903214C18.894 0.409736 18.4793 1.67735e-09 17.9797 1.67735e-09C17.4802 1.67735e-09 17.0655 0.409736 17.0655 0.903214V3.38256V4.29774V8.13789V11.4248C17.0655 11.9182 17.4802 12.328 17.9797 12.328C18.4793 12.328 18.894 11.9182 18.894 11.4248V8.03023V4.28578ZM54.8559 3.39535V4.29878V8.02918V11.4245C54.8559 11.9181 54.4411 12.328 53.9416 12.328C53.4421 12.328 53.0273 11.9181 53.0273 11.4245V8.13688V4.29878V3.38339V0.903433C53.0273 0.409835 53.4421 1.67735e-09 53.9416 1.67735e-09C54.4411 1.67735e-09 54.8559 0.409835 54.8559 0.903433V3.39535ZM58.5141 5.80846L58.1478 5.09257L57.6967 4.21371L56.6855 2.24646V3.62877V4.51927V8.25589V11.4541C56.6855 11.9343 57.1003 12.333 57.5998 12.333C58.0993 12.333 58.5141 11.9343 58.5141 11.4541V8.15112V5.80846ZM64.0004 7.77111V4.15906V3.28499V0.874069C64.0004 0.396515 63.5857 1.67735e-09 63.0861 1.67735e-09C62.5866 1.67735e-09 62.1719 0.396515 62.1719 0.874069V3.27342V4.15906V6.54683L62.514 7.20962L64.0004 10.0865V7.77111ZM34.8102 9.17344L33.6038 6.91572L33.3162 6.36973L32.9048 5.5965L32.5552 6.08346L31.6953 7.26987L31.9428 7.73322L33.1862 10.0618L34.2565 12.045C34.4173 12.3431 34.9277 12.4139 35.3762 12.1867C35.8371 11.9624 36.0722 11.5345 35.9114 11.2364L34.8102 9.17344ZM30.4778 3.35626V4.13101L30.0177 4.77269L28.6493 6.72435V4.24929V3.34443V0.893031C28.6493 0.405117 29.0733 1.67735e-09 29.5696 1.67735e-09C30.0658 1.67735e-09 30.4778 0.405117 30.4778 0.893031V3.35626ZM28.8916 8.60396C28.8068 8.54286 28.7221 8.46954 28.6494 8.39622V11.3962C28.6494 11.9002 29.0642 12.3188 29.5637 12.3188C30.0632 12.3188 30.478 11.9002 30.478 11.3962V8.53064C30.2842 8.73837 29.9905 8.86363 29.6727 8.86363C29.4032 8.86057 29.1247 8.76281 28.8916 8.60396ZM49.3586 1.67735e-09L49.3458 0.0119864C50.7898 0.194778 51.808 1.55823 51.808 3.54497V3.6049C51.808 5.59763 50.7898 7.08094 49.3586 7.26074C49.3586 7.26673 49.3618 7.26973 49.365 7.27272C49.3682 7.27572 49.3714 7.27872 49.3714 7.28471H48.017H47.1525H45.955C45.4908 7.28471 45.1033 6.93411 45.1033 6.35577C45.1033 5.77743 45.4908 5.42682 45.955 5.42682H47.1653H48.017H49.112C49.7812 5.37888 50.0918 4.37802 50.0918 3.61688V3.54497C50.0918 2.78683 49.794 1.90583 49.112 1.85789H48.017H47.1525H45.955C45.4908 1.85789 45.1033 1.50728 45.1033 0.928943C45.1033 0.350601 45.4908 1.67735e-09 45.955 1.67735e-09H47.1653H48.017H49.3586ZM46.92 7.59503H45.9035C45.5877 7.59503 45.311 7.47685 45.1035 7.27299V8.17705V11.424C45.1035 11.9115 45.5155 12.3163 46.0118 12.3163C46.508 12.3163 46.92 11.9115 46.92 11.424V8.07069V7.59503ZM46.9321 4.32952V4.97709H45.9035C45.5757 4.97709 45.308 5.09562 45.1035 5.2922V4.33819V3.45356V1.93003C45.311 2.12951 45.5877 2.24514 45.9035 2.24514H46.9321V3.46801V4.32952Z" fill="white"/>
</svg>