<svg width="108" height="18" viewBox="0 0 108 18" fill="none" xmlns="http://www.w3.org/2000/svg">
<path fill-rule="evenodd" clip-rule="evenodd" d="M19.4634 11.3193C19.3787 11.421 19.5143 11.5567 19.616 11.4888C23.346 8.99655 25.3805 5.82605 24.482 3.33375C23.1087 -0.514919 16.3607 -0.548828 11.0879 0.824483C7.23929 1.8248 -1.30578 5.16483 0.169256 10.8785C1.71211 16.8295 12.1391 18.4571 23.9564 15.7614C24.092 15.7275 24.0581 15.524 23.9225 15.541C19.3278 15.9139 6.10332 16.4904 4.98432 9.84428C4.42482 6.60596 7.1884 3.40156 11.427 1.84175C15.3774 0.383667 19.4974 0.943168 21.0572 3.65588C22.3287 5.85996 21.5997 8.82699 19.4634 11.3193ZM76.9732 13.5234V3.52024C76.9732 3.3846 77.092 3.26592 77.2281 3.26592H79.2116C79.2793 3.26592 79.3643 3.29982 79.3981 3.35069L84.1789 9.13219V3.50328C84.1789 3.36765 84.2977 3.24896 84.4331 3.24896H86.7054C86.8408 3.24896 86.9596 3.36765 86.9596 3.50328V13.5064C86.9596 13.642 86.8408 13.7607 86.7054 13.7607H84.7045C84.6368 13.7607 84.5519 13.7268 84.518 13.676L79.7373 7.89451V13.5064C79.7373 13.642 79.6184 13.7607 79.4824 13.7607H77.2108C77.092 13.7777 76.9732 13.659 76.9732 13.5234ZM89.1297 13.5239V3.52071C89.1297 3.38508 89.2485 3.26639 89.3839 3.26639H97.0814C97.2175 3.26639 97.3356 3.38508 97.3356 3.52071V5.23311C97.3356 5.36875 97.2175 5.48743 97.0814 5.48743H91.9277V7.42022H96.437C96.5731 7.42022 96.6919 7.53895 96.6919 7.67453V9.23433C96.6919 9.36998 96.5731 9.48871 96.437 9.48871H91.9277V11.5571H97.2852C97.4205 11.5571 97.5393 11.6758 97.5393 11.8114V13.5239C97.5393 13.6594 97.4205 13.7782 97.2852 13.7782H89.3839C89.232 13.7782 89.1297 13.6594 89.1297 13.5239ZM101.896 5.48695V13.5234C101.896 13.659 101.998 13.7777 102.133 13.7607H104.473C104.609 13.7607 104.727 13.642 104.727 13.5064V5.47H107.746C107.881 5.47 108 5.35132 108 5.21568V3.50328C108 3.36765 107.881 3.24896 107.746 3.24896H98.8616C98.7255 3.24896 98.6067 3.36765 98.6067 3.50328V5.23263C98.6067 5.36827 98.7255 5.48695 98.8616 5.48695H101.896ZM12.8665 12.4045C15.2167 12.4045 17.1221 10.4993 17.1221 8.14897C17.1221 5.79868 15.2167 3.89339 12.8665 3.89339C10.5162 3.89339 8.61087 5.79868 8.61087 8.14897C8.61087 10.4993 10.5162 12.4045 12.8665 12.4045ZM27.889 13.4221L32.3141 3.41899C32.348 3.33422 32.4498 3.26639 32.5515 3.26639H35.0777C35.1794 3.26639 35.2642 3.31726 35.3151 3.41899L39.7402 13.4221C39.808 13.5917 39.6893 13.7782 39.5028 13.7782H37.1292C37.0274 13.7782 36.9257 13.7104 36.8918 13.6256L36.1289 11.7436H31.4495L30.6865 13.6086C30.6526 13.7104 30.5508 13.7612 30.4491 13.7612H28.1094C27.9398 13.7782 27.8212 13.5917 27.889 13.4221ZM35.3151 9.6582L33.8061 5.87738L32.2972 9.6582H35.3151ZM40.8762 3.52071V13.5239C40.8762 13.6594 40.9779 13.7782 41.1135 13.7782H43.2159C43.3515 13.7782 43.4702 13.6594 43.4702 13.5239V8.01365L46.2847 12.5913C46.3355 12.6592 46.4202 12.7101 46.505 12.7101H47.4545C47.5392 12.7101 47.624 12.6592 47.6749 12.5913L50.5063 7.84408V13.5239C50.5063 13.6594 50.625 13.7782 50.7606 13.7782H52.8629C52.9986 13.7782 53.1173 13.6594 53.1173 13.5239V3.52071C53.1173 3.38508 52.9986 3.26639 52.8629 3.26639H50.9132C50.8284 3.26639 50.7437 3.31726 50.6928 3.38508L46.9967 9.53954L43.3006 3.38508C43.2498 3.31726 43.165 3.26639 43.0802 3.26639H41.1305C40.9948 3.26639 40.8762 3.38508 40.8762 3.52071ZM60.1884 13.9812C58.6286 13.9812 57.4079 13.5573 56.5432 12.7096C55.6786 11.8619 55.2547 10.675 55.2547 9.09828V3.50328C55.2547 3.36765 55.3734 3.24896 55.509 3.24896H57.8487C57.9844 3.24896 58.103 3.36765 58.103 3.50328V8.99654C58.103 10.7937 58.7812 11.6584 60.1884 11.6584C61.6126 11.6584 62.3247 10.7598 62.3247 8.99654V3.50328C62.3247 3.36765 62.4434 3.24896 62.579 3.24896H64.8679C65.0035 3.24896 65.1222 3.36765 65.1222 3.50328V9.08128C65.1222 10.6411 64.6814 11.8449 63.8167 12.6926C62.9689 13.5573 61.7313 13.9812 60.1884 13.9812ZM68.4105 13.6595C69.2074 13.88 70.0552 13.9817 70.9029 13.9817C71.9032 13.9817 72.7682 13.8291 73.4457 13.5408C74.1412 13.2357 74.6668 12.8288 75.006 12.3202C75.3616 11.8115 75.5315 11.252 75.5315 10.6247C75.5315 9.91262 75.3451 9.33612 74.9721 8.92925C74.5819 8.5223 74.1412 8.20018 73.6156 8.0137C73.09 7.81022 72.4118 7.62374 71.598 7.45418C70.869 7.30162 70.3264 7.16598 70.0043 7.01339C69.5635 6.80994 69.4617 6.50475 69.4617 6.28434C69.4617 5.96221 69.6143 5.70789 69.9195 5.50444C70.2246 5.30098 70.6655 5.21622 71.2928 5.21622C72.1742 5.21622 73.0727 5.43662 73.9886 5.89439C73.993 5.89439 74.0009 5.89665 74.0114 5.89971C74.0419 5.9085 74.0953 5.92393 74.1578 5.91135C74.26 5.87744 74.2939 5.80962 74.3104 5.77571L75.006 4.13113C75.0564 4.01245 75.006 3.87681 74.8871 3.80899C74.4465 3.57163 73.9375 3.40208 73.378 3.26645C72.7171 3.11386 72.0216 3.02909 71.3268 3.02909C70.3264 3.02909 69.4617 3.18168 68.7666 3.48686C68.0715 3.77509 67.5459 4.18199 67.2068 4.69062C66.8507 5.19926 66.6812 5.77571 66.6812 6.40303C66.6812 7.11511 66.8677 7.69157 67.2407 8.11543C67.6137 8.5393 68.0715 8.86142 68.5971 9.0479C69.1226 9.25137 69.8008 9.43785 70.5977 9.60742C71.3267 9.77697 71.8693 9.92954 72.208 10.0821C72.6659 10.2856 72.7682 10.6077 72.7682 10.8451C72.7682 11.4893 72.1576 11.8115 70.9368 11.8115C70.3095 11.8115 69.6821 11.7267 69.0379 11.5233C68.5123 11.3537 68.0545 11.1672 67.6645 10.9298C67.6606 10.9298 67.6539 10.9271 67.6447 10.9233C67.6142 10.9108 67.5561 10.8869 67.4781 10.9129C67.3763 10.9298 67.3424 10.9977 67.3255 11.0316L66.5964 12.6592C66.5456 12.7779 66.5964 12.9135 66.6982 12.9813C67.1559 13.2526 67.7324 13.49 68.4105 13.6595Z" fill="white"/>
</svg>