<svg width="66" height="15" viewBox="0 0 66 15" fill="none" xmlns="http://www.w3.org/2000/svg">
<path fill-rule="evenodd" clip-rule="evenodd" d="M5.61474 3.14933L3.57705 9.25251H7.65243L5.61474 3.14933ZM10.8897 13.3734C10.9823 13.5985 11.0882 13.7953 11.2205 13.9782C11.3528 14.1611 11.5116 14.3017 11.7101 14.4142C11.9086 14.5126 12.1203 14.5687 12.3849 14.5687V14.9626H7.78027V14.5687C8.0449 14.5687 8.46832 14.5126 8.61387 14.4001C8.75942 14.2875 8.85204 14.1329 8.90496 13.9642C8.95789 13.7953 8.95789 13.5843 8.93143 13.3595C8.90496 13.1345 8.85204 12.8954 8.75942 12.6564L7.93905 10.1532H3.22855C3.22855 10.1532 2.32879 13.0782 2.28909 13.3314C2.23617 13.5843 2.2494 13.7953 2.30232 13.9782C2.35525 14.1611 2.47434 14.3157 2.67281 14.4142C2.87129 14.5126 3.12269 14.5687 3.50641 14.5687V14.9626H0V14.5548C0.277867 14.4845 0.423416 14.4423 0.542502 14.372C0.648355 14.3157 0.727746 14.2595 0.8336 14.1468C1.20409 13.7532 1.46872 13.0782 1.68043 12.4454L5.87489 0H6.24538L10.6251 12.6564C10.6538 12.7349 10.6813 12.8121 10.7083 12.8879L10.7083 12.888C10.7683 13.0565 10.8259 13.2183 10.8897 13.3734ZM17.2157 3.58438L20.4178 12.261L23.5008 3.58438H26.253V3.90782C25.2474 3.99219 25.0754 4.2172 25.0489 5.45471V13.0906C25.0754 14.3282 25.2606 14.5671 26.253 14.6375V14.961H22.3761V14.6375C23.4611 14.5532 23.6199 14.3704 23.6331 12.9079V5.1172L20.087 14.961H19.8886L16.4086 5.51096V12.4298C16.4351 14.1876 16.6335 14.5532 17.7053 14.6235V14.947H14.4503V14.6235C15.575 14.5392 15.7602 14.2579 15.7867 12.4298V5.45471C15.7602 4.16095 15.6147 3.97813 14.4768 3.90782V3.58438H17.2157ZM31.1811 10.6492L32.7424 6.00854L34.2905 10.6492H31.1811ZM36.9922 14.2405C36.8997 14.0999 36.8071 13.9452 36.7409 13.7765C36.6748 13.6077 36.6086 13.4249 36.5424 13.228L33.208 3.46857H32.9434L29.7546 13.0733C29.5958 13.5515 29.3973 14.0718 29.1194 14.3671C29.0644 14.4256 29.0157 14.4638 28.969 14.5005C28.9483 14.5167 28.928 14.5327 28.9077 14.5499C28.8151 14.6062 28.7092 14.6343 28.4975 14.6905V14.9999H31.1571V14.6905C30.866 14.6905 30.6675 14.6483 30.522 14.564C30.3764 14.4796 30.2838 14.3812 30.2441 14.2405C30.2044 14.0999 30.1912 13.9312 30.2309 13.7483C30.2574 13.5515 30.9454 11.3296 30.9454 11.3296H34.5047L35.1266 13.228C35.1928 13.4108 35.2325 13.5936 35.259 13.7624C35.2854 13.9312 35.2721 14.0858 35.2325 14.2265C35.1928 14.353 35.1266 14.4655 35.0074 14.5499C34.9017 14.6343 34.5709 14.6765 34.3724 14.6765V14.9858H37.8656V14.6905C37.6671 14.6905 37.4951 14.6483 37.3628 14.564C37.2173 14.4937 37.0982 14.3812 36.9922 14.2405ZM39.4198 3.50089V3.51495H47.2001L47.2793 6.45403H46.9485C46.6443 4.55558 46.3531 4.26027 44.7522 4.23214H44.0111V13.0494C44.0245 14.315 44.2096 14.54 45.3343 14.6103V14.9338H41.3119V14.6103C42.4763 14.526 42.5954 14.3572 42.6087 12.8666V4.21808H41.8677C40.2799 4.26027 39.9888 4.55558 39.6711 6.43997H39.3403L39.4198 3.50089ZM65.747 12.5537C64.7148 13.749 63.8019 14.2412 62.6507 14.2412C61.7774 14.2412 60.9968 13.9037 60.4013 13.2709C59.6339 12.4553 59.2105 10.9365 59.2105 9.08023C59.2105 6.02864 60.5071 4.088 62.5184 4.088C63.3123 4.088 64.0401 4.43957 64.5958 5.10051C65.0455 5.63489 65.244 6.11302 65.5087 7.19584H65.8263L65.694 3.42706H65.4028C65.3235 3.77862 65.0986 3.9755 64.8207 3.9755C64.7017 3.9755 64.4899 3.91925 64.2781 3.83488C63.59 3.55362 62.9021 3.413 62.2538 3.413C61.1158 3.413 59.9778 3.93331 59.0913 4.86145C58.1122 5.90208 57.583 7.44897 57.583 9.29117C57.583 12.7084 59.4354 14.9865 62.2007 14.9865C63.7754 14.9865 65.1648 14.2131 65.9982 12.8631L65.747 12.5537ZM50.4523 3.89171H50.4391V3.56827H54.5145V3.89171C53.3766 3.94796 53.1913 4.1589 53.1648 5.43859V13.0465C53.1913 14.3262 53.3898 14.5651 54.5145 14.5934V14.9167H50.4523V14.5934C51.6166 14.5371 51.7755 14.3541 51.7887 13.0465V5.43859C51.7755 4.14483 51.6166 3.97608 50.4523 3.89171Z" fill="white"/>
</svg>
