<svg width="84" height="39" viewBox="0 0 84 39" fill="none" xmlns="http://www.w3.org/2000/svg">
<path fill-rule="evenodd" clip-rule="evenodd" d="M63.0868 12.3425C65.0031 11.1467 67.2476 10.4313 69.6404 10.3459C69.3757 9.48109 68.444 5.84027 70.138 2.30621C66.9406 4.74055 67.5017 8.46679 67.5017 8.46679C67.5017 8.46679 65.4901 3.21375 62.8856 0C62.5362 4.13196 63.8173 9.60922 63.8173 9.60922C63.8173 9.60922 62.1868 6.21396 58.1848 6.02178C61.5092 7.9543 62.8009 11.4136 63.0868 12.3425ZM57.1063 25.3274C57.1063 17.8429 63.12 11.7677 70.5524 11.7677C77.9742 11.7677 83.9985 17.8322 83.9985 25.3274C83.9985 32.8119 77.9848 38.8871 70.5524 38.8871C63.1305 38.8871 57.1063 32.8226 57.1063 25.3274ZM58.5144 25.3274C58.5144 32.0325 63.9034 37.467 70.5524 37.467C77.1907 37.467 82.5797 32.0325 82.5903 25.3274C82.5903 18.6223 77.2013 13.1877 70.5524 13.1877C63.9034 13.1877 58.5144 18.6223 58.5144 25.3274ZM72.3059 15.1502C68.1344 15.4064 70.0084 20.8943 74.6246 20.6061C79.1348 20.3178 76.7526 14.8726 72.3059 15.1502ZM51.33 23.5196C51.6688 23.306 52.05 23.1993 52.4841 23.1993C53.024 23.1993 53.4793 23.3274 53.8605 23.5836C54.231 23.8399 54.5063 24.1922 54.6757 24.63H55.9144C55.7133 23.8506 55.3109 23.2313 54.718 22.7722C54.1251 22.3131 53.3946 22.0889 52.4947 22.0889C51.8065 22.0889 51.203 22.249 50.6736 22.5693C50.1442 22.8896 49.7419 23.3274 49.4561 23.8933C49.1702 24.4591 49.022 25.0998 49.022 25.8258C49.022 26.5518 49.1702 27.1924 49.4561 27.7583C49.7419 28.3242 50.1548 28.7619 50.6736 29.0716C51.203 29.3812 51.8065 29.5414 52.4947 29.5414C53.384 29.5414 54.1251 29.3171 54.718 28.858C55.3109 28.4096 55.7027 27.7903 55.9144 27.0109H54.6757C54.5063 27.4487 54.231 27.7903 53.8605 28.0466C53.4899 28.3028 53.0346 28.431 52.4841 28.431C52.05 28.431 51.6688 28.3242 51.33 28.1106C50.9912 27.8971 50.7266 27.5875 50.5254 27.1924C50.3348 26.7974 50.2289 26.3383 50.2289 25.8151C50.2289 25.2813 50.3242 24.8222 50.5254 24.4271C50.716 24.0427 50.9807 23.7331 51.33 23.5196ZM24.482 26.3918H21.8351V25.527H25.4772V26.6587C25.3925 27.1926 25.2019 27.6837 24.9055 28.1214C24.5984 28.5592 24.2067 28.9009 23.7197 29.1678C23.222 29.4347 22.6609 29.5628 22.0362 29.5628C21.3269 29.5628 20.7022 29.4027 20.1623 29.0824C19.6223 28.7621 19.2094 28.3243 18.9129 27.7584C18.6165 27.1926 18.4683 26.5519 18.4683 25.8259C18.4683 25.0999 18.6165 24.4593 18.9129 23.8934C19.2094 23.3275 19.6223 22.8898 20.1623 22.5801C20.7022 22.2705 21.3163 22.1104 22.0257 22.1104C22.8938 22.1104 23.6138 22.3239 24.1855 22.751C24.7678 23.178 25.149 23.7653 25.329 24.502H24.1008C23.942 24.1069 23.6879 23.7973 23.3279 23.5624C22.9679 23.3275 22.5444 23.2101 22.0468 23.2101C21.5916 23.2101 21.1892 23.3168 20.8293 23.5304C20.4693 23.7439 20.1834 24.0429 19.9823 24.4379C19.7811 24.833 19.6752 25.2921 19.6752 25.8259C19.6752 26.3918 19.7811 26.8616 19.9823 27.2673C20.1834 27.673 20.4799 27.972 20.8504 28.1855C21.2316 28.399 21.6551 28.5058 22.1527 28.5058C22.7456 28.5058 23.2644 28.3136 23.6985 27.9399C24.1326 27.5662 24.3973 27.0431 24.482 26.3918ZM0 22.176H2.46688C3.30329 22.176 3.92795 22.3789 4.35145 22.7739C4.77495 23.169 4.9867 23.7242 4.9867 24.4182C4.9867 25.1122 4.77495 25.6567 4.34086 26.0517C3.90678 26.4468 3.28212 26.6496 2.46688 26.6496H1.17521V29.4897H0V22.176ZM1.17521 25.6887H2.33983C3.30329 25.6887 3.79031 25.2723 3.79031 24.4288C3.79031 24.0124 3.68444 23.6921 3.45152 23.4786C3.22918 23.2544 2.85862 23.1476 2.35042 23.1476H1.17521V25.6887ZM11.0821 24.4074C11.0821 24.984 10.9233 25.4538 10.6057 25.8168C10.288 26.1798 9.83279 26.4147 9.23989 26.5321L11.135 29.5003H9.8222L8.01174 26.5748H7.17533V29.5003H6.00012V22.1866H8.5517C9.37753 22.1866 10.0128 22.3895 10.4363 22.7952C10.8704 23.201 11.0821 23.7348 11.0821 24.4074ZM7.17533 23.1903V25.7314H8.45642C9.3987 25.7314 9.87514 25.315 9.87514 24.4715C9.87514 24.0658 9.76926 23.7561 9.53634 23.5319C9.314 23.3077 8.95403 23.1903 8.467 23.1903H7.17533ZM14.2703 22.2922L11.6023 29.4885H12.8516L13.4022 27.9083H16.4619L17.0125 29.4885H18.2618L15.6044 22.2922H14.2703ZM13.741 26.9901L14.9373 23.5735L16.1337 26.9901H13.741ZM30.0042 28.0364L27.6431 22.2922H26.2244V29.4885H27.3996V24.0966L29.4748 29.4885H30.5018L32.5663 24.0966V29.4885H33.7415V22.2922H32.3334L30.0042 28.0364ZM34.6094 29.4885L37.2775 22.2922H38.6115L41.269 29.4885H40.0196L39.4691 27.9083H36.4093L35.8588 29.4885H34.6094ZM37.9445 23.5735L36.7481 26.9901H39.1409L37.9445 23.5735ZM41.0805 23.1369H43.0921V29.4897H44.2779V23.1369H46.3001V22.176H41.0805V23.1369ZM46.9287 22.176H48.1039V29.4897H46.9287V22.176ZM60.2657 22.176H62.7326C63.5584 22.176 64.1937 22.3789 64.6172 22.7739C65.0407 23.169 65.2524 23.7242 65.2524 24.4182C65.2524 25.1122 65.0407 25.6567 64.6066 26.0517C64.1725 26.4468 63.5479 26.6496 62.7326 26.6496H61.441V29.4897H60.2657V22.176ZM61.4304 25.6887H62.6056C63.569 25.6887 64.0561 25.2723 64.0455 24.4288C64.0455 24.0124 63.9396 23.6921 63.7067 23.4786C63.4843 23.2544 63.1138 23.1476 62.6056 23.1476H61.4304V25.6887ZM67.2513 22.176H66.0867V29.4897H69.7605V28.5715H67.2513V22.176ZM70.264 29.4885L72.932 22.2922H74.2661L76.9235 29.4885H75.6742L75.1236 27.9083H72.0639L71.5133 29.4885H70.264ZM73.5885 23.5735L72.3921 26.9901H74.7848L73.5885 23.5735ZM80.2968 22.176L78.6345 25.5606L76.9723 22.176H75.6171L78.0416 26.8311V29.4897H79.2168V26.8311L81.6308 22.176H80.2968Z" fill="white"/>
</svg>
