<svg width="72" height="13" viewBox="0 0 72 13" fill="none" xmlns="http://www.w3.org/2000/svg">
<path fill-rule="evenodd" clip-rule="evenodd" d="M69.9943 7.11396L71.9997 10.2644L69.7136 10.2664L67.8224 7.30814H67.8017V10.2664H65.7413V2.59552H68.8172C69.5324 2.55467 70.24 2.75584 70.8192 3.16468C71.3453 3.60766 71.6256 4.26513 71.5755 4.93911C71.5883 5.45071 71.4277 5.95224 71.1182 6.36669C70.8744 6.76335 70.4636 7.03646 69.9943 7.11396ZM69.3097 4.57401C69.2316 4.44764 69.1184 4.3451 68.9831 4.27804C68.8413 4.20851 68.6887 4.16203 68.5313 4.14044C68.3555 4.11594 68.178 4.10407 68.0004 4.10495H67.8009V6.02268H68.0004C68.178 6.02364 68.3555 6.01178 68.5313 5.98719C68.6887 5.96561 68.8413 5.91912 68.9831 5.84959C69.1187 5.7829 69.2319 5.68027 69.3097 5.55363C69.4697 5.24553 69.4697 4.88211 69.3097 4.57401ZM59.9618 2.59578H64.4699V4.29421H62.0301V5.52928H64.4699V7.27927H62.0301V8.51434H64.4699V10.2643H59.9618V2.59578ZM30.1564 4.29421H27.7166V5.52928H30.1564V7.27927H27.7166V8.51434H30.1564V10.2643H25.6483V2.59578H30.1564V4.29421ZM22.5143 10.2663L20.6231 7.30801H20.6024V10.2663H18.542V2.59539H21.6182C22.3334 2.55468 23.0409 2.75583 23.6202 3.16455C24.1463 3.60756 24.4265 4.265 24.3765 4.93898C24.3892 5.45055 24.2285 5.95204 23.9192 6.36656C23.6126 6.76978 23.153 7.03787 22.642 7.11148L24.8008 10.2619L22.5143 10.2663ZM22.1101 4.57473C22.032 4.44832 21.9189 4.34576 21.7836 4.27877C21.6419 4.20917 21.4893 4.16268 21.3321 4.14116C21.1561 4.11667 20.9786 4.10481 20.8008 4.10568H20.6017V6.0234H20.8008C20.9786 6.02435 21.1561 6.01249 21.3321 5.98791C21.4893 5.96639 21.6419 5.9199 21.7836 5.85031C21.9192 5.7838 22.0325 5.68113 22.1101 5.55435C22.2706 5.24635 22.2706 4.88272 22.1101 4.57473ZM35.5668 2.88658C36.0174 3.07879 36.4233 3.3572 36.7604 3.70516C37.1061 4.06199 37.378 4.47992 37.5612 4.93622C37.9438 5.89887 37.9422 6.96539 37.5567 7.92697C37.371 8.38168 37.0972 8.79765 36.75 9.15233C36.4117 9.49889 36.0061 9.77709 35.5564 9.97091C35.1076 10.1668 34.6209 10.2674 34.1287 10.2662H31.4298V2.59631H34.1287C34.6237 2.594 35.1136 2.69255 35.5668 2.88558V2.88658ZM33.3321 4.28527V8.57739H33.7591C34.0363 8.57959 34.3118 8.53682 34.5744 8.45083C35.0978 8.27972 35.5122 7.88654 35.7001 7.38283C35.8157 7.07852 35.8718 6.75594 35.8654 6.43166C35.9001 5.853 35.6939 5.28502 35.2931 4.8551C34.8922 4.46812 34.3425 4.2617 33.7774 4.28594L33.3321 4.28527ZM46.4385 4.28509H44.7361V10.2659H42.6775V4.28509H40.9747V2.59637H46.4385V4.28509ZM49.7542 10.2678H47.6935V2.57446H49.7542V10.2678ZM52.1034 3.65539C52.4624 3.30858 52.8937 3.04031 53.3685 2.86862C53.8842 2.68342 54.4305 2.59129 54.9805 2.59676C55.6814 2.57991 56.373 2.75513 56.9759 3.1023C57.562 3.46308 58.0207 3.98866 58.2907 4.6089L56.4799 5.35248C56.3618 5.02181 56.1487 4.73074 55.8659 4.51348C55.5866 4.30763 55.2434 4.20007 54.8928 4.20848C54.6111 4.20432 54.333 4.26988 54.0847 4.39898C53.8451 4.52522 53.6384 4.70309 53.4807 4.91892C53.3165 5.14222 53.1915 5.3903 53.1106 5.65313C52.9426 6.19113 52.9426 6.76535 53.1106 7.30335C53.1916 7.56554 53.3184 7.8123 53.4855 8.03288C53.6474 8.24606 53.8573 8.42057 54.0992 8.54311C54.3534 8.66962 54.6358 8.73344 54.9214 8.72892C55.3032 8.74345 55.6783 8.62889 55.9825 8.40484C56.2687 8.17523 56.4419 7.83928 56.4596 7.47945H54.9025V6.01103H58.6887C58.6857 6.54233 58.6321 7.07222 58.5286 7.59395C58.4244 8.04896 58.2236 8.47791 57.939 8.85347C57.6091 9.31349 57.1594 9.68041 56.6356 9.91678C56.0942 10.1533 55.5061 10.2721 54.9125 10.265C54.3739 10.2705 53.839 10.1783 53.3354 9.99312C52.869 9.82045 52.4447 9.55573 52.0893 9.21572C51.7348 8.87401 51.4593 8.46319 51.2809 8.01044C51.0881 7.51879 50.9923 6.99636 50.9985 6.47037C50.9916 5.9299 51.0889 5.39293 51.2853 4.88711C51.4664 4.42535 51.7451 4.00545 52.1034 3.65439V3.65539Z" fill="white"/>
<path fill-rule="evenodd" clip-rule="evenodd" d="M9.99122 4.27109C9.98397 4.48 10.0012 4.71369 9.66502 4.82049C9.46586 4.88377 9.22112 4.61961 9.20801 4.43547C9.30754 4.30676 9.44373 4.20912 9.59978 4.15458C9.91252 4.04008 9.98673 4.01831 9.99122 4.27109ZM4.21487 4.82043C3.87866 4.71329 3.89592 4.47994 3.88867 4.27103C3.89316 4.01825 3.96703 4.04002 4.2801 4.15485C4.43607 4.20938 4.57216 4.30703 4.67154 4.43575C4.65807 4.62089 4.41369 4.88404 4.21452 4.82076L4.21487 4.82043ZM11.831 10.9307C12.0368 10.8359 12.2237 10.7067 12.3833 10.549C13.1679 9.73647 13.3205 8.80037 13.4144 7.71697C13.4389 7.43473 13.4337 7.15015 13.4489 6.86055C13.451 6.81602 13.4582 6.61515 13.4793 6.61548C13.5408 6.68115 13.5897 6.75701 13.6236 6.83946C13.7198 7.09185 13.7809 7.35553 13.8055 7.62356C13.8953 8.1505 13.9109 8.68685 13.8517 9.21787C13.8249 9.40273 13.7616 9.58085 13.6653 9.74249C13.1748 10.5393 12.6326 11.2782 12.1144 12.0623C12.0716 12.1269 12.0402 12.0027 12.0109 11.9816L11.9695 11.9411C11.8518 11.8795 11.8062 11.8721 11.7496 11.9096C11.7313 11.9431 11.7151 11.9766 11.6978 12.0101C11.5767 12.2706 11.3578 12.6867 11.2052 12.9556C11.1852 12.9897 11.1439 13.0065 11.1047 12.9964C11.0655 12.9864 11.0382 12.952 11.0382 12.9127C11.0382 12.6137 11.0402 12.3147 11.0361 12.0158C11.0337 11.8293 11.0382 11.6016 10.7717 11.602C10.5118 11.602 10.5038 11.8223 10.5007 12.0134C10.498 12.1879 10.5007 12.3626 10.5007 12.5635C10.5011 12.5955 10.4835 12.6251 10.4547 12.6408C10.4259 12.6564 10.3906 12.6555 10.3627 12.6385C10.1439 12.4788 9.90241 12.3506 9.64573 12.2582C9.23064 12.097 8.76002 12.1472 8.391 12.3921L8.44692 12.3429C8.76097 12.0662 9.19358 11.9539 9.6081 12.0416C9.72141 12.0654 9.8375 12.0744 9.95328 12.0683C9.9816 12.0669 10.0075 12.0524 10.0231 12.0294C10.0386 12.0064 10.0419 11.9776 10.032 11.9518C9.87113 11.537 9.36855 10.0167 10.4017 9.50043C10.4289 9.48761 10.4478 9.46253 10.4521 9.43348C10.4883 9.15425 11.013 7.94731 9.58705 7.15986C9.36337 7.35271 9.08757 7.80301 8.73584 8.09127C9.35716 8.22084 9.68508 7.85691 9.98573 7.60615C9.8625 8.30922 9.29813 8.35944 8.84837 8.61489C9.23566 8.45352 9.62122 8.67248 10.0813 8.43678C9.74859 9.05482 9.08965 8.74982 8.68475 9.07591C9.07308 9.31931 9.43172 9.18639 9.78759 9.1489C9.88818 9.13565 9.99036 9.13939 10.0896 9.15995C10.0058 9.27766 9.90866 9.38592 9.80002 9.48269C9.66224 9.5836 9.50617 9.65855 9.3399 9.70366C9.17056 9.75552 8.98963 9.76028 8.81764 9.71738C8.30885 9.56304 7.80938 9.37924 7.31301 9.18974C7.21658 9.14501 7.14483 9.06199 7.11626 8.96208C7.0852 8.8054 7.12248 8.63766 7.10694 8.47629C7.06739 8.27121 7.20631 8.07374 7.4176 8.03469C7.88494 7.90891 8.29527 7.6347 8.58292 7.25595C8.67918 7.12055 8.74838 6.96882 8.78692 6.80866C8.78676 6.80565 8.78676 6.80263 8.78692 6.79962C8.78789 6.65192 8.76135 6.50527 8.70857 6.36673C8.67896 6.25656 8.68195 6.14052 8.7172 6.03193L8.72583 5.9961C8.72583 5.99443 8.72583 5.99276 8.72583 5.99108H8.7279L8.82903 5.56957C8.86255 5.43903 8.94327 5.3245 9.05651 5.24683L9.08723 5.22875C9.09931 5.21936 9.11225 5.21107 9.12589 5.20397C9.31594 5.10762 9.51481 5.0286 9.71994 4.96794C10.4431 4.69136 10.9976 4.11128 11.2273 3.39104C11.3142 3.15168 11.3355 2.89452 11.2891 2.64478C11.2201 2.78104 11.1134 3.05423 11.0475 3.19184C10.9662 3.41197 10.7401 3.54942 10.5004 3.52429C9.83937 3.52898 9.20252 3.63712 8.84077 4.30537C8.68717 4.66325 8.40786 4.95681 8.05238 5.134C8.04632 4.93999 8.07686 4.74654 8.14248 4.56317C7.83527 4.44063 7.95643 4.26721 8.12039 4.09445C8.34371 3.86009 8.56912 3.62841 8.80591 3.38367C8.60617 3.33539 8.42314 3.23675 8.27537 3.09776H9.56772C9.56772 3.08503 9.56979 3.07265 9.57117 3.05993C9.17594 2.99019 8.7952 2.85798 8.44416 2.66855C9.04443 2.30931 10.2922 2.48776 10.5028 2.42247C10.5052 2.37392 10.3302 2.33777 10.1511 2.28118C9.73685 2.1774 9.58118 2.14492 9.168 2.03645C8.75772 1.92841 8.3623 1.77296 7.99025 1.57342H9.68715C9.10995 1.25518 8.47375 1.0504 7.8149 0.970785C7.44246 0.947684 7.17391 0.948354 6.94436 0.952036L6.94264 0.846575V0.952036C6.71275 0.948354 6.44455 0.947684 6.0721 0.970785C5.41315 1.0504 4.77683 1.25518 4.19951 1.57342H5.8964C5.52426 1.773 5.12872 1.92846 4.71831 2.03645C4.3041 2.14459 4.14946 2.17706 3.73559 2.28118C3.5561 2.33777 3.38144 2.37392 3.38385 2.42247C3.59441 2.48943 4.84223 2.30964 5.44249 2.66855C5.09157 2.85797 4.71095 2.99019 4.31583 3.05993C4.31583 3.07265 4.3179 3.08503 4.31928 3.09776H5.61163C5.464 3.23677 5.28108 3.33541 5.08144 3.38367C5.31788 3.62841 5.54398 3.86009 5.76696 4.09445C5.93092 4.26654 6.05208 4.43996 5.74487 4.56317C5.81067 4.7465 5.84132 4.93996 5.83531 5.134C5.4797 4.95688 5.20027 4.66331 5.04658 4.30537C4.68517 3.63578 4.04798 3.52864 3.38696 3.52429C3.14729 3.54942 2.9211 3.41197 2.83985 3.19184C2.77427 3.05423 2.66726 2.78137 2.59823 2.64478C2.55176 2.89454 2.57317 3.15174 2.66036 3.39104C2.88995 4.11138 3.44453 4.69153 4.16775 4.96794C4.37276 5.02863 4.57151 5.10765 4.76146 5.20397C4.7751 5.21107 4.78804 5.21936 4.80012 5.22875C4.81013 5.23444 4.82048 5.24013 4.83084 5.24683C4.94408 5.3245 5.0248 5.43903 5.05831 5.56957L5.15945 5.99108H5.16117C5.16134 5.99275 5.16134 5.99443 5.16117 5.9961L5.1698 6.03193C5.20484 6.14057 5.20771 6.25658 5.17809 6.36673C5.1254 6.50529 5.09886 6.65193 5.09973 6.79962C5.10023 6.80261 5.10023 6.80567 5.09973 6.80866C5.13839 6.96885 5.2077 7.12057 5.30408 7.25595C5.59151 7.63477 6.00176 7.90901 6.46905 8.03469C6.68035 8.07374 6.81927 8.27121 6.77971 8.47629C6.76453 8.63733 6.80146 8.8054 6.77039 8.96208C6.74183 9.06199 6.67008 9.14501 6.57364 9.18974C6.07728 9.37924 5.57746 9.56304 5.06901 9.71738C4.89706 9.76039 4.71612 9.75575 4.54676 9.70399C4.38051 9.65884 4.22445 9.58389 4.08664 9.48303C3.97807 9.38628 3.88104 9.27802 3.79738 9.16028C3.89652 9.13972 3.9986 9.13598 4.09906 9.14923C4.45529 9.18673 4.81323 9.31964 5.20363 9.07625C4.79839 8.75015 4.13945 9.05515 3.80704 8.43712C4.26716 8.67148 4.65273 8.45386 5.03967 8.61523C4.59094 8.35978 4.02554 8.30889 3.90231 7.60648C4.20331 7.85691 4.53226 8.22117 5.15254 8.09161C4.80081 7.80334 4.52501 7.35304 4.30099 7.1602C2.87506 7.94764 3.39939 9.15492 3.43597 9.43381C3.44021 9.46288 3.45911 9.488 3.48637 9.50077C4.51949 10.017 4.01656 11.5373 3.85571 11.9522C3.84599 11.978 3.84931 12.0067 3.86469 12.0298C3.88006 12.0527 3.90563 12.0672 3.93372 12.069C4.0495 12.0751 4.16559 12.0661 4.2789 12.0422C4.69342 11.9546 5.12604 12.0669 5.44008 12.3435L5.49634 12.3928C5.12744 12.1479 4.65694 12.0977 4.24197 12.2588C3.98511 12.3512 3.74349 12.4793 3.52469 12.6392C3.49676 12.6562 3.46147 12.6571 3.43268 12.6415C3.40389 12.6258 3.38622 12.5962 3.38661 12.5642C3.38661 12.3633 3.38661 12.1885 3.38661 12.0141C3.38351 11.8226 3.37557 11.6033 3.11565 11.6026C2.84917 11.6026 2.85366 11.83 2.8509 12.0164C2.84676 12.3154 2.84814 12.6144 2.84883 12.9134C2.84878 12.9527 2.82147 12.9871 2.78228 12.9971C2.74309 13.0072 2.70184 12.9904 2.68176 12.9562C2.52954 12.6884 2.31069 12.2712 2.18919 12.0108C2.17366 11.9773 2.15467 11.9438 2.13742 11.9103C2.08081 11.8725 2.03386 11.8798 1.91754 11.9418L1.87612 11.9823C1.84712 12.0034 1.81536 12.1276 1.77256 12.063C1.25479 11.2785 0.71183 10.54 0.221677 9.74316C0.125224 9.58159 0.061928 9.40344 0.035281 9.21854C-0.0240527 8.68753 -0.00849149 8.15116 0.0815349 7.62423C0.105992 7.35618 0.167167 7.0925 0.263444 6.84013C0.297129 6.75767 0.345891 6.6818 0.407383 6.61615C0.428439 6.61615 0.435688 6.81703 0.437759 6.86122C0.452946 7.15082 0.447769 7.4354 0.472276 7.71764C0.566165 8.80104 0.718733 9.73714 1.50332 10.5497C1.6629 10.7075 1.84984 10.8368 2.05561 10.9317C2.09001 10.945 2.12928 10.9364 2.15449 10.9101C2.17969 10.8838 2.18566 10.8452 2.16952 10.8128C1.93031 10.3404 1.67212 9.87541 1.47916 9.3856C1.28275 8.88642 1.15124 8.36246 1.0004 7.84553C0.99105 7.81474 1.00008 7.78145 1.02384 7.75911C1.0476 7.73677 1.08217 7.72905 1.11362 7.73906C1.22545 7.77656 1.37526 7.83582 1.49331 7.88001C1.52499 7.89172 1.56076 7.88504 1.5857 7.86277C1.61063 7.8405 1.62044 7.80647 1.61102 7.77489C1.46156 7.27604 0.975891 5.81665 0.975891 5.81665C1.00523 5.85013 1.28931 6.25189 1.30933 6.28771C1.53744 6.64382 1.73763 7.01605 1.90822 7.40125C1.98933 7.60481 2.05561 7.75179 2.09151 7.82879C2.10773 7.86227 2.11394 7.90211 2.08426 7.92655C1.68109 8.258 2.00728 8.8901 2.17815 9.08696C2.4142 9.36222 2.58422 9.68494 2.67589 10.0318C2.70006 10.1027 2.73147 10.2042 2.76598 10.311C2.78104 10.3506 2.82341 10.3738 2.86616 10.366C2.90892 10.3581 2.93954 10.3214 2.93857 10.2792C2.9082 9.83289 2.82708 9.22724 2.6752 9.08863C2.44117 8.87503 2.49053 8.13881 2.75287 8.00757C2.99691 7.8857 3.05179 7.75614 2.92856 7.54823C2.91614 7.52796 2.91258 7.50373 2.91868 7.4809C2.92477 7.45808 2.94001 7.43857 2.96101 7.4267L4.08353 6.80364C4.11671 6.78542 4.1344 6.74885 4.12764 6.71245C4.12088 6.67605 4.09115 6.64777 4.0535 6.64193C3.6642 6.60751 3.27601 6.71825 2.96791 6.95162C2.83831 7.02614 2.68071 7.03916 2.53997 6.98699C2.39923 6.93481 2.29077 6.82315 2.24546 6.68378C2.22173 6.62857 2.2019 6.57185 2.18608 6.51404C2.17297 6.46683 2.21715 6.42699 2.26548 6.4136C2.81776 6.27968 2.9006 6.25222 2.92822 6.08985C2.93223 6.06489 2.92486 6.03948 2.90803 6.0202C2.89121 6.00093 2.86658 5.98969 2.84054 5.98941C2.64827 6.0165 2.45203 5.99339 2.27203 5.92245C2.16529 5.81691 2.09569 5.68132 2.07321 5.53509C2.06382 5.50296 2.0742 5.46845 2.09994 5.44626C2.12568 5.42408 2.16223 5.41814 2.19402 5.43096C2.3887 5.51132 2.44186 5.50864 2.54887 5.42896C2.56848 5.41424 2.58113 5.39245 2.58392 5.36855C2.58672 5.34465 2.57943 5.32067 2.56371 5.30207C2.5398 5.27257 2.51259 5.24574 2.48259 5.22205C2.0777 4.91571 1.45569 3.22364 1.4764 2.72412C1.31379 2.85897 1.19228 3.03436 1.12501 3.23134C0.697332 3.06193 0.371139 3.0087 0.431891 2.42381L0.905475 2.66152C0.905475 2.66152 0.930328 2.48374 0.676277 2.27784C0.131586 1.83624 0.0490882 1.249 0.0318293 0.610877C0.0129659 0.39977 0.118101 0.196312 0.303762 0.0846294C0.489423 -0.027053 0.724059 -0.0279802 0.910652 0.0822312C1.96793 0.56434 3.42493 1.0498 4.62787 0.900143L4.66722 0.892108L4.67102 0.890099L4.66826 0.891773C5.41671 0.742017 6.17845 0.663524 6.94264 0.657414H6.9492C7.71338 0.663514 8.47512 0.742006 9.22357 0.891773L9.22081 0.890099L9.22426 0.892108L9.26396 0.900143C10.4666 1.0498 11.9218 0.565345 12.9808 0.0822312C13.1674 -0.0281725 13.4022 -0.0273487 13.588 0.0843618C13.7738 0.196072 13.879 0.399664 13.86 0.610877C13.8427 1.249 13.7602 1.83657 13.2152 2.27784C12.9612 2.48374 12.9864 2.66152 12.9864 2.66152L13.4599 2.42381C13.5207 3.0087 13.1942 3.06193 12.7668 3.23134C12.6995 3.03436 12.578 2.85897 12.4154 2.72412C12.4361 3.22364 11.8145 4.91571 11.4096 5.22205C11.3795 5.24579 11.3522 5.27262 11.3281 5.30207C11.3121 5.32069 11.3047 5.34494 11.3078 5.36903C11.3104 5.39281 11.3229 5.41454 11.3423 5.42929C11.4493 5.50897 11.5021 5.51165 11.6975 5.4313C11.7292 5.41836 11.7658 5.42428 11.7916 5.44651C11.8173 5.46874 11.8275 5.50333 11.8179 5.53542C11.7954 5.68156 11.7259 5.8171 11.6195 5.92278C11.4393 5.99373 11.243 6.01685 11.0506 5.98974C11.0246 5.99014 11 6.0014 10.9832 6.02065C10.9664 6.0399 10.959 6.06525 10.9629 6.09018C10.9905 6.25256 11.072 6.27968 11.6253 6.41393C11.6736 6.42565 11.7178 6.46583 11.7047 6.51437C11.6889 6.57219 11.6691 6.6289 11.6453 6.68411C11.5999 6.8234 11.4914 6.93497 11.3508 6.98713C11.2101 7.03929 11.0525 7.02634 10.9229 6.95195C10.6148 6.71856 10.2266 6.60781 9.8373 6.64226C9.7997 6.64821 9.77007 6.67654 9.76339 6.71292C9.75671 6.7493 9.77444 6.7858 9.80762 6.80397L10.9301 7.42703C10.9511 7.43896 10.9662 7.45848 10.9723 7.48127C10.9784 7.50407 10.9749 7.52828 10.9626 7.54856C10.8394 7.75681 10.8935 7.88637 11.1379 8.00791C11.4006 8.13881 11.4486 8.87537 11.2159 9.08897C11.0641 9.22758 10.9829 9.83356 10.9522 10.2795C10.9513 10.3217 10.9819 10.3584 11.0246 10.3663C11.0674 10.3742 11.1098 10.3509 11.1248 10.3113C11.1593 10.2045 11.1907 10.1034 11.2149 10.0321C11.3068 9.68535 11.4768 9.36267 11.7127 9.08729C11.8852 8.89043 12.2101 8.25834 11.8069 7.92688C11.7813 7.89994 11.7782 7.85948 11.7993 7.82912C11.8338 7.75212 11.9028 7.60514 11.9826 7.40159C12.1534 7.01647 12.3536 6.64426 12.5815 6.28805C12.6018 6.25089 12.8859 5.84913 12.9149 5.81699C12.9149 5.81699 12.4296 7.27637 12.2801 7.77522C12.2708 7.80672 12.2806 7.84064 12.3054 7.86288C12.3302 7.88511 12.3659 7.89187 12.3975 7.88035C12.5155 7.83615 12.6653 7.7769 12.7772 7.7394C12.8087 7.72912 12.8434 7.73675 12.8672 7.75916C12.8911 7.78158 12.9 7.81504 12.8904 7.84586C12.7396 8.36212 12.6084 8.88608 12.4116 9.38593C12.2183 9.87541 11.9601 10.3408 11.7213 10.8132C11.7047 10.8455 11.7105 10.8844 11.7359 10.9108C11.7612 10.9372 11.8008 10.9457 11.8352 10.932L11.831 10.9307ZM4.45393 7.07553L4.40457 7.09997C4.42252 7.0916 4.43944 7.0839 4.45428 7.07553H4.45393ZM2.42842 0.700046C2.52185 0.722366 2.61171 0.742677 2.69801 0.760979C2.60987 0.734469 2.5199 0.714106 2.42877 0.700046H2.42842ZM2.30957 0.824329C1.06313 0.729581 1.29405 1.62115 1.53568 2.1508L1.73692 2.47388C1.74881 2.4868 1.75848 2.5015 1.76557 2.5174C1.76557 2.52042 1.76833 2.52343 1.76936 2.52644C2.08002 3.23722 2.33822 4.74883 3.83353 5.32837C3.77623 5.29623 3.71927 5.26063 3.66266 5.22157C3.23145 4.86732 2.87851 4.43219 2.62506 3.9423C1.95748 2.6396 2.13249 1.8227 2.05137 1.49828C2.18047 1.5418 2.63818 1.63688 2.72792 1.66769C2.73655 1.6476 1.92469 1.3061 1.69239 1.18758C1.79523 1.12537 1.91054 1.08508 2.03066 1.0694C2.5574 1.0165 2.75554 1.17854 3.09657 1.22575C3.32473 1.24559 3.5547 1.22816 3.77692 1.17419L2.30957 0.824329ZM9.42525 7.07601C9.44009 7.08438 9.45701 7.09241 9.47461 7.10045L9.42525 7.07601ZM11.1833 0.76122C11.2696 0.742471 11.359 0.722048 11.4529 0.700287C11.3616 0.714192 11.2716 0.734443 11.1833 0.760885V0.76122ZM12.1101 2.52716C12.1101 2.52415 12.1129 2.52114 12.1143 2.51812C12.1213 2.50219 12.131 2.48749 12.1429 2.4746L12.3438 2.15152C12.5854 1.62187 12.8164 0.730303 11.5703 0.825051L10.1019 1.17425C10.3241 1.2282 10.5541 1.24563 10.7822 1.2258C11.1233 1.17826 11.3214 1.01656 11.8481 1.06945C11.9682 1.08516 12.0836 1.12544 12.1864 1.18764C11.9548 1.30616 11.1429 1.64765 11.1509 1.66774C11.2417 1.63727 11.6987 1.54185 11.8274 1.49833C11.746 1.82442 11.921 2.641 11.2534 3.94236C11 4.43227 10.647 4.86742 10.2158 5.22162C10.1592 5.26079 10.1022 5.29628 10.0449 5.32842C11.5413 4.74788 11.7995 3.23794 12.1101 2.52683V2.52716ZM6.93614 7.15607C6.757 7.15607 6.56335 7.15607 6.31482 7.15171C6.089 7.15503 5.86491 7.11308 5.65657 7.02851C5.54006 6.94958 5.48199 6.81179 5.50814 6.6763C5.52091 6.49384 5.76565 6.36494 5.76565 6.36494C5.75667 6.79181 6.13844 6.90631 6.93545 6.913H6.9427C7.73972 6.90597 8.12149 6.79181 8.11251 6.36494C8.11251 6.36494 8.3569 6.49384 8.36967 6.6763C8.39565 6.81185 8.33747 6.94961 8.2209 7.02851C8.01257 7.1131 7.78847 7.15505 7.56264 7.15171C7.31515 7.15607 7.12151 7.15741 6.94132 7.15607L6.93787 7.13698L6.93614 7.15607ZM6.93976 11.7288C6.96323 12.2919 5.96566 12.3405 5.12309 11.851C5.07545 11.6769 5.16796 11.3772 5.07027 11.3116C4.92495 11.2142 4.69368 11.3428 4.54733 11.4332C4.40097 11.5236 4.3057 11.6973 4.16211 11.8058C4.22424 10.9353 5.11894 10.1459 6.49448 10.0715C6.64532 10.0635 6.79823 10.0538 6.9401 10.0545C7.08197 10.0551 7.23488 10.0635 7.38573 10.0715C8.76092 10.1455 9.65596 10.936 9.71809 11.8058C9.57312 11.6973 9.47992 11.5239 9.33288 11.4332C9.18583 11.3424 8.95491 11.2145 8.80993 11.3116C8.71225 11.3786 8.80441 11.6769 8.75712 11.851C7.91385 12.3405 6.91628 12.2919 6.93976 11.7288Z" fill="white"/>
</svg>