<svg width="84" height="14" viewBox="0 0 84 14" fill="none" xmlns="http://www.w3.org/2000/svg">
<path fill-rule="evenodd" clip-rule="evenodd" d="M25.203 0H29.6686C29.4864 0.146393 29.3382 0.331626 29.2548 0.594538C28.6402 0.621425 28.0226 0.705078 27.408 0.851473C26.7194 1.01579 26.1202 1.41315 26.1202 2.09731C26.1202 2.3184 26.182 2.52753 26.287 2.70977L26.2808 2.56637L26.3735 2.52155C26.4569 2.47973 26.5464 2.44388 26.6329 2.40802C26.8552 2.3184 27.0869 2.2437 27.3185 2.18097C28.6773 1.8105 30.6785 1.8105 32.0373 2.18097C32.2689 2.2437 32.5005 2.32138 32.7229 2.40802C32.8094 2.44089 32.8989 2.47973 32.9823 2.52155L33.075 2.56637L33.0688 2.70977C33.1738 2.52753 33.2355 2.3184 33.2355 2.09731C33.2355 1.41315 32.6364 1.00982 31.9477 0.851473C31.293 0.702093 30.6383 0.612462 29.9836 0.591549C30.1195 0.424242 30.3295 0.316688 30.5395 0.212121C30.6723 0.143406 30.8051 0.0776783 30.9255 0H34.1527C34.5913 0 34.9495 0.346564 34.9495 0.770805V13.2262C34.9495 13.6505 34.5913 13.997 34.1527 13.997H25.203C24.7645 13.997 24.4063 13.6505 24.4063 13.2262V0.770805C24.4032 0.346564 24.7614 0 25.203 0ZM30.345 6.06487C31.4783 5.44047 31.9972 4.72045 32.062 3.52839C31.6019 4.98634 30.9286 5.69142 30.345 6.06487ZM26.5217 4.20059C26.6823 6.29195 29.017 6.46821 29.6779 7.65132C30.3388 6.46821 32.6735 6.28894 32.8341 4.20059L32.9082 2.65898C31.3116 1.85531 28.0473 1.85531 26.4507 2.65898L26.5217 4.20059Z" fill="white"/>
<path fill-rule="evenodd" clip-rule="evenodd" d="M12.9979 0H21.9477C22.3862 0 22.7444 0.346564 22.7444 0.770805V13.2262C22.7444 13.6505 22.3862 13.997 21.9477 13.997H12.9979C12.5594 13.997 12.2012 13.6505 12.2012 13.2262V0.770805C12.2012 0.346564 12.5594 0 12.9979 0ZM18.1893 9.58132C19.3227 8.95689 19.8415 8.23687 19.9063 7.0448C19.4462 8.50276 18.7729 9.20787 18.1893 9.58132ZM14.3197 7.83055C14.4803 9.9219 16.815 10.1011 17.4759 11.2813C18.1368 10.0982 20.4715 9.91889 20.6321 7.83055L20.7062 6.28894C19.1096 5.48527 15.8453 5.48527 14.2487 6.28894L14.3197 7.83055ZM17.0528 4.2245C16.4382 4.25138 15.8206 4.33503 15.206 4.48143C14.5173 4.64576 13.9182 5.04311 13.9182 5.72726C13.9182 5.94835 13.98 6.15748 14.085 6.33973L14.0788 6.19633L14.1715 6.15153C14.2549 6.1097 14.3444 6.07383 14.4309 6.03799C14.6532 5.94835 14.8849 5.87366 15.1165 5.81091C16.4753 5.44047 18.4765 5.44047 19.8353 5.81091C20.0669 5.87366 20.2985 5.95133 20.5209 6.03799C20.6073 6.07085 20.6969 6.1097 20.7803 6.15153L20.8729 6.19633L20.8668 6.33973C20.9718 6.15748 21.0335 5.94835 21.0335 5.72726C21.0335 5.04311 20.4344 4.63977 19.7457 4.48143C19.091 4.33206 18.4363 4.24242 17.7816 4.22152C17.9175 4.05419 18.1275 3.94663 18.3375 3.84209C18.8007 3.60605 19.2516 3.37601 19.3072 2.71575C18.4487 2.82032 18.881 2.78148 18.0349 3.28638C17.6272 3.49552 17.2103 3.70765 17.0528 4.2245Z" fill="white"/>
<path fill-rule="evenodd" clip-rule="evenodd" d="M0.796766 0H2.08456L2.11544 0.65429C2.27603 2.74562 4.61074 2.92189 5.27163 4.10501C5.93248 2.92189 8.2672 2.74264 8.4278 0.65429L8.45869 0H9.74645C10.185 0 10.5432 0.346564 10.5432 0.770805V13.2262C10.5432 13.6505 10.185 13.997 9.74645 13.997H8.46177L8.50192 13.1694C6.90528 12.3658 3.64103 12.3658 2.04441 13.1694L2.08456 13.997H0.796766C0.358235 14 0 13.6505 0 13.2262V0.770805C0 0.346564 0.358235 0 0.796766 0ZM7.71748 0C7.26355 1.24584 6.64897 1.87623 6.10855 2.21981C7.13692 1.65215 7.65883 1.00384 7.79472 0H7.71748ZM4.85163 11.108C4.23706 11.1349 3.61941 11.2185 3.00485 11.3649C2.31618 11.5292 1.71706 11.9266 1.71706 12.6107C1.71706 12.8318 1.77882 13.041 1.88382 13.2232L1.87765 13.0798L1.97029 13.035C2.05368 12.9932 2.14323 12.9573 2.22971 12.9215C2.45206 12.8318 2.68368 12.7571 2.91529 12.6944C4.27411 12.324 6.27528 12.324 7.63411 12.6944C7.86575 12.7571 8.09734 12.8348 8.31972 12.9215C8.40617 12.9543 8.49574 12.9932 8.57911 13.035L8.67177 13.0798L8.6656 13.2232C8.7706 13.041 8.83234 12.8318 8.83234 12.6107C8.83234 11.9266 8.23323 11.5233 7.54458 11.3649C6.88986 11.2155 6.23514 11.1259 5.58042 11.105C5.71631 10.9377 5.92631 10.8301 6.13631 10.7256C6.59958 10.4895 7.05043 10.2595 7.10603 9.59924C6.24752 9.70378 6.67986 9.66497 5.83369 10.1699C5.42603 10.376 5.00911 10.5881 4.85163 11.108Z" fill="white"/>
<path fill-rule="evenodd" clip-rule="evenodd" d="M43.5934 8.0517C45.3879 8.0517 46.4903 6.97318 46.4903 5.50626V5.48536C46.4903 4.03934 45.4217 3.48365 44.3286 3.30439L46.3639 1.42518V0.134521H40.9255V1.60145H44.0878L42.1669 3.46871L42.4416 4.55919H43.1768C44.1651 4.55919 44.7516 4.91472 44.7516 5.54808V5.56901C44.7516 6.14861 44.2792 6.5131 43.612 6.5131C42.7969 6.5131 42.2223 6.17847 41.6696 5.57797L40.4561 6.70728C41.1448 7.49601 42.1453 8.0517 43.5934 8.0517Z" fill="white"/>
<path fill-rule="evenodd" clip-rule="evenodd" d="M55.4799 8.05165C57.9627 8.05165 59.7665 6.23816 59.7665 4.02434V4.00341C59.7665 1.78959 57.9843 0 55.5014 0C53.0186 0 51.2148 1.81349 51.2148 4.02434V4.04523C51.2148 6.26206 52.9971 8.05165 55.4799 8.05165ZM55.5014 6.47119C54.0746 6.47119 53.0647 5.3598 53.0647 4.02434V4.00341C53.0647 2.66795 54.053 1.58045 55.4799 1.58045C56.9068 1.58045 57.9166 2.69185 57.9166 4.02731V4.04824C57.9166 5.3837 56.9283 6.47119 55.5014 6.47119Z" fill="white"/>
<path fill-rule="evenodd" clip-rule="evenodd" d="M60.1348 7.9174H61.9382L62.673 6.17262H66.0765L66.8113 7.9174H68.6611L65.2179 0.0778809H63.5843L60.1348 7.9174ZM63.3093 4.6609L64.3779 2.13635L65.4465 4.6609H63.3093Z" fill="white"/>
<path fill-rule="evenodd" clip-rule="evenodd" d="M69.9053 7.91727H71.6778V5.53912L72.6074 4.60399L75.1025 7.91727H77.2274L73.8024 3.43584L77.0791 0.134521H74.9419L71.6778 3.53744V0.134521H69.9053V7.91727Z" fill="white"/>
<path fill-rule="evenodd" clip-rule="evenodd" d="M81.0442 8.03075C82.78 8.03075 83.9999 7.16436 83.9999 5.61677V5.59584C83.9999 4.23945 83.0796 3.67182 81.449 3.25952C80.0593 2.91594 79.7132 2.74864 79.7132 2.23775V2.21385C79.7132 1.83442 80.0686 1.53566 80.748 1.53566C81.4274 1.53566 82.1284 1.82546 82.8387 2.30348L83.759 1.01283C82.9435 0.379453 81.943 0.0239258 80.7696 0.0239258C79.1267 0.0239258 77.953 0.959053 77.953 2.36921V2.39012C77.953 3.93474 79 4.37091 80.6213 4.77127C81.9679 5.10587 82.2425 5.32697 82.2425 5.76016V5.78109C82.2425 6.23819 81.8073 6.51602 81.0814 6.51602C80.1611 6.51602 79.4044 6.14856 78.6789 5.57193L77.6318 6.78493C78.5956 7.61845 79.8277 8.03075 81.0442 8.03075Z" fill="white"/>
<path fill-rule="evenodd" clip-rule="evenodd" d="M42.2223 14C42.837 14 43.3124 13.767 43.6584 13.4832V12.073H42.1977V12.6915H42.9418V13.1546C42.7534 13.286 42.5159 13.3487 42.2472 13.3487C41.651 13.3487 41.231 12.9126 41.231 12.318V12.3091C41.231 11.7563 41.6573 11.2963 42.1947 11.2963C42.5839 11.2963 42.8155 11.4158 43.0715 11.6249L43.538 11.0812C43.189 10.7943 42.8214 10.636 42.2193 10.636C41.2031 10.636 40.459 11.3918 40.459 12.318V12.327C40.456 13.289 41.1756 14 42.2223 14Z" fill="white"/>
<path fill-rule="evenodd" clip-rule="evenodd" d="M48.6895 13.9434H49.4429L49.7487 13.2144H51.1693L51.4752 13.9434H52.2472L50.808 10.6689H50.1256L48.6895 13.9434ZM50.0145 12.584L50.462 11.5294L50.9099 12.584H50.0145Z" fill="white"/>
<path fill-rule="evenodd" clip-rule="evenodd" d="M57.3828 13.9434H58.1054V11.8342L59.0413 13.2114H59.0628L60.008 11.8222V13.9434H60.7428V10.6929H59.9463L59.0628 12.0672L58.1797 10.6929H57.3828V13.9434Z" fill="white"/>
<path d="M66.9315 10.6929H66.1934V13.9434H66.9315V10.6929Z" fill="white"/>
<path fill-rule="evenodd" clip-rule="evenodd" d="M72.3818 13.9434H73.1137V11.876L74.7413 13.9434H75.3683V10.6929H74.6394V12.6946L73.0642 10.6929H72.3818V13.9434Z" fill="white"/>
<path fill-rule="evenodd" clip-rule="evenodd" d="M82.4033 14C83.0177 14 83.4935 13.767 83.8391 13.4832V12.073H82.3784V12.6915H83.1229V13.1546C82.9345 13.286 82.6966 13.3487 82.4279 13.3487C81.832 13.3487 81.4087 12.9126 81.4087 12.318V12.3091C81.4087 11.7563 81.835 11.2963 82.3725 11.2963C82.7616 11.2963 82.9932 11.4158 83.2493 11.6249L83.7157 11.0812C83.3667 10.7943 82.9991 10.636 82.397 10.636C81.3812 10.636 80.6367 11.3918 80.6367 12.318V12.327C80.6367 13.289 81.3593 14 82.4033 14Z" fill="white"/>
</svg>