<svg width="90" height="17" viewBox="0 0 90 17" fill="none" xmlns="http://www.w3.org/2000/svg">
<g clip-path="url(#clip0_23674_301470)">
<path d="M14.6387 1.52319H24.6997V3.7405H17.2534V6.97452H22.2107V9.19182H17.2534V12.8129H24.9304V15.0302H14.6387V1.52319Z" fill="white"/>
<path d="M24.2061 5.42847H26.8832L29.2257 12.1208L31.4009 5.42847H33.9948L30.3969 15.0294H27.9911L24.2061 5.42847Z" fill="white"/>
<path d="M33.584 10.249C33.584 7.32018 35.676 5.24536 38.667 5.24536C41.6372 5.24536 43.7292 7.32018 43.7292 10.249C43.7292 13.1374 41.5956 15.2122 38.6046 15.2122C35.6334 15.2122 33.584 13.1778 33.584 10.249ZM41.0926 10.3096V10.2288C41.0926 8.3985 40.1719 7.29996 38.666 7.29996C37.1393 7.29996 36.2186 8.3985 36.2186 10.2288V10.3096C36.2186 12.0995 37.1175 13.1576 38.6244 13.1576C40.1511 13.1576 41.0926 12.1004 41.0926 10.3096Z" fill="white"/>
<path d="M44.9082 1.34033H47.523V15.0293H44.9082V1.34033Z" fill="white"/>
<path d="M49.0146 11.185V5.42847H51.6086V11.0425C51.6086 12.324 52.2363 13.0769 53.4076 13.0769C54.7669 13.0769 55.3323 11.9581 55.3323 10.3108V5.42943H57.9262V15.0304H55.3323V13.668C54.8095 14.6645 53.9095 15.2143 52.6343 15.2143C50.3948 15.2123 49.0146 13.6661 49.0146 11.185Z" fill="white"/>
<path d="M60.2965 12.4864V7.46257H58.8945V5.4282H60.2965V3.61815L62.8271 2.23462V5.4282H64.7726V7.46257H62.8063V12.2428C62.8063 12.7107 63.036 12.9139 63.5172 12.9341H64.6676V15.0291H62.6598C60.7559 14.9271 60.3381 14.0731 60.2965 12.4864Z" fill="white"/>
<path d="M65.9512 1.56372H68.6491V4.02461H65.9512V1.56372ZM65.9937 5.42836H68.6085V15.0293H65.9937V5.42836Z" fill="white"/>
<path d="M69.7861 10.249C69.7861 7.32018 71.8781 5.24536 74.8691 5.24536C77.8393 5.24536 79.9314 7.32018 79.9314 10.249C79.9314 13.1374 77.7978 15.2122 74.8068 15.2122C71.8366 15.2122 69.7861 13.1778 69.7861 10.249ZM77.2958 10.3096V10.2288C77.2958 8.3985 76.375 7.29996 74.8691 7.29996C73.3425 7.29996 72.4217 8.3985 72.4217 10.2288V10.3096C72.4217 12.0995 73.3207 13.1576 74.8266 13.1576C76.3542 13.1576 77.2958 12.1004 77.2958 10.3096Z" fill="white"/>
<path d="M81.0889 5.42825H83.6828V6.99471C84.2056 5.87594 85.1679 5.2251 86.5699 5.2251C88.7243 5.2251 90.0005 6.62885 90.0005 9.27267V15.0292H87.4065V9.41517C87.4065 8.07303 86.8837 7.38079 85.6709 7.38079C84.4363 7.38079 83.6838 8.35706 83.6838 10.1469V15.0282H81.0899L81.0889 5.42825Z" fill="white"/>
<path d="M10.9523 16.7996C10.5067 16.7996 10.1464 16.4482 10.1464 16.0149C10.1474 15.5807 10.5077 15.2303 10.9523 15.2303C11.3988 15.2303 11.7582 15.5807 11.7592 16.0149C11.7582 16.4482 11.3978 16.7996 10.9523 16.7996ZM10.9523 15.0291C10.3939 15.0291 9.94043 15.471 9.94043 16.0149C9.94043 16.5589 10.3939 16.9999 10.9523 16.9999C11.5117 16.9999 11.9651 16.5589 11.9651 16.0149C11.9651 15.471 11.5117 15.0291 10.9523 15.0291Z" fill="white"/>
<path fill-rule="evenodd" clip-rule="evenodd" d="M0.305905 1.65425C0.204184 1.42454 0.103048 1.19616 0 0.970667C3.56325 -0.879818 7.8641 -0.0248594 10.2264 3.00504C10.2719 3.34202 10.2977 3.68477 10.2977 4.03427C10.2977 5.40239 9.93433 6.68772 9.2987 7.80552C2.94418 7.61205 1.57925 4.52975 0.305905 1.65425ZM9.29883 7.80635C10.1047 7.83138 10.9889 7.8102 11.9651 7.7351C11.8245 5.82396 11.1849 4.23632 10.2265 3.00587C10.2721 3.34285 10.2978 3.6856 10.2978 4.03509C10.2978 5.40322 9.93445 6.68855 9.29883 7.80635ZM8.96109 8.34837C7.52351 10.453 5.06518 11.8404 2.2722 11.8404C2.0732 11.8404 1.87618 11.8308 1.68113 11.8173C1.11462 12.662 0.707566 13.5809 0.309388 14.4798L0.309358 14.4798C0.206511 14.712 0.104257 14.9428 0 15.1707C5.00974 17.7722 11.4788 15.0292 11.965 8.40614C10.8501 8.32045 9.85512 8.30504 8.96109 8.34837Z" fill="white"/>
<path d="M8.96062 8.34839C4.83105 8.54672 2.89152 10.0111 1.68066 11.8173C1.87571 11.8308 2.07273 11.8404 2.27173 11.8404C5.06471 11.8404 7.52304 10.4521 8.96062 8.34839Z" fill="white"/>
<path d="M10.5655 15.856H10.4141V15.7588H10.8438V15.856H10.6933V16.2729H10.5655V15.856Z" fill="white"/>
<path d="M10.8975 15.7571H11.0994L11.1965 16.0854L11.2974 15.7571H11.4945V16.2712H11.3687V15.8562L11.2351 16.2712H11.1351L11.0064 15.8582V16.2712H10.8975V15.7571Z" fill="white"/>
</g>
<defs>
<clipPath id="clip0_23674_301470">
<rect width="90" height="17" fill="white"/>
</clipPath>
</defs>
</svg>
