<svg width="62" height="17" viewBox="0 0 62 17" fill="none" xmlns="http://www.w3.org/2000/svg">
<path d="M50.5752 9.92896L50.938 11.4031H53.5222L53.7844 10.0047L50.5752 9.92896Z" fill="white"/>
<path d="M54.9951 10.0327L55.2476 11.4023H57.8451L58.1616 10.1073L54.9951 10.0327Z" fill="white"/>
<path d="M40.5 11.4169H43.4427L43.7311 10.2219H46.2702L46.5586 11.4169H49.5019L48.9964 9.77654L41.0628 9.58911L40.5 11.4169Z" fill="white"/>
<path d="M33.1583 9.43823L32.8711 9.83541C34.2254 11.2843 35.326 11.7155 36.9229 11.7155C38.6352 11.7155 39.8711 10.7778 40.2858 9.58923L33.1583 9.43823Z" fill="white"/>
<path d="M30.0946 11.3609H32.9508L32.0001 9.39673H29.2568L30.0946 11.3609Z" fill="white"/>
<path d="M26.9895 9.28649L24.459 9.22656V11.4516H26.9895V9.28649Z" fill="white"/>
<path d="M4.55566 8.7207V11.3617L7.26422 11.3905V8.75126L4.55566 8.7207Z" fill="white"/>
<path d="M2.77685 8.6693L0 8.60938V11.3896H2.77685V8.6693Z" fill="white"/>
<path d="M17.126 9.03003L23.1864 9.16281V11.5182C23.1864 11.5182 20.8681 12.2374 18.9626 11.1093C18.9626 11.1093 17.5851 10.3414 17.126 9.03003Z" fill="white"/>
<path d="M2.7952 14.8771V14.3642C2.7952 14.2896 2.74947 14.2561 2.59581 14.2561C2.44215 14.2561 2.39642 14.2896 2.39642 14.3642V16.2384C2.39642 16.313 2.44215 16.3465 2.61288 16.3465C2.78362 16.3465 2.82935 16.313 2.82935 16.2384V15.7126H2.59825V15.1391H3.74338V16.2472C3.74338 16.7302 3.53179 16.9999 2.59581 16.9999C1.65983 16.9999 1.44824 16.7302 1.44824 16.2472V14.3548C1.44824 13.8718 1.65983 13.6016 2.59581 13.6016C3.53179 13.6016 3.74338 13.8712 3.74338 14.3548V14.8771H2.7952Z" fill="white"/>
<path d="M13.8661 16.3714H13.352L13.2661 16.9501H12.3398L13.074 13.6499H14.1697L14.9057 16.9501H13.9441L13.8661 16.3714ZM13.7783 15.7233L13.6216 14.5647L13.449 15.7233H13.7783Z" fill="white"/>
<path d="M23.5696 13.6499H24.6476L25.0214 15.6093L25.3952 13.6499H26.4733V16.9501H25.555L25.5897 15.0095L25.2275 16.8766H24.8141L24.4519 15.0095L24.4867 16.9501H23.5684V13.6499H23.5696Z" fill="white"/>
<path d="M36.1581 13.6499V16.9501H35.21V13.6499H36.1581Z" fill="white"/>
<path d="M44.8613 13.6499H45.7333L46.3065 15.2592L46.2876 13.6499H47.2052V16.9501H46.3333L45.726 15.406L45.779 16.9501H44.8613V13.6499Z" fill="white"/>
<path d="M57.2141 14.8771V14.3642C57.2141 14.2896 57.1684 14.2561 57.0148 14.2561C56.8611 14.2561 56.8154 14.2896 56.8154 14.3642V16.2384C56.8154 16.313 56.8611 16.3465 57.0318 16.3465C57.2026 16.3465 57.2483 16.313 57.2483 16.2384V15.7126H57.0172V15.1391H58.1623V16.2472C58.1623 16.7302 57.9507 16.9999 57.0148 16.9999C56.0788 16.9999 55.8672 16.7302 55.8672 16.2472V14.3548C55.8672 13.8718 56.0788 13.6016 57.0148 13.6016C57.9507 13.6016 58.1623 13.8712 58.1623 14.3548V14.8771H57.2141Z" fill="white"/>
<path d="M1.2666 0.43335H3.99833V4.28758H5.82273L5.91054 0.43335H8.58982L8.6697 8.3733L5.91054 8.27694V6.96321L4.05869 6.88213V8.23816L1.27148 8.19939L1.2666 0.43335Z" fill="white"/>
<path d="M8.47899 8.7749L16.1473 8.97349L16.8937 11.4035H14.0589L13.7485 9.85832H10.8333L10.4662 11.4035H7.70703L8.47899 8.7749Z" fill="white"/>
<path d="M15.1054 0.43335H12.1786L9.75293 8.3733L17.492 8.52782L15.1054 0.43335ZM12.8999 7.15592L13.6219 2.78995L14.3834 7.15592H12.8999Z" fill="white"/>
<path d="M24.5671 3.44732V0.433272C24.5671 0.433272 22.3213 -0.706545 20.0158 0.993779C20.0158 0.993779 18.0792 2.16709 17.8676 5.6212C17.8475 5.95257 17.8573 6.28453 17.8957 6.61472C17.9609 7.17464 18.1152 8.04772 18.4719 8.62468L22.5421 8.71927C22.5421 8.71927 20.878 8.23867 20.8981 5.53366C20.8981 5.53366 20.8548 4.26517 21.4811 3.39621C21.8713 2.85509 22.5488 2.59011 23.2262 2.67942C23.6646 2.73758 24.1963 2.92559 24.5671 3.44732Z" fill="white"/>
<path d="M23.2871 8.59114V8.71805H24.57V7.86084H24.4115C24.4115 7.86084 24.2908 8.51594 23.2871 8.59056V8.59114Z" fill="white"/>
<path d="M25.7236 0.315186V8.77393L28.3493 8.88438V8.52716L29.52 6.8051L30.4609 8.88438L33.3932 9.02774L31.2414 4.38857L34.1572 0.345737H31.0121L28.3035 4.59303V0.315186H25.7236Z" fill="white"/>
<path d="M40.2845 3.55404L41.6619 1.58521C41.6619 1.58521 40.6448 0.339635 38.8308 0.052918C37.8308 -0.105129 36.7979 0.0911078 35.9588 0.638103C35.3667 1.02411 34.6911 1.85547 34.6149 2.77967C34.6149 2.77967 34.5948 2.85605 34.5741 2.98883C34.321 4.62629 35.0277 6.16387 36.985 6.70381C37.3893 6.81544 37.8722 6.95763 38.4064 7.04576C38.5527 7.06985 38.6966 7.10921 38.8308 7.1709C39.2125 7.34599 39.7985 7.76255 39.1369 8.50813C39.1369 8.50813 38.5564 8.95583 37.621 8.65501C37.343 8.56571 37.0881 8.41941 36.8637 8.23728C36.5314 7.96877 35.9454 7.46937 35.8314 7.20263L34.4082 9.02751L41.6619 9.1268C41.6619 9.1268 42.718 6.18502 40.7668 4.96823C40.7668 4.96823 39.8716 4.39304 38.6546 4.23852C38.6546 4.23852 37.0936 3.97295 37.1857 3.17684C37.1857 3.17684 37.1625 2.33608 38.471 2.55758C38.471 2.55758 39.3893 2.71269 40.2845 3.55286V3.55404Z" fill="white"/>
<path d="M47.8577 0.345459H44.8503L42.1875 9.22722L50.4284 9.39643L47.8577 0.345459ZM45.6083 7.18084L46.3083 2.75729L47.1461 7.18084H45.6083Z" fill="white"/>
<path d="M49.2139 0.345459H51.8999L53.2541 5.76547L54.3791 0.345459H56.8353L57.9597 5.76547L59.3371 0.345459H61.9999L59.3371 9.58914L56.3072 9.53039L55.6072 5.21201L54.8938 9.45519L51.7761 9.39643L49.2139 0.345459Z" fill="white"/>
</svg>
