<svg width="91" height="16" viewBox="0 0 91 16" fill="none" xmlns="http://www.w3.org/2000/svg">
<g id="Spimomenal">
<path id="Clip 2" fill-rule="evenodd" clip-rule="evenodd" d="M0.832484 0H7.39106C10.6965 0 13.5154 1.95721 14.597 4.94717C14.3886 4.77136 14.1243 4.62233 13.7901 4.52569C13.5503 4.45466 13.3034 4.42206 13.0543 4.42206H4.73876C4.61534 4.42206 4.51521 4.52452 4.51521 4.65027V5.44782C4.51521 5.57357 4.61534 5.67487 4.73876 5.67487H12.6829C13.0333 5.67487 13.2906 5.71096 13.5375 5.78548C14.2931 6.01484 14.6843 6.50735 14.8846 6.95328C15.0092 7.23039 15.0709 7.53078 15.0709 7.8335V15.1489C15.0709 15.6181 14.6971 16 14.2361 16H7.67981C4.33474 16 1.49149 13.9939 0.436618 10.9515C0.654344 11.1413 0.937272 11.3067 1.3017 11.4091C1.53457 11.4743 1.77441 11.5069 2.01543 11.5069H10.3216C10.4497 11.5069 10.5545 11.3998 10.5545 11.2682V10.4905C10.5545 10.3601 10.4497 10.2529 10.3216 10.2529H2.38684C2.03755 10.2529 1.78024 10.2169 1.5334 10.1435C0.596129 9.85941 0.22122 9.17014 0.0710231 8.66599C0.0232863 8.50415 0 8.33532 0 8.16766V0.849949C0 0.380731 0.37258 0 0.832484 0Z" fill="white"/>
<path id="Combined Shape" fill-rule="evenodd" clip-rule="evenodd" d="M37.5905 6.35526C37.785 6.35526 37.9433 6.19458 37.9433 5.99781V5.28758C37.9433 5.09081 37.785 4.93014 37.5905 4.93014C37.3961 4.93014 37.2377 5.09081 37.2377 5.28758V5.99781C37.2377 6.19458 37.3961 6.35526 37.5905 6.35526ZM25.2664 9.01305C24.5676 8.77004 23.8386 8.62689 23.1339 8.48851L23.1311 8.48794L22.975 8.45767C22.5023 8.36453 22.1123 8.26789 21.7478 8.09906C21.3706 7.92441 21.1168 7.59375 21.0493 7.19323C20.9841 6.79736 21.1133 6.40964 21.4067 6.12788C21.5825 5.95905 21.8119 5.84029 22.1076 5.76345C22.8621 5.56901 23.6597 5.55154 24.4782 5.71222C25.3654 5.8857 25.7694 6.313 25.9207 7.23863C25.922 7.24805 25.9229 7.25781 25.9242 7.27175L25.9242 7.27178C25.9254 7.28367 25.9268 7.29861 25.9289 7.31897L25.9487 7.50875H26.6426L26.6356 7.35739C26.5926 6.33396 26.1292 5.62606 25.2583 5.25348C24.6342 4.98569 23.9892 4.94494 23.3849 4.94028H23.308L23.2617 4.94013C23.2155 4.93991 23.1697 4.9397 23.1252 4.94144C22.5629 4.95891 22.1099 5.03226 21.6989 5.17081C20.6371 5.53059 20.1527 6.40149 20.4031 7.50293C20.5346 8.0816 20.9235 8.49959 21.5907 8.78251C22.0028 8.956 22.4371 9.06078 22.8621 9.16208C23.1089 9.22146 23.3569 9.27502 23.6061 9.32858C24.0567 9.42638 24.5224 9.52767 24.9707 9.65924C25.2513 9.74191 25.5435 9.84786 25.7752 10.0621C26.1222 10.3858 26.2072 11.0785 25.9557 11.5431C25.781 11.8645 25.4993 12.0868 25.0906 12.2242C24.0998 12.5584 23.0659 12.5572 22.0156 12.2149C21.522 12.0542 21.1692 11.7434 20.9678 11.2916C20.8455 11.0145 20.7896 10.7001 20.7966 10.3264L20.7989 10.1785H20.0957L20.0992 10.4067L20.0992 10.4083C20.1015 10.5661 20.1039 10.7286 20.1271 10.8923C20.2564 11.8062 20.7768 12.4536 21.6722 12.8134C22.1938 13.0229 22.7748 13.1254 23.5025 13.137H23.6119C24.4036 13.137 25.0417 13.0066 25.6099 12.7307C26.3713 12.3593 26.7567 11.8225 26.7917 11.0879C26.8219 10.4265 26.6403 9.92121 26.2363 9.54281C25.9499 9.27385 25.6006 9.12948 25.2664 9.01305ZM33.7424 11.5727C33.9752 11.1698 34.0812 10.7157 34.0847 10.0952C34.0836 10.079 34.0825 10.0593 34.0813 10.0376C34.0799 10.0123 34.0784 9.9842 34.0765 9.95544L34.0759 9.94219C34.0714 9.84089 34.0665 9.72943 34.0509 9.62011C33.9217 8.69798 33.3139 7.72228 31.9994 7.72228H31.9516C30.9154 7.74091 30.1435 8.3254 29.8873 9.28829C29.7068 9.96592 29.7383 10.6435 29.9793 11.3025C30.1912 11.8812 30.601 12.2631 31.1972 12.4389C31.5139 12.5332 31.8527 12.5635 32.2322 12.5286C32.9006 12.4727 33.4082 12.149 33.7424 11.5727ZM32.187 7.05545C32.8483 7.09852 33.3734 7.29529 33.7938 7.65623C34.2746 8.0684 34.5808 8.61563 34.7054 9.28161C34.8684 10.1607 34.8044 10.928 34.5075 11.6289C34.15 12.473 33.5097 12.9888 32.6038 13.1564C32.0019 13.2682 31.4244 13.2345 30.8865 13.054C30.4359 12.9038 30.0656 12.636 29.7804 12.2588V12.5533C29.7804 13.2694 29.7804 13.9866 29.7827 14.7027C29.7839 14.7259 29.7827 14.7492 29.7792 14.7702L29.7804 14.9704H29.0771V7.18352H29.7804V8.02881C29.9527 7.80643 30.1529 7.62363 30.3858 7.47693C30.9098 7.14859 31.5012 7.0112 32.187 7.05545ZM37.2393 13.0482H37.9449V7.11954H37.2393V13.0482ZM44.1941 7.35113C44.9346 7.70392 45.3165 8.29656 45.3281 9.11507V9.14185C45.3316 9.84277 45.3328 12.9678 45.3328 12.9678V13.1133H44.6284L44.6272 9.25479C44.6237 8.67845 44.4106 8.27211 43.9763 8.01479C43.7738 7.89487 43.5455 7.82035 43.2987 7.79474C42.7748 7.74002 42.3894 7.79008 42.0517 7.95774C41.4614 8.24882 41.1273 8.74715 41.0283 9.47834C41.019 9.54587 41.0143 9.61223 41.012 9.67976V13.1133H40.3076V12.9678C40.3076 12.9678 40.3088 9.47251 40.3053 7.87158V7.22422H41.0085V7.87973C41.338 7.4827 41.7898 7.23587 42.3556 7.14738C43.081 7.03444 43.6631 7.09964 44.1941 7.35113ZM52.5847 11.2992H52.5835C52.2505 12.0723 51.673 12.4927 50.8173 12.5858C50.75 12.5934 50.6818 12.5959 50.6229 12.5981L50.61 12.5986L50.5332 12.6021C49.5808 12.5916 48.9253 12.2225 48.5329 11.4704C48.2814 10.9942 48.201 10.4342 48.2872 9.75652C48.3466 9.28265 48.5166 8.87397 48.7937 8.54447C49.1802 8.0834 49.6995 7.84705 50.383 7.82143C50.4365 7.81911 50.4878 7.81794 50.539 7.81794C50.9593 7.81794 51.3016 7.89013 51.6067 8.04265C52.2598 8.3675 52.6324 8.91472 52.7465 9.71461C52.8339 10.327 52.7803 10.8452 52.5847 11.2992ZM52.0352 7.48864C51.594 7.24647 51.0945 7.15216 50.496 7.14401C50.3412 7.13935 50.1537 7.15099 49.9907 7.17544C48.9836 7.32797 48.264 7.8589 47.8507 8.75542C47.5654 9.3725 47.4851 10.0548 47.6085 10.8407C47.7762 11.9189 48.3444 12.6663 49.3003 13.061C49.6554 13.2078 50.0361 13.2799 50.4518 13.2799C50.6357 13.2799 50.8255 13.266 51.0246 13.238C52.1586 13.075 52.9224 12.4579 53.295 11.4042C53.5698 10.6311 53.5686 9.8196 53.2927 8.99294C53.0726 8.32928 52.6488 7.8228 52.0352 7.48864ZM86.8781 11.3003C87.1541 10.6878 87.175 9.99159 86.9457 9.23478C86.7862 8.71317 86.4776 8.32312 86.0247 8.07629C85.7674 7.93424 85.4717 7.85623 85.0665 7.82363C84.9931 7.81781 84.9233 7.81432 84.8534 7.81432C83.9825 7.81432 83.3025 8.27422 82.9672 9.10089C82.7833 9.55264 82.725 10.058 82.7891 10.6436C82.8915 11.5925 83.4853 12.602 84.8499 12.602H84.8685C85.8186 12.5927 86.4951 12.1549 86.8781 11.3003ZM85.8708 7.26982C86.3563 7.41536 86.7638 7.6913 87.0875 8.09299V7.13942H87.7954V13.131H87.0875V12.2671C87.0421 12.3288 86.9944 12.3858 86.9443 12.4405C86.4995 12.9307 85.9046 13.2078 85.1792 13.2637C85.0686 13.2719 84.9603 13.2765 84.8544 13.2765C84.3758 13.2765 83.9602 13.188 83.5934 13.0076C82.896 12.6664 82.4314 12.0959 82.2125 11.3123C81.9715 10.4577 82.003 9.62988 82.3057 8.84979C82.6806 7.88458 83.3943 7.32105 84.4271 7.17668C84.9382 7.10682 85.4249 7.13709 85.8708 7.26982ZM90.2398 5.09882V13.1466H90.6321C90.6389 13.1466 90.6451 13.1468 90.6508 13.1471L90.653 13.1472C90.6582 13.1475 90.6629 13.1477 90.6671 13.1477C90.6776 13.1477 90.6857 13.1466 90.6892 13.1466H90.9465V5.09882H90.2398ZM64.1123 8.76694C64.1368 8.94973 64.1403 9.1302 64.1403 9.28273L64.1426 12.8746C64.1426 12.8956 64.1414 12.9119 64.1391 12.9294L64.1403 13.1482H63.4393V9.36539C63.4393 9.36074 63.4382 8.96021 63.3567 8.6703L63.3427 8.61674C63.2042 8.20574 62.9387 7.96123 62.5277 7.86576C62.1085 7.76912 61.7057 7.7924 61.3261 7.93212C60.7242 8.15451 60.3504 8.72386 60.3493 9.41779L60.3527 13.1482H59.6472V13.0027C59.6472 13.0027 59.6448 9.74729 59.6402 9.17328C59.6379 8.81467 59.5529 8.52592 59.3782 8.2884C59.157 7.98685 58.8333 7.84014 58.3292 7.81336C58.2931 7.81103 58.257 7.81103 58.2209 7.81103C57.3558 7.81103 56.7457 8.38155 56.5815 9.35841C56.5629 9.46552 56.5513 9.57963 56.5478 9.71702V13.1482H55.8399V7.26148H56.5478V7.87274C56.5943 7.81686 56.6432 7.7633 56.6968 7.71207C57.0461 7.37674 57.4815 7.19395 58.0253 7.1497C58.4607 7.11477 58.81 7.1497 59.1221 7.25216C59.5517 7.39654 59.8789 7.67248 60.0966 8.07417C60.3399 7.68063 60.6869 7.40818 61.1293 7.26381C61.6149 7.1043 62.1039 7.12758 62.4299 7.15785C62.6639 7.17998 62.8863 7.2347 63.0912 7.32319C63.6722 7.57119 64.0157 8.0567 64.1123 8.76694ZM71.5104 9.81823H67.1908C67.3364 8.60502 68.1386 7.84006 69.2971 7.81794H69.3681C69.9339 7.81794 70.3671 7.94718 70.7245 8.22312C71.2042 8.59454 71.4627 9.11848 71.5104 9.81823ZM72.2897 10.3455C72.2897 10.3234 72.2874 9.7901 72.2618 9.5747C72.1512 8.62812 71.6971 7.9272 70.9123 7.49291C70.4513 7.23792 69.9471 7.12732 69.2287 7.14478C67.9981 7.17156 67.0096 7.91788 66.6498 9.09151C66.3878 9.94263 66.4111 10.81 66.722 11.6681C66.9758 12.3714 67.4776 12.8651 68.1727 13.0944C68.5639 13.2213 68.9551 13.2865 69.3417 13.2865C69.7958 13.2865 70.2464 13.198 70.6888 13.0211C71.3653 12.7521 71.8193 12.2445 72.0755 11.4737L72.1407 11.2816H71.5108L71.4025 11.306L71.3664 11.3957C71.1755 11.8568 70.8483 12.1909 70.3942 12.3877C69.7632 12.6601 69.0867 12.6788 68.3881 12.4459C67.9736 12.3073 67.6581 12.0256 67.4532 11.6088C67.3006 11.2967 67.2168 10.9463 67.1889 10.5062C67.1889 10.5027 67.1877 10.498 67.1877 10.4922H72.2909L72.2897 10.3455ZM79.7031 9.11623V9.13137C79.7066 9.84277 79.7077 12.9678 79.7077 12.9678V13.1133H79.0033L79.0022 9.25479C78.9998 8.67845 78.7868 8.27211 78.3525 8.01479C78.1487 7.89487 77.9205 7.82035 77.6749 7.79474C77.1474 7.73885 76.7644 7.79125 76.4279 7.95774C75.8376 8.24998 75.5034 8.74715 75.4044 9.47834C75.3951 9.54587 75.3905 9.6134 75.387 9.68093V13.1133H74.6826L74.6814 7.22422H75.3835V7.8809C75.7118 7.4827 76.1647 7.23703 76.7306 7.14738C77.4536 7.03444 78.0381 7.09964 78.569 7.35113C79.3107 7.70392 79.6914 8.29772 79.7031 9.11623Z" fill="white"/>
</g>
</svg>
