<svg width="60" height="15" viewBox="0 0 60 15" fill="none" xmlns="http://www.w3.org/2000/svg">
<path d="M13.2294 0H11.9355V1.31792H13.2294V0Z" fill="white"/>
<path d="M1.29384 1.52051H0V2.83843H1.29384V1.52051Z" fill="white"/>
<path d="M2.78309 13.6819H1.48926V14.9998H2.78309V13.6819Z" fill="white"/>
<path d="M10.2509 10.6396H8.95703V11.9576H10.2509V10.6396Z" fill="white"/>
<path fill-rule="evenodd" clip-rule="evenodd" d="M4.27705 0H2.98321V1.31792H4.27705V0ZM2.78544 0H1.4916V1.31792H2.78544V0ZM4.4772 1.31792H5.77103V0H4.4772V1.31792ZM7.26264 0H5.9688V1.31792H7.26264V0ZM8.75424 0H7.46041V1.31792H8.75424V0ZM11.7398 0H10.446V1.31792H11.7398V0ZM1.4916 2.83729H2.78544V1.51937H1.4916V2.83729ZM0 4.35666H1.29384V3.03874H0V4.35666ZM1.4916 4.35666H2.78544V3.03874H1.4916V4.35666ZM0 5.87846H1.29384V4.56054H0V5.87846ZM1.4916 5.87846H2.78544V4.56054H1.4916V5.87846ZM0 7.39783H1.29384V6.07991H0V7.39783ZM1.4916 7.39783H2.78544V6.07991H1.4916V7.39783ZM0 8.9172H1.29384V7.59928H0V8.9172ZM1.4916 8.9172H2.78544V7.59928H1.4916V8.9172ZM0 10.439H1.29384V9.12108H0V10.439ZM1.4916 10.439H2.78544V9.12108H1.4916V10.439ZM0 11.9584H1.29384V10.6404H0V11.9584ZM1.4916 11.9584H2.78544V10.6404H1.4916V11.9584ZM2.98559 10.439H4.27943V9.12108H2.98559V10.439ZM2.98559 11.9584H4.27943V10.6404H2.98559V11.9584ZM4.4772 10.439H5.77103V9.12108H4.4772V10.439ZM4.4772 11.9584H5.77103V10.6404H4.4772V11.9584ZM5.9688 10.439H7.26264V9.12108H5.9688V10.439ZM5.9688 11.9584H7.26264V10.6404H5.9688V11.9584ZM7.46279 10.439H8.75663V9.12108H7.46279V10.439ZM7.46279 11.9584H8.75663V10.6404H7.46279V11.9584ZM10.446 10.439H11.7398V9.12108H10.446V10.439ZM0 13.4777H1.29384V12.1598H0V13.4777ZM0 14.9995H1.29384V13.6816H0V14.9995ZM1.4916 13.4777H2.78544V12.1598H1.4916V13.4777ZM2.98559 2.83729H4.27943V1.51937H2.98559V2.83729ZM4.4772 2.83729H5.77103V1.51937H4.4772V2.83729ZM5.9688 2.83729H7.26264V1.51937H5.9688V2.83729ZM7.46279 2.83729H8.75663V1.51937H7.46279V2.83729ZM8.95439 1.31792H10.2482V0H8.95439V1.31792ZM8.95439 10.439H10.2482V9.12108H8.95439V10.439ZM8.95439 2.83729H10.2482V1.51937H8.95439V2.83729ZM10.446 2.83729H11.7398V1.51937H10.446V2.83729ZM11.9376 2.83729H13.2314V1.51937H11.9376V2.83729ZM10.446 4.35666H11.7398V3.03874H10.446V4.35666ZM11.9376 4.35666H13.2314V3.03874H11.9376V4.35666ZM13.4316 3.04117V4.35909H14.7254V3.04117H13.4316ZM11.9376 5.87846H13.2314V4.56054H11.9376V5.87846ZM13.4316 5.87846H14.7254V4.56054H13.4316V5.87846ZM11.9376 7.39783H13.2314V6.07991H11.9376V7.39783ZM13.4316 7.39783H14.7254V6.07991H13.4316V7.39783ZM11.9376 8.9172H13.2314V7.59928H11.9376V8.9172ZM11.9376 10.439H13.2314V9.12108H11.9376V10.439ZM10.446 8.9172H11.7398V7.59928H10.446V8.9172ZM13.4316 8.9172H14.7254V7.59928H13.4316V8.9172Z" fill="white"/>
<path fill-rule="evenodd" clip-rule="evenodd" d="M17.667 5.87846H18.9608V4.56054H17.667V5.87846ZM17.667 7.39783H18.9608V6.07991H17.667V7.39783ZM17.667 8.9172H18.9608V7.59928H17.667V8.9172ZM17.667 10.439H18.9608V9.12108H17.667V10.439ZM17.667 11.9584H18.9608V10.6404H17.667V11.9584ZM19.161 4.35666H20.4548V3.03874H19.161V4.35666ZM19.161 2.83729H20.4548V1.51937H19.161V2.83729ZM20.6526 4.35666H21.9464V3.03874H20.6526V4.35666ZM20.6526 2.83729H21.9464V1.51937H20.6526V2.83729ZM23.438 1.51937H22.1442V2.83729H23.438V1.51937ZM22.1442 1.31792H23.438V0H22.1442V1.31792ZM23.6382 2.83729H24.932V1.51937H23.6382V2.83729ZM23.6382 1.31792H24.932V0H23.6382V1.31792ZM25.1298 2.83729H26.4236V1.51937H25.1298V2.83729ZM26.4236 0H25.1298V1.31792H26.4236V0ZM27.9152 1.51937H26.6214V2.83729H27.9152V1.51937ZM26.6214 1.31792H27.9152V0H26.6214V1.31792ZM19.161 5.87846H20.4548V4.56054H19.161V5.87846ZM19.161 7.39783H20.4548V6.07991H19.161V7.39783ZM19.161 8.9172H20.4548V7.59928H19.161V8.9172ZM25.1298 7.39783H26.4236V6.07991H25.1298V7.39783ZM25.1298 8.9172H26.4236V7.59928H25.1298V8.9172ZM27.9152 6.07991H26.6214V7.39783H27.9152V6.07991ZM27.9152 7.59928H26.6214V8.9172H27.9152V7.59928ZM28.1154 7.39783H29.4092V6.07991H28.1154V7.39783ZM28.1154 8.9172H29.4092V7.59928H28.1154V8.9172ZM28.1154 11.9584H29.4092V10.6404H28.1154V11.9584ZM29.607 7.39783H30.9008V6.07991H29.607V7.39783ZM29.607 8.9172H30.9008V7.59928H29.607V8.9172ZM28.1154 2.83729H29.4092V1.51937H28.1154V2.83729ZM28.1154 4.35666H29.4092V3.03874H28.1154V4.35666ZM29.607 2.83729H30.9008V1.51937H29.607V2.83729ZM29.607 4.35666H30.9008V3.03874H29.607V4.35666ZM19.161 10.439H20.4548V9.12108H19.161V10.439ZM19.161 11.9584H20.4548V10.6404H19.161V11.9584ZM20.6526 11.9584H21.9464V10.6404H20.6526V11.9584ZM20.6526 13.4777H21.9464V12.1598H20.6526V13.4777ZM20.6526 14.9995H21.9464V13.6816H20.6526V14.9995ZM23.438 12.1598H22.1442V13.4777H23.438V12.1598ZM22.1442 14.9995H23.438V13.6816H22.1442V14.9995ZM23.6382 13.4777H24.932V12.1598H23.6382V13.4777ZM23.6382 14.9995H24.932V13.6816H23.6382V14.9995ZM25.1298 13.4777H26.4236V12.1598H25.1298V13.4777ZM25.1298 14.9995H26.4236V13.6816H25.1298V14.9995ZM27.9152 12.1598H26.6214V13.4777H27.9152V12.1598ZM26.6214 14.9995H27.9152V13.6816H26.6214V14.9995ZM28.1154 13.4777H29.4092V12.1598H28.1154V13.4777ZM29.607 13.4777H30.9008V12.1598H29.607V13.4777ZM29.607 10.439H30.9008V9.12108H29.607V10.439ZM29.607 11.9584H30.9008V10.6404H29.607V11.9584ZM31.0986 7.60171V8.91963H32.3924V7.60171H31.0986ZM31.0986 10.439H32.3924V9.12108H31.0986V10.439Z" fill="white"/>
<path d="M18.9608 3.04248H17.667V4.3604H18.9608V3.04248Z" fill="white"/>
<path d="M21.9472 0H20.6533V1.31792H21.9472V0Z" fill="white"/>
<path d="M20.4579 12.1584H19.1641V13.4764H20.4579V12.1584Z" fill="white"/>
<path d="M29.4091 13.6819H28.1152V14.9998H29.4091V13.6819Z" fill="white"/>
<path d="M32.3925 6.07959H31.0986V7.39751H32.3925V6.07959Z" fill="white"/>
<path d="M32.3925 10.6396H31.0986V11.9576H32.3925V10.6396Z" fill="white"/>
<path d="M37.857 0H35.3408V4.10182H36.3463V2.56303H37.857V2.05091H38.3622V0.51212H37.857V0ZM37.3542 1.53879H36.3463V1.02424H37.3542V1.53879ZM39.3677 4.10182H41.3811V3.5897H41.8862V0.51212H41.3811V0H39.3677V0.51212H38.8649V3.5897H39.3677V4.10182ZM39.8704 1.02424H40.8783V3.07515H39.8704V1.02424ZM42.8894 4.10182H44.9028V3.5897H45.408V2.56303H44.4001V3.07758H43.3922V1.02424H44.4001V1.53879H45.408V0.51212H44.9028V0H42.8894V0.51212H42.3866V3.5897H42.8894V4.10182ZM46.9162 2.56303H47.9241V4.10182H48.9321V2.56303H48.4269V1.53879H48.9321V0H47.9241V1.53879H46.9162V0H45.9107V4.10182H46.9162V2.56303ZM52.4538 3.07758H50.4403V2.56303H51.951V1.53879H50.4403V1.02424H52.4538V0H49.4324V4.10182H52.4538V3.07758ZM52.9565 0V1.02424H53.9621V4.10182H54.97V1.02424H55.9779V0H52.9565ZM36.8515 8.01189H37.3542V8.52644H36.3463V6.47553H37.857V5.45129H35.8436V5.96341H35.3408V9.04098H35.8436V9.5531H37.857V9.04098H38.3622V6.99008H36.8515V8.01189ZM41.3811 5.44886H39.3677V5.96098H38.8649V9.55068H39.8704V8.52644H40.8783V9.55068H41.8862V5.96098H41.3811V5.44886ZM40.876 7.49977H39.8681V6.4731H40.876V7.49977ZM44.9028 6.4731H44.4001V6.98765H43.8973V6.4731H43.3922V5.96098H42.8894V5.44886H42.3866V9.55068H43.3922V8.01189H43.8973V8.52644H44.4001V8.01189H44.9028V9.55068H45.9107V5.44886H45.408V5.96098H44.9028V6.4731ZM46.4135 9.55068H49.4348V8.52644H47.419V8.01189H48.9297V6.98765H47.419V6.4731H49.4324V5.44886H46.4111V9.55068H46.4135ZM50.4403 5.96098H49.9376V7.49977H50.4403V8.01189H51.951V8.52644H49.9376V9.55068H52.4538V9.03856H52.9589V7.49977H52.4538V6.98765H50.9431V6.4731H52.9565V5.44886H50.4403V5.96098ZM35.8436 11.4098H35.3408V12.9486H35.8436V13.4608H37.3542V13.9753H35.3408V14.9995H37.857V14.4874H38.3622V12.9486H37.857V12.4365H36.3463V11.922H38.3598V10.8977H35.8436V11.4098ZM41.3787 10.8977H39.3653V11.4098H38.8625V14.4874H39.3653V14.9995H41.3787V14.4874H41.8839V11.4098H41.3787V10.8977ZM40.876 13.9729H39.8681V11.922H40.876V13.9729ZM42.3866 14.9995H43.3922V13.4608H44.9028V12.4365H43.3922V11.922H45.4056V10.8977H42.3842V14.9995H42.3866ZM45.9107 11.922H46.9162V14.9995H47.9241V11.922H48.9321V10.8977H45.9107V11.922Z" fill="white"/>
<path d="M57.4088 1.74024V0.264555H56.9775V0H58.0974V0.264555H57.6757V1.74267H57.4088V1.74024ZM58.3262 1.74024V0H58.6145L59.1721 1.1189L59.7082 0H59.9965V1.74024H59.732V0.550954L59.3246 1.40287H59.0291L58.5883 0.516975V1.74024H58.3262Z" fill="white"/>
</svg>