<svg width="20px" height="20px" viewBox="0 0 20 20" version="1.1" xmlns="http://www.w3.org/2000/svg" xmlns:xlink="http://www.w3.org/1999/xlink">
    <!-- Generator: Sketch 56.2 (81672) - https://sketch.com -->
    <title>Icons/Platforms/Android/White</title>
    <desc>Created with Sketch.</desc>
    <g id="Icons/Platforms/Android/White" stroke="none" stroke-width="1" fill="none" fill-rule="evenodd">
        <g id="androd" transform="translate(3.000000, 1.000000)" fill="#FFFFFF" fill-rule="nonzero">
            <path d="M9.75174419,1.52316625 C11.1497529,2.17357323 12.1302471,3.40945986 12.2547384,4.85190172 L2.73514535,4.85190172 C2.86007267,3.40945986 3.84052326,2.17352962 5.23861919,1.52312265 L4.35928779,0.246727297 C4.30709302,0.170767995 4.3200436,0.0711313668 4.38824128,0.0241691575 C4.45643895,-0.0226622378 4.55402616,0.000579041228 4.60639535,0.0764511343 L5.51982558,1.40246858 C6.1218314,1.16517206 6.79055233,1.03313718 7.49520349,1.03313718 C8.19985465,1.03313718 8.86840116,1.16530288 9.47045058,1.40246858 L10.3840116,0.0764947389 C10.435814,0.000535436577 10.5335756,-0.0226186332 10.6017297,0.0242127622 C10.6699709,0.0713057854 10.6829651,0.170898809 10.6307703,0.246770902 L9.75174419,1.52316625 Z M5.50648256,3.53508486 C5.79723837,3.53508486 6.03296512,3.2992709 6.03292151,3.00838427 C6.03292151,2.71741044 5.79723837,2.48164009 5.50648256,2.48164009 C5.21537791,2.48164009 4.97973837,2.71749765 4.97973837,3.00838427 C4.97973837,3.29931451 5.21550872,3.53508486 5.50648256,3.53508486 Z M9.48344477,3.53508486 C9.7744186,3.53508486 10.0101453,3.2992709 10.0101453,3.00838427 C10.0101453,2.71749765 9.77450581,2.48164009 9.48344477,2.48164009 C9.19268895,2.48164009 8.95696221,2.71741044 8.95696221,3.00838427 C8.95696221,3.29931451 9.19268895,3.53508486 9.48344477,3.53508486 Z M2.12393895,10.867643 C2.12393895,11.4541256 1.64847384,11.9295907 1.06194767,11.9295907 C0.475465116,11.9295907 0,11.4541256 0,10.867643 L0,6.57223602 C0,5.98575346 0.475465116,5.51028834 1.06194767,5.51028834 C1.64847384,5.51028834 2.12393895,5.98575346 2.12393895,6.57223602 L2.12393895,10.867643 Z M2.73497093,5.54312265 L12.255,5.54312265 L12.255,13.3010442 C12.255,13.7619889 11.8813953,14.1353319 11.4205378,14.1353319 L10.4336337,14.1353319 L10.4336337,16.522425 C10.4336337,17.1089511 9.95825581,17.5843726 9.37168605,17.5843726 C8.78511628,17.5843726 8.30973837,17.1089511 8.30973837,16.522425 L8.30973837,14.1353319 L6.68018895,14.1353319 L6.68018895,16.522425 C6.68018895,17.1089511 6.20472384,17.5843726 5.61819767,17.5843726 C5.03167151,17.5843726 4.55625,17.1089511 4.55625,16.522425 L4.55625,14.1353319 L3.56934593,14.1353319 C3.10848837,14.1353319 2.73497093,13.7617709 2.73497093,13.3010442 L2.73497093,5.54312265 Z M12.8659884,10.867643 L12.8659884,6.57223602 C12.8659884,5.98575346 13.3414099,5.51028834 13.927936,5.51028834 C14.5144186,5.51028834 14.9898837,5.98575346 14.9898837,6.57223602 L14.9898837,10.867643 C14.9898837,11.4541256 14.5144186,11.9295907 13.927936,11.9295907 C13.3414099,11.9295907 12.8659884,11.4541256 12.8659884,10.867643 Z" id="Combined-Shape"></path>
        </g>
    </g>
</svg>