<svg width="20px" height="20px" viewBox="0 0 20 20" version="1.1" xmlns="http://www.w3.org/2000/svg" xmlns:xlink="http://www.w3.org/1999/xlink">
    <!-- Generator: Sketch 56.2 (81672) - https://sketch.com -->
    <title>Icons/Platforms/MacOS/White</title>
    <desc>Created with Sketch.</desc>
    <g id="Icons/Platforms/MacOS/White" stroke="none" stroke-width="1" fill="none" fill-rule="evenodd">
        <g id="Apple_logo_black" transform="translate(2.000000, 0.000000)" fill="#FFFFFF" fill-rule="nonzero">
            <path d="M15.0922826,14.2925725 C14.8171014,14.9282971 14.4913768,15.5134783 14.1139855,16.0514855 C13.5995652,16.7849275 13.1783696,17.2926087 12.8537681,17.574529 C12.3505797,18.0372826 11.8114493,18.2742754 11.2341304,18.2877536 C10.8196739,18.2877536 10.3198551,18.1698188 9.73804348,17.9305797 C9.15432246,17.6924638 8.61788768,17.574529 8.1273913,17.574529 C7.61297101,17.574529 7.06126087,17.6924638 6.47113768,17.9305797 C5.88011594,18.1698188 5.40399638,18.2944928 5.03997101,18.3068478 C4.48635145,18.3304348 3.93452899,18.0867029 3.38371739,17.574529 C3.03215942,17.2678986 2.59243116,16.7422464 2.0656558,15.9975725 C1.50046739,15.2023551 1.03580435,14.2802174 0.671778986,13.228913 C0.28192029,12.0933696 0.0864855072,10.9937681 0.0864855072,9.92921014 C0.0864855072,8.70976449 0.349985507,7.65801087 0.877771739,6.77664493 C1.29256522,6.06869928 1.84438768,5.51025 2.53503623,5.10028623 C3.22568478,4.69032246 3.97193116,4.48140942 4.77557246,4.46804348 C5.21530072,4.46804348 5.79194565,4.60406159 6.50853986,4.87138043 C7.22311232,5.13959783 7.68193478,5.27561594 7.88309783,5.27561594 C8.03349275,5.27561594 8.54319565,5.11657246 9.40726449,4.79949638 C10.2243841,4.50544565 10.9140217,4.38369203 11.4789855,4.43165217 C13.0098913,4.5552029 14.1600362,5.15869203 14.9249275,6.24593841 C13.5557609,7.07552536 12.8784783,8.23746377 12.8919565,9.7280471 C12.9043116,10.889087 13.3255072,11.8552536 14.1532971,12.6223913 C14.528442,12.978442 14.9473913,13.2536232 15.4135145,13.449058 C15.3124275,13.7422101 15.2057246,14.0230072 15.0922826,14.2925725 L15.0922826,14.2925725 Z M11.5811957,0.476231884 C11.5811957,1.38625036 11.2487319,2.23593116 10.5860507,3.02238768 C9.78634058,3.95732971 8.81905072,4.49758333 7.77010507,4.41233333 C7.75673913,4.30315942 7.74898913,4.18825725 7.74898913,4.06751449 C7.74898913,3.19389855 8.12930072,2.25895652 8.80467391,1.49451449 C9.14185507,1.10746377 9.57068841,0.785636594 10.0907246,0.52890942 C10.6096377,0.276012319 11.100471,0.136152899 11.5621014,0.112206522 C11.5755797,0.233859058 11.5811957,0.355522826 11.5811957,0.476220652 L11.5811957,0.476231884 Z" id="Shape"></path>
        </g>
    </g>
</svg>