<svg xmlns="http://www.w3.org/2000/svg" viewBox="0 0 373 60" fill="none">
                <path d="M227.311 -12.0641C222.851 -26.7832 241.017 -36.9557 251.236 -25.4619C257.859 -18.0128 269.602 -19.285 274.161 -27.9454C281.194 -41.3083 301.434 -35.2963 300.817 -20.0273C300.418 -10.1315 309.804 -2.58317 319.141 -5.29146C333.548 -9.47028 344.006 9.2044 332.915 19.3043C325.726 25.85 327.258 37.7971 335.904 42.6274C349.244 50.0805 343.794 70.4786 328.726 69.493C318.96 68.8542 311.739 78.2016 314.629 87.741C319.089 102.46 300.923 112.633 290.704 101.139C284.081 93.6898 272.338 94.9619 267.78 103.622C260.746 116.985 240.506 110.973 241.123 95.7043C241.522 85.8084 232.136 78.2601 222.799 80.9684C208.392 85.1472 197.934 66.4725 209.026 56.3727C216.214 49.8269 214.683 37.8799 206.036 33.0495C192.696 25.5964 198.146 5.19837 213.215 6.18398C222.981 6.82275 230.201 -2.52463 227.311 -12.0641Z" fill="url(#paint0_linear_9917_111943)"></path>
                <path d="M262 8L264.123 18.8766L275 21L264.123 23.1234L262 34L259.877 23.1234L249 21L259.877 18.8766L262 8Z" fill="#653BDB"></path>
                <path d="M164.282 -8.95111C163.844 -18.5599 176.421 -21.9299 180.847 -13.3897C183.715 -7.85473 191.029 -6.81828 195.125 -11.3663C201.446 -18.3837 212.789 -11.624 210.065 -2.46324C208.299 3.47383 212.827 9.4942 218.904 9.28979C228.28 8.97439 231.745 21.9042 223.467 26.3192C218.102 29.1805 217.191 36.6581 221.689 40.9171C228.628 47.4885 222.184 59.0142 213.202 56.0972C207.38 54.2067 201.565 58.7613 201.848 64.9887C202.286 74.5975 189.709 77.9675 185.283 69.4273C182.415 63.8923 175.101 62.8559 171.005 67.4039C164.684 74.4213 153.341 67.6616 156.065 58.5008C157.831 52.5638 153.303 46.5434 147.226 46.7478C137.85 47.0632 134.385 34.1334 142.663 29.7184C148.028 26.8571 148.939 19.3795 144.441 15.1205C137.502 8.54915 143.946 -2.97657 152.928 -0.0595771C158.75 1.83093 164.565 -2.72366 164.282 -8.95111Z" fill="url(#paint1_linear_9917_111943)"></path>
                <path d="M53.5903 -19.5855C52.9777 -33.0367 70.5843 -37.7543 76.7793 -25.799C80.7943 -18.0507 91.0331 -16.5997 96.7676 -22.9665C105.616 -32.7901 121.495 -23.3272 117.682 -10.5032C115.21 -2.19194 121.548 6.23591 130.055 5.94975C143.181 5.50823 148.031 23.6085 136.443 29.789C128.933 33.7945 127.657 44.2624 133.953 50.2244C143.668 59.4236 134.648 75.5584 122.073 71.4749C113.924 68.8284 105.782 75.2043 106.179 83.9221C106.792 97.3732 89.185 102.091 82.9899 90.1355C78.9749 82.3872 68.7361 80.9363 63.0017 87.303C54.1536 97.1267 38.2744 87.6637 42.0878 74.8398C44.5592 66.5285 38.221 58.1007 29.7142 58.3868C16.5885 58.8284 11.7385 40.7281 23.3265 34.5476C30.8366 30.542 32.1118 20.0742 25.8158 14.1122C16.1014 4.91295 25.1217 -11.2218 37.6962 -7.13832C45.8457 -4.49181 53.9873 -10.8677 53.5903 -19.5855Z" fill="url(#paint2_linear_9917_111943)"></path>
                <path d="M193.462 36.4678C190.925 27.0019 168.245 35.5787 164.054 19.9395C162.437 13.9033 165.653 7.38053 172.748 3.86215L171.186 -1.96827L179.64 -4.23369L181.166 1.45955C185.908 0.924132 190.117 1.6343 193.204 3.45358L190.043 11.0643C186.937 9.47051 184.088 8.83701 179.971 9.94017C174.751 11.3388 172.748 14.1547 173.593 17.31C176.258 27.256 198.718 17.856 203.001 33.8383C204.839 40.6976 201.163 46.9759 194.252 50.2979L195.998 56.8143L187.543 59.0797L185.816 52.6319C180.155 53.2666 174.2 52.2156 171.167 48.8376L174.769 41.6969C178.758 44.5246 184.088 45.0079 188.058 43.9441C192.322 42.8016 194.436 40.1032 193.462 36.4678Z" fill="url(#paint3_linear_9917_111943)"></path>
                <path d="M85.5 1L87.2151 9.78491L96 11.5L87.2151 13.2151L85.5 22L83.7849 13.2151L75 11.5L83.7849 9.78491L85.5 1Z" fill="#FFC027"></path>
                <path d="M75 27.002L75.8167 31.1852L80 32.002L75.8167 32.8187L75 37.002L74.1833 32.8187L70 32.002L74.1833 31.1852L75 27.002Z" fill="#FFC027"></path>
                <defs>
                <linearGradient id="paint0_linear_9917_111943" x1="160.984" y1="-25.2326" x2="355.125" y2="60.5031" gradientUnits="userSpaceOnUse">
                <stop stop-color="#4F2AB6"></stop>
                <stop offset="1" stop-color="#4F2AB6"></stop>
                </linearGradient>
                <linearGradient id="paint1_linear_9917_111943" x1="126.104" y1="-27.1432" x2="230.588" y2="54.7114" gradientUnits="userSpaceOnUse">
                <stop stop-color="#643BDA"></stop>
                <stop offset="1" stop-color="#2E1081"></stop>
                </linearGradient>
                <linearGradient id="paint2_linear_9917_111943" x1="0.145013" y1="-45.0524" x2="146.412" y2="69.535" gradientUnits="userSpaceOnUse">
                <stop stop-color="#643BDA"></stop>
                <stop offset="1" stop-color="#2E1081"></stop>
                </linearGradient>
                <linearGradient id="paint3_linear_9917_111943" x1="175.192" y1="-3.04188" x2="191.55" y2="58.0061" gradientUnits="userSpaceOnUse">
                <stop stop-color="#693FE2"></stop>
                <stop offset="1" stop-color="#461AC0"></stop>
                </linearGradient>
                </defs>
                </svg>